ISO-10303-21;
HEADER;
/* Generated by software containing ST-Developer
 * from STEP Tools, Inc. (www.steptools.com) 
 */

FILE_DESCRIPTION(
/* description */ (''),
/* implementation_level */ '2;1');

FILE_NAME(
/* name */ 'Bottom.step',
/* time_stamp */ '2026-08-16T22:20:03-04:00',
/* author */ (''),
/* organization */ (''),
/* preprocessor_version */ 'ST-DEVELOPER v20.1',
/* originating_system */ 'Autodesk Translation Framework v15.8.0.0',
/* authorisation */ '');

FILE_SCHEMA (('AUTOMOTIVE_DESIGN { 1 0 10303 214 3 1 1 }'));
ENDSEC;

DATA;
#10=MECHANICAL_DESIGN_GEOMETRIC_PRESENTATION_REPRESENTATION('',(#13),#597);
#11=SHAPE_REPRESENTATION_RELATIONSHIP('SRR','None',#604,#12);
#12=ADVANCED_BREP_SHAPE_REPRESENTATION('',(#14),#596);
#13=STYLED_ITEM('',(#613),#14);
#14=MANIFOLD_SOLID_BREP('Body683',#357);
#15=FACE_BOUND('',#53,.T.);
#16=PLANE('',#374);
#17=PLANE('',#375);
#18=PLANE('',#381);
#19=PLANE('',#384);
#20=PLANE('',#387);
#21=PLANE('',#388);
#22=PLANE('',#389);
#23=PLANE('',#390);
#24=PLANE('',#391);
#25=PLANE('',#392);
#26=PLANE('',#393);
#27=PLANE('',#394);
#28=PLANE('',#395);
#29=PLANE('',#396);
#30=PLANE('',#397);
#31=FACE_OUTER_BOUND('',#50,.T.);
#32=FACE_OUTER_BOUND('',#51,.T.);
#33=FACE_OUTER_BOUND('',#52,.T.);
#34=FACE_OUTER_BOUND('',#54,.T.);
#35=FACE_OUTER_BOUND('',#55,.T.);
#36=FACE_OUTER_BOUND('',#56,.T.);
#37=FACE_OUTER_BOUND('',#57,.T.);
#38=FACE_OUTER_BOUND('',#58,.T.);
#39=FACE_OUTER_BOUND('',#59,.T.);
#40=FACE_OUTER_BOUND('',#60,.T.);
#41=FACE_OUTER_BOUND('',#61,.T.);
#42=FACE_OUTER_BOUND('',#62,.T.);
#43=FACE_OUTER_BOUND('',#63,.T.);
#44=FACE_OUTER_BOUND('',#64,.T.);
#45=FACE_OUTER_BOUND('',#65,.T.);
#46=FACE_OUTER_BOUND('',#66,.T.);
#47=FACE_OUTER_BOUND('',#67,.T.);
#48=FACE_OUTER_BOUND('',#68,.T.);
#49=FACE_OUTER_BOUND('',#69,.T.);
#50=EDGE_LOOP('',(#238,#239,#240,#241));
#51=EDGE_LOOP('',(#242,#243,#244,#245));
#52=EDGE_LOOP('',(#246,#247,#248,#249,#250,#251,#252,#253));
#53=EDGE_LOOP('',(#254,#255,#256,#257,#258,#259,#260,#261));
#54=EDGE_LOOP('',(#262,#263,#264,#265));
#55=EDGE_LOOP('',(#266,#267,#268,#269));
#56=EDGE_LOOP('',(#270,#271,#272,#273));
#57=EDGE_LOOP('',(#274,#275,#276,#277));
#58=EDGE_LOOP('',(#278,#279,#280,#281));
#59=EDGE_LOOP('',(#282,#283,#284,#285));
#60=EDGE_LOOP('',(#286,#287,#288,#289));
#61=EDGE_LOOP('',(#290,#291,#292,#293));
#62=EDGE_LOOP('',(#294,#295,#296,#297));
#63=EDGE_LOOP('',(#298,#299,#300,#301));
#64=EDGE_LOOP('',(#302,#303,#304,#305));
#65=EDGE_LOOP('',(#306,#307,#308,#309));
#66=EDGE_LOOP('',(#310,#311,#312,#313));
#67=EDGE_LOOP('',(#314,#315,#316,#317));
#68=EDGE_LOOP('',(#318,#319,#320,#321,#322,#323,#324,#325));
#69=EDGE_LOOP('',(#326,#327,#328,#329,#330,#331,#332,#333));
#70=LINE('',#500,#110);
#71=LINE('',#503,#111);
#72=LINE('',#506,#112);
#73=LINE('',#508,#113);
#74=LINE('',#509,#114);
#75=LINE('',#512,#115);
#76=LINE('',#516,#116);
#77=LINE('',#520,#117);
#78=LINE('',#524,#118);
#79=LINE('',#526,#119);
#80=LINE('',#528,#120);
#81=LINE('',#530,#121);
#82=LINE('',#532,#122);
#83=LINE('',#534,#123);
#84=LINE('',#536,#124);
#85=LINE('',#537,#125);
#86=LINE('',#540,#126);
#87=LINE('',#544,#127);
#88=LINE('',#545,#128);
#89=LINE('',#548,#129);
#90=LINE('',#551,#130);
#91=LINE('',#554,#131);
#92=LINE('',#555,#132);
#93=LINE('',#561,#133);
#94=LINE('',#562,#134);
#95=LINE('',#563,#135);
#96=LINE('',#566,#136);
#97=LINE('',#567,#137);
#98=LINE('',#570,#138);
#99=LINE('',#571,#139);
#100=LINE('',#574,#140);
#101=LINE('',#575,#141);
#102=LINE('',#578,#142);
#103=LINE('',#579,#143);
#104=LINE('',#582,#144);
#105=LINE('',#583,#145);
#106=LINE('',#586,#146);
#107=LINE('',#587,#147);
#108=LINE('',#589,#148);
#109=LINE('',#591,#149);
#110=VECTOR('',#404,10.);
#111=VECTOR('',#407,10.);
#112=VECTOR('',#410,10.);
#113=VECTOR('',#411,10.);
#114=VECTOR('',#412,10.);
#115=VECTOR('',#415,10.);
#116=VECTOR('',#418,10.);
#117=VECTOR('',#421,10.);
#118=VECTOR('',#424,10.);
#119=VECTOR('',#425,10.);
#120=VECTOR('',#426,10.);
#121=VECTOR('',#427,10.);
#122=VECTOR('',#428,10.);
#123=VECTOR('',#429,10.);
#124=VECTOR('',#430,10.);
#125=VECTOR('',#431,10.);
#126=VECTOR('',#434,10.);
#127=VECTOR('',#439,10.);
#128=VECTOR('',#440,10.);
#129=VECTOR('',#443,10.);
#130=VECTOR('',#446,10.);
#131=VECTOR('',#449,10.);
#132=VECTOR('',#450,10.);
#133=VECTOR('',#457,10.);
#134=VECTOR('',#458,10.);
#135=VECTOR('',#459,10.);
#136=VECTOR('',#462,10.);
#137=VECTOR('',#463,10.);
#138=VECTOR('',#466,10.);
#139=VECTOR('',#467,10.);
#140=VECTOR('',#470,10.);
#141=VECTOR('',#471,10.);
#142=VECTOR('',#474,10.);
#143=VECTOR('',#475,10.);
#144=VECTOR('',#478,10.);
#145=VECTOR('',#479,10.);
#146=VECTOR('',#482,10.);
#147=VECTOR('',#483,10.);
#148=VECTOR('',#486,10.);
#149=VECTOR('',#489,10.);
#150=CIRCLE('',#372,2.);
#151=CIRCLE('',#373,2.);
#152=CIRCLE('',#376,2.);
#153=CIRCLE('',#377,2.);
#154=CIRCLE('',#378,2.);
#155=CIRCLE('',#380,2.);
#156=CIRCLE('',#383,2.);
#157=CIRCLE('',#386,2.);
#158=VERTEX_POINT('',#496);
#159=VERTEX_POINT('',#497);
#160=VERTEX_POINT('',#499);
#161=VERTEX_POINT('',#501);
#162=VERTEX_POINT('',#505);
#163=VERTEX_POINT('',#507);
#164=VERTEX_POINT('',#511);
#165=VERTEX_POINT('',#513);
#166=VERTEX_POINT('',#515);
#167=VERTEX_POINT('',#517);
#168=VERTEX_POINT('',#519);
#169=VERTEX_POINT('',#522);
#170=VERTEX_POINT('',#523);
#171=VERTEX_POINT('',#525);
#172=VERTEX_POINT('',#527);
#173=VERTEX_POINT('',#529);
#174=VERTEX_POINT('',#531);
#175=VERTEX_POINT('',#533);
#176=VERTEX_POINT('',#535);
#177=VERTEX_POINT('',#539);
#178=VERTEX_POINT('',#543);
#179=VERTEX_POINT('',#547);
#180=VERTEX_POINT('',#549);
#181=VERTEX_POINT('',#553);
#182=VERTEX_POINT('',#559);
#183=VERTEX_POINT('',#560);
#184=VERTEX_POINT('',#565);
#185=VERTEX_POINT('',#569);
#186=VERTEX_POINT('',#573);
#187=VERTEX_POINT('',#577);
#188=VERTEX_POINT('',#581);
#189=VERTEX_POINT('',#585);
#190=EDGE_CURVE('',#158,#159,#150,.T.);
#191=EDGE_CURVE('',#159,#160,#70,.T.);
#192=EDGE_CURVE('',#160,#161,#151,.T.);
#193=EDGE_CURVE('',#161,#158,#71,.T.);
#194=EDGE_CURVE('',#162,#159,#72,.T.);
#195=EDGE_CURVE('',#163,#162,#73,.T.);
#196=EDGE_CURVE('',#160,#163,#74,.T.);
#197=EDGE_CURVE('',#158,#164,#75,.T.);
#198=EDGE_CURVE('',#165,#164,#152,.T.);
#199=EDGE_CURVE('',#165,#166,#76,.T.);
#200=EDGE_CURVE('',#167,#166,#153,.T.);
#201=EDGE_CURVE('',#167,#168,#77,.T.);
#202=EDGE_CURVE('',#162,#168,#154,.T.);
#203=EDGE_CURVE('',#169,#170,#78,.T.);
#204=EDGE_CURVE('',#170,#171,#79,.T.);
#205=EDGE_CURVE('',#171,#172,#80,.T.);
#206=EDGE_CURVE('',#172,#173,#81,.T.);
#207=EDGE_CURVE('',#173,#174,#82,.T.);
#208=EDGE_CURVE('',#174,#175,#83,.T.);
#209=EDGE_CURVE('',#175,#176,#84,.T.);
#210=EDGE_CURVE('',#176,#169,#85,.T.);
#211=EDGE_CURVE('',#168,#177,#86,.T.);
#212=EDGE_CURVE('',#177,#163,#155,.T.);
#213=EDGE_CURVE('',#178,#167,#87,.T.);
#214=EDGE_CURVE('',#177,#178,#88,.T.);
#215=EDGE_CURVE('',#164,#179,#89,.T.);
#216=EDGE_CURVE('',#179,#180,#156,.T.);
#217=EDGE_CURVE('',#180,#165,#90,.T.);
#218=EDGE_CURVE('',#181,#180,#91,.T.);
#219=EDGE_CURVE('',#166,#181,#92,.T.);
#220=EDGE_CURVE('',#181,#178,#157,.T.);
#221=EDGE_CURVE('',#182,#183,#93,.T.);
#222=EDGE_CURVE('',#182,#174,#94,.T.);
#223=EDGE_CURVE('',#183,#173,#95,.T.);
#224=EDGE_CURVE('',#184,#182,#96,.T.);
#225=EDGE_CURVE('',#184,#175,#97,.T.);
#226=EDGE_CURVE('',#185,#184,#98,.T.);
#227=EDGE_CURVE('',#185,#176,#99,.T.);
#228=EDGE_CURVE('',#186,#185,#100,.T.);
#229=EDGE_CURVE('',#186,#169,#101,.T.);
#230=EDGE_CURVE('',#183,#187,#102,.T.);
#231=EDGE_CURVE('',#187,#172,#103,.T.);
#232=EDGE_CURVE('',#187,#188,#104,.T.);
#233=EDGE_CURVE('',#188,#171,#105,.T.);
#234=EDGE_CURVE('',#188,#189,#106,.T.);
#235=EDGE_CURVE('',#189,#170,#107,.T.);
#236=EDGE_CURVE('',#189,#186,#108,.T.);
#237=EDGE_CURVE('',#179,#161,#109,.T.);
#238=ORIENTED_EDGE('',*,*,#190,.T.);
#239=ORIENTED_EDGE('',*,*,#191,.T.);
#240=ORIENTED_EDGE('',*,*,#192,.T.);
#241=ORIENTED_EDGE('',*,*,#193,.T.);
#242=ORIENTED_EDGE('',*,*,#191,.F.);
#243=ORIENTED_EDGE('',*,*,#194,.F.);
#244=ORIENTED_EDGE('',*,*,#195,.F.);
#245=ORIENTED_EDGE('',*,*,#196,.F.);
#246=ORIENTED_EDGE('',*,*,#190,.F.);
#247=ORIENTED_EDGE('',*,*,#197,.T.);
#248=ORIENTED_EDGE('',*,*,#198,.F.);
#249=ORIENTED_EDGE('',*,*,#199,.T.);
#250=ORIENTED_EDGE('',*,*,#200,.F.);
#251=ORIENTED_EDGE('',*,*,#201,.T.);
#252=ORIENTED_EDGE('',*,*,#202,.F.);
#253=ORIENTED_EDGE('',*,*,#194,.T.);
#254=ORIENTED_EDGE('',*,*,#203,.T.);
#255=ORIENTED_EDGE('',*,*,#204,.T.);
#256=ORIENTED_EDGE('',*,*,#205,.T.);
#257=ORIENTED_EDGE('',*,*,#206,.T.);
#258=ORIENTED_EDGE('',*,*,#207,.T.);
#259=ORIENTED_EDGE('',*,*,#208,.T.);
#260=ORIENTED_EDGE('',*,*,#209,.T.);
#261=ORIENTED_EDGE('',*,*,#210,.T.);
#262=ORIENTED_EDGE('',*,*,#202,.T.);
#263=ORIENTED_EDGE('',*,*,#211,.T.);
#264=ORIENTED_EDGE('',*,*,#212,.T.);
#265=ORIENTED_EDGE('',*,*,#195,.T.);
#266=ORIENTED_EDGE('',*,*,#211,.F.);
#267=ORIENTED_EDGE('',*,*,#201,.F.);
#268=ORIENTED_EDGE('',*,*,#213,.F.);
#269=ORIENTED_EDGE('',*,*,#214,.F.);
#270=ORIENTED_EDGE('',*,*,#198,.T.);
#271=ORIENTED_EDGE('',*,*,#215,.T.);
#272=ORIENTED_EDGE('',*,*,#216,.T.);
#273=ORIENTED_EDGE('',*,*,#217,.T.);
#274=ORIENTED_EDGE('',*,*,#217,.F.);
#275=ORIENTED_EDGE('',*,*,#218,.F.);
#276=ORIENTED_EDGE('',*,*,#219,.F.);
#277=ORIENTED_EDGE('',*,*,#199,.F.);
#278=ORIENTED_EDGE('',*,*,#200,.T.);
#279=ORIENTED_EDGE('',*,*,#219,.T.);
#280=ORIENTED_EDGE('',*,*,#220,.T.);
#281=ORIENTED_EDGE('',*,*,#213,.T.);
#282=ORIENTED_EDGE('',*,*,#221,.F.);
#283=ORIENTED_EDGE('',*,*,#222,.T.);
#284=ORIENTED_EDGE('',*,*,#207,.F.);
#285=ORIENTED_EDGE('',*,*,#223,.F.);
#286=ORIENTED_EDGE('',*,*,#224,.F.);
#287=ORIENTED_EDGE('',*,*,#225,.T.);
#288=ORIENTED_EDGE('',*,*,#208,.F.);
#289=ORIENTED_EDGE('',*,*,#222,.F.);
#290=ORIENTED_EDGE('',*,*,#226,.F.);
#291=ORIENTED_EDGE('',*,*,#227,.T.);
#292=ORIENTED_EDGE('',*,*,#209,.F.);
#293=ORIENTED_EDGE('',*,*,#225,.F.);
#294=ORIENTED_EDGE('',*,*,#228,.F.);
#295=ORIENTED_EDGE('',*,*,#229,.T.);
#296=ORIENTED_EDGE('',*,*,#210,.F.);
#297=ORIENTED_EDGE('',*,*,#227,.F.);
#298=ORIENTED_EDGE('',*,*,#230,.F.);
#299=ORIENTED_EDGE('',*,*,#223,.T.);
#300=ORIENTED_EDGE('',*,*,#206,.F.);
#301=ORIENTED_EDGE('',*,*,#231,.F.);
#302=ORIENTED_EDGE('',*,*,#232,.F.);
#303=ORIENTED_EDGE('',*,*,#231,.T.);
#304=ORIENTED_EDGE('',*,*,#205,.F.);
#305=ORIENTED_EDGE('',*,*,#233,.F.);
#306=ORIENTED_EDGE('',*,*,#234,.F.);
#307=ORIENTED_EDGE('',*,*,#233,.T.);
#308=ORIENTED_EDGE('',*,*,#204,.F.);
#309=ORIENTED_EDGE('',*,*,#235,.F.);
#310=ORIENTED_EDGE('',*,*,#236,.F.);
#311=ORIENTED_EDGE('',*,*,#235,.T.);
#312=ORIENTED_EDGE('',*,*,#203,.F.);
#313=ORIENTED_EDGE('',*,*,#229,.F.);
#314=ORIENTED_EDGE('',*,*,#193,.F.);
#315=ORIENTED_EDGE('',*,*,#237,.F.);
#316=ORIENTED_EDGE('',*,*,#215,.F.);
#317=ORIENTED_EDGE('',*,*,#197,.F.);
#318=ORIENTED_EDGE('',*,*,#228,.T.);
#319=ORIENTED_EDGE('',*,*,#226,.T.);
#320=ORIENTED_EDGE('',*,*,#224,.T.);
#321=ORIENTED_EDGE('',*,*,#221,.T.);
#322=ORIENTED_EDGE('',*,*,#230,.T.);
#323=ORIENTED_EDGE('',*,*,#232,.T.);
#324=ORIENTED_EDGE('',*,*,#234,.T.);
#325=ORIENTED_EDGE('',*,*,#236,.T.);
#326=ORIENTED_EDGE('',*,*,#192,.F.);
#327=ORIENTED_EDGE('',*,*,#196,.T.);
#328=ORIENTED_EDGE('',*,*,#212,.F.);
#329=ORIENTED_EDGE('',*,*,#214,.T.);
#330=ORIENTED_EDGE('',*,*,#220,.F.);
#331=ORIENTED_EDGE('',*,*,#218,.T.);
#332=ORIENTED_EDGE('',*,*,#216,.F.);
#333=ORIENTED_EDGE('',*,*,#237,.T.);
#334=CYLINDRICAL_SURFACE('',#371,2.);
#335=CYLINDRICAL_SURFACE('',#379,2.);
#336=CYLINDRICAL_SURFACE('',#382,2.);
#337=CYLINDRICAL_SURFACE('',#385,2.);
#338=ADVANCED_FACE('',(#31),#334,.T.);
#339=ADVANCED_FACE('',(#32),#16,.T.);
#340=ADVANCED_FACE('',(#33,#15),#17,.T.);
#341=ADVANCED_FACE('',(#34),#335,.T.);
#342=ADVANCED_FACE('',(#35),#18,.T.);
#343=ADVANCED_FACE('',(#36),#336,.T.);
#344=ADVANCED_FACE('',(#37),#19,.T.);
#345=ADVANCED_FACE('',(#38),#337,.T.);
#346=ADVANCED_FACE('',(#39),#20,.T.);
#347=ADVANCED_FACE('',(#40),#21,.T.);
#348=ADVANCED_FACE('',(#41),#22,.T.);
#349=ADVANCED_FACE('',(#42),#23,.T.);
#350=ADVANCED_FACE('',(#43),#24,.T.);
#351=ADVANCED_FACE('',(#44),#25,.T.);
#352=ADVANCED_FACE('',(#45),#26,.T.);
#353=ADVANCED_FACE('',(#46),#27,.T.);
#354=ADVANCED_FACE('',(#47),#28,.T.);
#355=ADVANCED_FACE('',(#48),#29,.T.);
#356=ADVANCED_FACE('',(#49),#30,.F.);
#357=CLOSED_SHELL('',(#338,#339,#340,#341,#342,#343,#344,#345,#346,#347,
#348,#349,#350,#351,#352,#353,#354,#355,#356));
#358=DERIVED_UNIT_ELEMENT(#360,1.);
#359=DERIVED_UNIT_ELEMENT(#599,-3.);
#360=(
MASS_UNIT()
NAMED_UNIT(*)
SI_UNIT(.KILO.,.GRAM.)
);
#361=DERIVED_UNIT((#358,#359));
#362=MEASURE_REPRESENTATION_ITEM('density measure',
POSITIVE_RATIO_MEASURE(7850.),#361);
#363=PROPERTY_DEFINITION_REPRESENTATION(#368,#365);
#364=PROPERTY_DEFINITION_REPRESENTATION(#369,#366);
#365=REPRESENTATION('material name',(#367),#596);
#366=REPRESENTATION('density',(#362),#596);
#367=DESCRIPTIVE_REPRESENTATION_ITEM('Steel','Steel');
#368=PROPERTY_DEFINITION('material property','material name',#606);
#369=PROPERTY_DEFINITION('material property','density of part',#606);
#370=AXIS2_PLACEMENT_3D('',#494,#398,#399);
#371=AXIS2_PLACEMENT_3D('',#495,#400,#401);
#372=AXIS2_PLACEMENT_3D('',#498,#402,#403);
#373=AXIS2_PLACEMENT_3D('',#502,#405,#406);
#374=AXIS2_PLACEMENT_3D('',#504,#408,#409);
#375=AXIS2_PLACEMENT_3D('',#510,#413,#414);
#376=AXIS2_PLACEMENT_3D('',#514,#416,#417);
#377=AXIS2_PLACEMENT_3D('',#518,#419,#420);
#378=AXIS2_PLACEMENT_3D('',#521,#422,#423);
#379=AXIS2_PLACEMENT_3D('',#538,#432,#433);
#380=AXIS2_PLACEMENT_3D('',#541,#435,#436);
#381=AXIS2_PLACEMENT_3D('',#542,#437,#438);
#382=AXIS2_PLACEMENT_3D('',#546,#441,#442);
#383=AXIS2_PLACEMENT_3D('',#550,#444,#445);
#384=AXIS2_PLACEMENT_3D('',#552,#447,#448);
#385=AXIS2_PLACEMENT_3D('',#556,#451,#452);
#386=AXIS2_PLACEMENT_3D('',#557,#453,#454);
#387=AXIS2_PLACEMENT_3D('',#558,#455,#456);
#388=AXIS2_PLACEMENT_3D('',#564,#460,#461);
#389=AXIS2_PLACEMENT_3D('',#568,#464,#465);
#390=AXIS2_PLACEMENT_3D('',#572,#468,#469);
#391=AXIS2_PLACEMENT_3D('',#576,#472,#473);
#392=AXIS2_PLACEMENT_3D('',#580,#476,#477);
#393=AXIS2_PLACEMENT_3D('',#584,#480,#481);
#394=AXIS2_PLACEMENT_3D('',#588,#484,#485);
#395=AXIS2_PLACEMENT_3D('',#590,#487,#488);
#396=AXIS2_PLACEMENT_3D('',#592,#490,#491);
#397=AXIS2_PLACEMENT_3D('',#593,#492,#493);
#398=DIRECTION('axis',(0.,0.,1.));
#399=DIRECTION('refdir',(1.,0.,0.));
#400=DIRECTION('center_axis',(0.,0.,1.));
#401=DIRECTION('ref_axis',(-0.707106781186551,0.707106781186544,0.));
#402=DIRECTION('center_axis',(0.,0.,-1.));
#403=DIRECTION('ref_axis',(-0.707106781186551,0.707106781186544,0.));
#404=DIRECTION('',(0.,0.,-1.));
#405=DIRECTION('center_axis',(0.,0.,1.));
#406=DIRECTION('ref_axis',(-0.707106781186551,0.707106781186544,0.));
#407=DIRECTION('',(0.,0.,1.));
#408=DIRECTION('center_axis',(0.,1.,0.));
#409=DIRECTION('ref_axis',(-1.,0.,0.));
#410=DIRECTION('',(-1.,0.,0.));
#411=DIRECTION('',(0.,0.,1.));
#412=DIRECTION('',(1.,0.,0.));
#413=DIRECTION('center_axis',(0.,0.,1.));
#414=DIRECTION('ref_axis',(1.,0.,0.));
#415=DIRECTION('',(0.,-1.,0.));
#416=DIRECTION('center_axis',(0.,0.,-1.));
#417=DIRECTION('ref_axis',(-0.707106781186548,-0.707106781186548,0.));
#418=DIRECTION('',(1.,0.,0.));
#419=DIRECTION('center_axis',(0.,0.,-1.));
#420=DIRECTION('ref_axis',(0.707106781186548,-0.707106781186548,0.));
#421=DIRECTION('',(0.,1.,0.));
#422=DIRECTION('center_axis',(0.,0.,-1.));
#423=DIRECTION('ref_axis',(0.707106781186544,0.707106781186551,0.));
#424=DIRECTION('',(-1.,0.,0.));
#425=DIRECTION('',(0.,-1.,0.));
#426=DIRECTION('',(-1.,0.,0.));
#427=DIRECTION('',(0.,1.,0.));
#428=DIRECTION('',(1.,0.,0.));
#429=DIRECTION('',(0.,-1.,0.));
#430=DIRECTION('',(1.,0.,0.));
#431=DIRECTION('',(0.,-1.,0.));
#432=DIRECTION('center_axis',(0.,0.,1.));
#433=DIRECTION('ref_axis',(0.707106781186544,0.707106781186551,0.));
#434=DIRECTION('',(0.,0.,-1.));
#435=DIRECTION('center_axis',(0.,0.,1.));
#436=DIRECTION('ref_axis',(0.707106781186544,0.707106781186551,0.));
#437=DIRECTION('center_axis',(1.,0.,0.));
#438=DIRECTION('ref_axis',(0.,1.,0.));
#439=DIRECTION('',(0.,0.,1.));
#440=DIRECTION('',(0.,-1.,0.));
#441=DIRECTION('center_axis',(0.,0.,1.));
#442=DIRECTION('ref_axis',(-0.707106781186548,-0.707106781186548,0.));
#443=DIRECTION('',(0.,0.,-1.));
#444=DIRECTION('center_axis',(0.,0.,1.));
#445=DIRECTION('ref_axis',(-0.707106781186548,-0.707106781186548,0.));
#446=DIRECTION('',(0.,0.,1.));
#447=DIRECTION('center_axis',(0.,-1.,0.));
#448=DIRECTION('ref_axis',(1.,0.,0.));
#449=DIRECTION('',(-1.,0.,0.));
#450=DIRECTION('',(0.,0.,-1.));
#451=DIRECTION('center_axis',(0.,0.,1.));
#452=DIRECTION('ref_axis',(0.707106781186548,-0.707106781186548,0.));
#453=DIRECTION('center_axis',(0.,0.,1.));
#454=DIRECTION('ref_axis',(0.707106781186548,-0.707106781186548,0.));
#455=DIRECTION('center_axis',(0.,-1.,0.));
#456=DIRECTION('ref_axis',(1.,0.,0.));
#457=DIRECTION('',(-1.,0.,0.));
#458=DIRECTION('',(0.,0.,1.));
#459=DIRECTION('',(0.,0.,1.));
#460=DIRECTION('center_axis',(-1.,0.,0.));
#461=DIRECTION('ref_axis',(0.,-1.,0.));
#462=DIRECTION('',(0.,1.,0.));
#463=DIRECTION('',(0.,0.,1.));
#464=DIRECTION('center_axis',(0.,-1.,0.));
#465=DIRECTION('ref_axis',(1.,0.,0.));
#466=DIRECTION('',(-1.,0.,0.));
#467=DIRECTION('',(0.,0.,1.));
#468=DIRECTION('center_axis',(-1.,0.,0.));
#469=DIRECTION('ref_axis',(0.,-1.,0.));
#470=DIRECTION('',(0.,1.,0.));
#471=DIRECTION('',(0.,0.,1.));
#472=DIRECTION('center_axis',(1.,0.,0.));
#473=DIRECTION('ref_axis',(0.,1.,0.));
#474=DIRECTION('',(0.,-1.,0.));
#475=DIRECTION('',(0.,0.,1.));
#476=DIRECTION('center_axis',(0.,1.,0.));
#477=DIRECTION('ref_axis',(-1.,0.,0.));
#478=DIRECTION('',(1.,0.,0.));
#479=DIRECTION('',(0.,0.,1.));
#480=DIRECTION('center_axis',(-1.,0.,0.));
#481=DIRECTION('ref_axis',(0.,-1.,0.));
#482=DIRECTION('',(0.,1.,0.));
#483=DIRECTION('',(0.,0.,1.));
#484=DIRECTION('center_axis',(0.,1.,0.));
#485=DIRECTION('ref_axis',(-1.,0.,0.));
#486=DIRECTION('',(1.,0.,0.));
#487=DIRECTION('center_axis',(-1.,0.,0.));
#488=DIRECTION('ref_axis',(0.,-1.,0.));
#489=DIRECTION('',(0.,1.,0.));
#490=DIRECTION('center_axis',(0.,0.,1.));
#491=DIRECTION('ref_axis',(1.,0.,0.));
#492=DIRECTION('center_axis',(0.,0.,1.));
#493=DIRECTION('ref_axis',(1.,0.,0.));
#494=CARTESIAN_POINT('',(0.,0.,0.));
#495=CARTESIAN_POINT('Origin',(52.0000007450581,-42.0000005960464,0.));
#496=CARTESIAN_POINT('',(50.0000007450581,-42.0000005960464,13.));
#497=CARTESIAN_POINT('',(52.0000007450581,-40.0000005960464,13.));
#498=CARTESIAN_POINT('Origin',(52.0000007450581,-42.0000005960464,13.));
#499=CARTESIAN_POINT('',(52.0000007450581,-40.0000005960464,0.));
#500=CARTESIAN_POINT('',(52.0000007450581,-40.0000005960464,0.));
#501=CARTESIAN_POINT('',(50.0000007450581,-42.0000005960464,0.));
#502=CARTESIAN_POINT('Origin',(52.0000007450581,-42.0000005960464,0.));
#503=CARTESIAN_POINT('',(50.0000007450581,-42.0000005960464,0.));
#504=CARTESIAN_POINT('Origin',(120.000001788139,-40.0000005960464,0.));
#505=CARTESIAN_POINT('',(118.000001788139,-40.0000005960464,13.));
#506=CARTESIAN_POINT('',(50.0000007450581,-40.0000005960464,13.));
#507=CARTESIAN_POINT('',(118.000001788139,-40.0000005960464,0.));
#508=CARTESIAN_POINT('',(118.000001788139,-40.0000005960464,0.));
#509=CARTESIAN_POINT('',(50.0000007450581,-40.0000005960464,0.));
#510=CARTESIAN_POINT('Origin',(85.0000012665987,-86.5000012889504,13.));
#511=CARTESIAN_POINT('',(50.0000007450581,-131.000001981854,13.));
#512=CARTESIAN_POINT('',(50.0000007450581,-133.000001981854,13.));
#513=CARTESIAN_POINT('',(52.0000007450581,-133.000001981854,13.));
#514=CARTESIAN_POINT('Origin',(52.0000007450581,-131.000001981854,13.));
#515=CARTESIAN_POINT('',(118.000001788139,-133.000001981854,13.));
#516=CARTESIAN_POINT('',(120.000001788139,-133.000001981854,13.));
#517=CARTESIAN_POINT('',(120.000001788139,-131.000001981854,13.));
#518=CARTESIAN_POINT('Origin',(118.000001788139,-131.000001981854,13.));
#519=CARTESIAN_POINT('',(120.000001788139,-42.0000005960464,13.));
#520=CARTESIAN_POINT('',(120.000001788139,-40.0000005960464,13.));
#521=CARTESIAN_POINT('Origin',(118.000001788139,-42.0000005960464,13.));
#522=CARTESIAN_POINT('',(119.324444681208,-73.8069184811648,13.));
#523=CARTESIAN_POINT('',(113.999997451901,-73.8069184811648,13.));
#524=CARTESIAN_POINT('',(113.999997451901,-73.8069184811648,13.));
#525=CARTESIAN_POINT('',(113.999997451901,-128.049997137859,13.));
#526=CARTESIAN_POINT('',(113.999997451901,-46.2999989651144,13.));
#527=CARTESIAN_POINT('',(56.9999987259507,-128.049997137859,13.));
#528=CARTESIAN_POINT('',(113.999997451901,-128.049997137859,13.));
#529=CARTESIAN_POINT('',(56.9999987259507,-46.2999989651144,13.));
#530=CARTESIAN_POINT('',(56.9999987259507,-128.049997137859,13.));
#531=CARTESIAN_POINT('',(113.999997451901,-46.2999989651144,13.));
#532=CARTESIAN_POINT('',(56.9999987259507,-46.2999989651144,13.));
#533=CARTESIAN_POINT('',(113.999997451901,-51.7561370991246,13.));
#534=CARTESIAN_POINT('',(113.999997451901,-46.2999989651144,13.));
#535=CARTESIAN_POINT('',(119.324444681208,-51.7561370991246,13.));
#536=CARTESIAN_POINT('',(119.324444681208,-51.7561370991246,13.));
#537=CARTESIAN_POINT('',(119.324444681208,-73.8069184811648,13.));
#538=CARTESIAN_POINT('Origin',(118.000001788139,-42.0000005960464,0.));
#539=CARTESIAN_POINT('',(120.000001788139,-42.0000005960464,0.));
#540=CARTESIAN_POINT('',(120.000001788139,-42.0000005960464,0.));
#541=CARTESIAN_POINT('Origin',(118.000001788139,-42.0000005960464,0.));
#542=CARTESIAN_POINT('Origin',(120.000001788139,-133.000001981854,0.));
#543=CARTESIAN_POINT('',(120.000001788139,-131.000001981854,0.));
#544=CARTESIAN_POINT('',(120.000001788139,-131.000001981854,0.));
#545=CARTESIAN_POINT('',(120.000001788139,-40.0000005960464,0.));
#546=CARTESIAN_POINT('Origin',(52.0000007450581,-131.000001981854,0.));
#547=CARTESIAN_POINT('',(50.0000007450581,-131.000001981854,0.));
#548=CARTESIAN_POINT('',(50.0000007450581,-131.000001981854,0.));
#549=CARTESIAN_POINT('',(52.0000007450581,-133.000001981854,0.));
#550=CARTESIAN_POINT('Origin',(52.0000007450581,-131.000001981854,0.));
#551=CARTESIAN_POINT('',(52.0000007450581,-133.000001981854,0.));
#552=CARTESIAN_POINT('Origin',(50.0000007450581,-133.000001981854,0.));
#553=CARTESIAN_POINT('',(118.000001788139,-133.000001981854,0.));
#554=CARTESIAN_POINT('',(120.000001788139,-133.000001981854,0.));
#555=CARTESIAN_POINT('',(118.000001788139,-133.000001981854,0.));
#556=CARTESIAN_POINT('Origin',(118.000001788139,-131.000001981854,0.));
#557=CARTESIAN_POINT('Origin',(118.000001788139,-131.000001981854,0.));
#558=CARTESIAN_POINT('Origin',(56.9999987259507,-46.2999989651144,0.));
#559=CARTESIAN_POINT('',(113.999997451901,-46.2999989651144,3.));
#560=CARTESIAN_POINT('',(56.9999987259507,-46.2999989651144,3.));
#561=CARTESIAN_POINT('',(70.9999999962747,-46.2999989651144,3.));
#562=CARTESIAN_POINT('',(113.999997451901,-46.2999989651144,0.));
#563=CARTESIAN_POINT('',(56.9999987259507,-46.2999989651144,0.));
#564=CARTESIAN_POINT('Origin',(113.999997451901,-46.2999989651144,0.));
#565=CARTESIAN_POINT('',(113.999997451901,-51.7561370991246,3.));
#566=CARTESIAN_POINT('',(113.999997451901,-66.4000001270324,3.));
#567=CARTESIAN_POINT('',(113.999997451901,-51.7561370991246,0.));
#568=CARTESIAN_POINT('Origin',(113.999997451901,-51.7561370991246,0.));
#569=CARTESIAN_POINT('',(119.324444681208,-51.7561370991246,3.));
#570=CARTESIAN_POINT('',(99.4999993592501,-51.7561370991246,3.));
#571=CARTESIAN_POINT('',(119.324444681208,-51.7561370991246,0.));
#572=CARTESIAN_POINT('Origin',(119.324444681208,-51.7561370991246,0.));
#573=CARTESIAN_POINT('',(119.324444681208,-73.8069184811648,3.));
#574=CARTESIAN_POINT('',(119.324444681208,-69.1280691940375,3.));
#575=CARTESIAN_POINT('',(119.324444681208,-73.8069184811648,0.));
#576=CARTESIAN_POINT('Origin',(56.9999987259507,-128.049997137859,0.));
#577=CARTESIAN_POINT('',(56.9999987259507,-128.049997137859,3.));
#578=CARTESIAN_POINT('',(56.9999987259507,-107.274999213405,3.));
#579=CARTESIAN_POINT('',(56.9999987259507,-128.049997137859,0.));
#580=CARTESIAN_POINT('Origin',(113.999997451901,-128.049997137859,0.));
#581=CARTESIAN_POINT('',(113.999997451901,-128.049997137859,3.));
#582=CARTESIAN_POINT('',(99.4999993592501,-128.049997137859,3.));
#583=CARTESIAN_POINT('',(113.999997451901,-128.049997137859,0.));
#584=CARTESIAN_POINT('Origin',(113.999997451901,-73.8069184811648,0.));
#585=CARTESIAN_POINT('',(113.999997451901,-73.8069184811648,3.));
#586=CARTESIAN_POINT('',(113.999997451901,-80.1534598850576,3.));
#587=CARTESIAN_POINT('',(113.999997451901,-73.8069184811648,0.));
#588=CARTESIAN_POINT('Origin',(119.324444681208,-73.8069184811648,0.));
#589=CARTESIAN_POINT('',(102.162222973903,-73.8069184811648,3.));
#590=CARTESIAN_POINT('Origin',(50.0000007450581,-40.0000005960464,0.));
#591=CARTESIAN_POINT('',(50.0000007450581,-133.000001981854,0.));
#592=CARTESIAN_POINT('Origin',(85.0000012665987,-86.5000012889504,3.));
#593=CARTESIAN_POINT('Origin',(85.0000012665987,-86.5000012889504,0.));
#594=UNCERTAINTY_MEASURE_WITH_UNIT(LENGTH_MEASURE(0.01),#598,
'DISTANCE_ACCURACY_VALUE',
'Maximum model space distance between geometric entities at asserted c
onnectivities');
#595=UNCERTAINTY_MEASURE_WITH_UNIT(LENGTH_MEASURE(0.01),#598,
'DISTANCE_ACCURACY_VALUE',
'Maximum model space distance between geometric entities at asserted c
onnectivities');
#596=(
GEOMETRIC_REPRESENTATION_CONTEXT(3)
GLOBAL_UNCERTAINTY_ASSIGNED_CONTEXT((#594))
GLOBAL_UNIT_ASSIGNED_CONTEXT((#598,#600,#601))
REPRESENTATION_CONTEXT('','3D')
);
#597=(
GEOMETRIC_REPRESENTATION_CONTEXT(3)
GLOBAL_UNCERTAINTY_ASSIGNED_CONTEXT((#595))
GLOBAL_UNIT_ASSIGNED_CONTEXT((#598,#600,#601))
REPRESENTATION_CONTEXT('','3D')
);
#598=(
LENGTH_UNIT()
NAMED_UNIT(*)
SI_UNIT(.MILLI.,.METRE.)
);
#599=(
LENGTH_UNIT()
NAMED_UNIT(*)
SI_UNIT($,.METRE.)
);
#600=(
NAMED_UNIT(*)
PLANE_ANGLE_UNIT()
SI_UNIT($,.RADIAN.)
);
#601=(
NAMED_UNIT(*)
SI_UNIT($,.STERADIAN.)
SOLID_ANGLE_UNIT()
);
#602=SHAPE_DEFINITION_REPRESENTATION(#603,#604);
#603=PRODUCT_DEFINITION_SHAPE('',$,#606);
#604=SHAPE_REPRESENTATION('',(#370),#596);
#605=PRODUCT_DEFINITION_CONTEXT('part definition',#610,'design');
#606=PRODUCT_DEFINITION('2026-08-12-15-41-15-330',
'Hotswappable macropad',#607,#605);
#607=PRODUCT_DEFINITION_FORMATION('',$,#612);
#608=PRODUCT_RELATED_PRODUCT_CATEGORY('Hotswappable macropad',
'Hotswappable macropad',(#612));
#609=APPLICATION_PROTOCOL_DEFINITION('international standard',
'automotive_design',2009,#610);
#610=APPLICATION_CONTEXT(
'Core Data for Automotive Mechanical Design Process');
#611=PRODUCT_CONTEXT('part definition',#610,'mechanical');
#612=PRODUCT('2026-08-12-15-41-15-330','Hotswappable macropad',$,(#611));
#613=PRESENTATION_STYLE_ASSIGNMENT((#614));
#614=SURFACE_STYLE_USAGE(.BOTH.,#615);
#615=SURFACE_SIDE_STYLE('',(#616));
#616=SURFACE_STYLE_FILL_AREA(#617);
#617=FILL_AREA_STYLE('Steel - Satin',(#618));
#618=FILL_AREA_STYLE_COLOUR('Steel - Satin',#619);
#619=COLOUR_RGB('Steel - Satin',0.627450980392157,0.627450980392157,0.627450980392157);
ENDSEC;
END-ISO-10303-21;
