ISO-10303-21;
HEADER;
/* Generated by software containing ST-Developer
 * from STEP Tools, Inc. (www.steptools.com) 
 */

FILE_DESCRIPTION(
/* description */ (''),
/* implementation_level */ '2;1');

FILE_NAME(
/* name */ 'Top.step',
/* time_stamp */ '2026-08-16T22:20:29-04:00',
/* author */ (''),
/* organization */ (''),
/* preprocessor_version */ 'ST-DEVELOPER v20.1',
/* originating_system */ 'Autodesk Translation Framework v15.8.0.0',
/* authorisation */ '');

FILE_SCHEMA (('AUTOMOTIVE_DESIGN { 1 0 10303 214 3 1 1 }'));
ENDSEC;

DATA;
#10=MECHANICAL_DESIGN_GEOMETRIC_PRESENTATION_REPRESENTATION('',(#13),#2119);
#11=SHAPE_REPRESENTATION_RELATIONSHIP('SRR','None',#2126,#12);
#12=ADVANCED_BREP_SHAPE_REPRESENTATION('',(#14),#2118);
#13=STYLED_ITEM('',(#2135),#14);
#14=MANIFOLD_SOLID_BREP('Body684',#1327);
#15=FACE_BOUND('',#145,.T.);
#16=FACE_BOUND('',#146,.T.);
#17=FACE_BOUND('',#147,.T.);
#18=FACE_BOUND('',#148,.T.);
#19=FACE_BOUND('',#149,.T.);
#20=FACE_BOUND('',#150,.T.);
#21=FACE_BOUND('',#151,.T.);
#22=FACE_BOUND('',#152,.T.);
#23=FACE_BOUND('',#153,.T.);
#24=FACE_BOUND('',#154,.T.);
#25=FACE_BOUND('',#155,.T.);
#26=FACE_BOUND('',#156,.T.);
#27=FACE_BOUND('',#211,.T.);
#28=FACE_BOUND('',#212,.T.);
#29=FACE_BOUND('',#213,.T.);
#30=FACE_BOUND('',#214,.T.);
#31=FACE_BOUND('',#215,.T.);
#32=FACE_BOUND('',#216,.T.);
#33=FACE_BOUND('',#217,.T.);
#34=FACE_BOUND('',#218,.T.);
#35=FACE_BOUND('',#219,.T.);
#36=FACE_BOUND('',#220,.T.);
#37=FACE_BOUND('',#221,.T.);
#38=FACE_BOUND('',#222,.T.);
#39=SPHERICAL_SURFACE('',#1351,2.);
#40=SPHERICAL_SURFACE('',#1356,2.);
#41=SPHERICAL_SURFACE('',#1368,2.);
#42=SPHERICAL_SURFACE('',#1377,2.);
#43=CIRCLE('',#1346,2.);
#44=CIRCLE('',#1347,2.);
#45=CIRCLE('',#1349,2.);
#46=CIRCLE('',#1350,2.);
#47=CIRCLE('',#1352,2.);
#48=CIRCLE('',#1354,2.);
#49=CIRCLE('',#1355,2.);
#50=CIRCLE('',#1357,2.);
#51=CIRCLE('',#1360,2.);
#52=CIRCLE('',#1363,2.);
#53=CIRCLE('',#1366,2.);
#54=CIRCLE('',#1367,1.99999999999999);
#55=CIRCLE('',#1369,2.);
#56=CIRCLE('',#1372,1.99999999999999);
#57=CIRCLE('',#1375,2.);
#58=CIRCLE('',#1376,1.99999999999999);
#59=CYLINDRICAL_SURFACE('',#1345,2.);
#60=CYLINDRICAL_SURFACE('',#1348,2.);
#61=CYLINDRICAL_SURFACE('',#1353,2.);
#62=CYLINDRICAL_SURFACE('',#1359,2.);
#63=CYLINDRICAL_SURFACE('',#1362,2.);
#64=CYLINDRICAL_SURFACE('',#1365,2.);
#65=CYLINDRICAL_SURFACE('',#1371,2.);
#66=CYLINDRICAL_SURFACE('',#1374,2.);
#67=FACE_OUTER_BOUND('',#133,.T.);
#68=FACE_OUTER_BOUND('',#134,.T.);
#69=FACE_OUTER_BOUND('',#135,.T.);
#70=FACE_OUTER_BOUND('',#136,.T.);
#71=FACE_OUTER_BOUND('',#137,.T.);
#72=FACE_OUTER_BOUND('',#138,.T.);
#73=FACE_OUTER_BOUND('',#139,.T.);
#74=FACE_OUTER_BOUND('',#140,.T.);
#75=FACE_OUTER_BOUND('',#141,.T.);
#76=FACE_OUTER_BOUND('',#142,.T.);
#77=FACE_OUTER_BOUND('',#143,.T.);
#78=FACE_OUTER_BOUND('',#144,.T.);
#79=FACE_OUTER_BOUND('',#157,.T.);
#80=FACE_OUTER_BOUND('',#158,.T.);
#81=FACE_OUTER_BOUND('',#159,.T.);
#82=FACE_OUTER_BOUND('',#160,.T.);
#83=FACE_OUTER_BOUND('',#161,.T.);
#84=FACE_OUTER_BOUND('',#162,.T.);
#85=FACE_OUTER_BOUND('',#163,.T.);
#86=FACE_OUTER_BOUND('',#164,.T.);
#87=FACE_OUTER_BOUND('',#165,.T.);
#88=FACE_OUTER_BOUND('',#166,.T.);
#89=FACE_OUTER_BOUND('',#167,.T.);
#90=FACE_OUTER_BOUND('',#168,.T.);
#91=FACE_OUTER_BOUND('',#169,.T.);
#92=FACE_OUTER_BOUND('',#170,.T.);
#93=FACE_OUTER_BOUND('',#171,.T.);
#94=FACE_OUTER_BOUND('',#172,.T.);
#95=FACE_OUTER_BOUND('',#173,.T.);
#96=FACE_OUTER_BOUND('',#174,.T.);
#97=FACE_OUTER_BOUND('',#175,.T.);
#98=FACE_OUTER_BOUND('',#176,.T.);
#99=FACE_OUTER_BOUND('',#177,.T.);
#100=FACE_OUTER_BOUND('',#178,.T.);
#101=FACE_OUTER_BOUND('',#179,.T.);
#102=FACE_OUTER_BOUND('',#180,.T.);
#103=FACE_OUTER_BOUND('',#181,.T.);
#104=FACE_OUTER_BOUND('',#182,.T.);
#105=FACE_OUTER_BOUND('',#183,.T.);
#106=FACE_OUTER_BOUND('',#184,.T.);
#107=FACE_OUTER_BOUND('',#185,.T.);
#108=FACE_OUTER_BOUND('',#186,.T.);
#109=FACE_OUTER_BOUND('',#187,.T.);
#110=FACE_OUTER_BOUND('',#188,.T.);
#111=FACE_OUTER_BOUND('',#189,.T.);
#112=FACE_OUTER_BOUND('',#190,.T.);
#113=FACE_OUTER_BOUND('',#191,.T.);
#114=FACE_OUTER_BOUND('',#192,.T.);
#115=FACE_OUTER_BOUND('',#193,.T.);
#116=FACE_OUTER_BOUND('',#194,.T.);
#117=FACE_OUTER_BOUND('',#195,.T.);
#118=FACE_OUTER_BOUND('',#196,.T.);
#119=FACE_OUTER_BOUND('',#197,.T.);
#120=FACE_OUTER_BOUND('',#198,.T.);
#121=FACE_OUTER_BOUND('',#199,.T.);
#122=FACE_OUTER_BOUND('',#200,.T.);
#123=FACE_OUTER_BOUND('',#201,.T.);
#124=FACE_OUTER_BOUND('',#202,.T.);
#125=FACE_OUTER_BOUND('',#203,.T.);
#126=FACE_OUTER_BOUND('',#204,.T.);
#127=FACE_OUTER_BOUND('',#205,.T.);
#128=FACE_OUTER_BOUND('',#206,.T.);
#129=FACE_OUTER_BOUND('',#207,.T.);
#130=FACE_OUTER_BOUND('',#208,.T.);
#131=FACE_OUTER_BOUND('',#209,.T.);
#132=FACE_OUTER_BOUND('',#210,.T.);
#133=EDGE_LOOP('',(#847,#848,#849,#850));
#134=EDGE_LOOP('',(#851,#852,#853,#854));
#135=EDGE_LOOP('',(#855,#856,#857,#858));
#136=EDGE_LOOP('',(#859,#860,#861,#862));
#137=EDGE_LOOP('',(#863,#864,#865,#866));
#138=EDGE_LOOP('',(#867,#868,#869,#870));
#139=EDGE_LOOP('',(#871,#872,#873));
#140=EDGE_LOOP('',(#874,#875,#876,#877));
#141=EDGE_LOOP('',(#878,#879,#880));
#142=EDGE_LOOP('',(#881,#882,#883,#884));
#143=EDGE_LOOP('',(#885,#886,#887,#888));
#144=EDGE_LOOP('',(#889,#890,#891,#892));
#145=EDGE_LOOP('',(#893,#894,#895,#896));
#146=EDGE_LOOP('',(#897,#898,#899,#900));
#147=EDGE_LOOP('',(#901,#902,#903,#904));
#148=EDGE_LOOP('',(#905,#906,#907,#908));
#149=EDGE_LOOP('',(#909,#910,#911,#912));
#150=EDGE_LOOP('',(#913,#914,#915,#916));
#151=EDGE_LOOP('',(#917,#918,#919,#920));
#152=EDGE_LOOP('',(#921,#922,#923,#924));
#153=EDGE_LOOP('',(#925,#926,#927,#928));
#154=EDGE_LOOP('',(#929,#930,#931,#932));
#155=EDGE_LOOP('',(#933,#934,#935,#936));
#156=EDGE_LOOP('',(#937,#938,#939,#940));
#157=EDGE_LOOP('',(#941,#942,#943,#944));
#158=EDGE_LOOP('',(#945,#946,#947,#948));
#159=EDGE_LOOP('',(#949,#950,#951,#952));
#160=EDGE_LOOP('',(#953,#954,#955));
#161=EDGE_LOOP('',(#956,#957,#958,#959));
#162=EDGE_LOOP('',(#960,#961,#962,#963));
#163=EDGE_LOOP('',(#964,#965,#966,#967));
#164=EDGE_LOOP('',(#968,#969,#970,#971));
#165=EDGE_LOOP('',(#972,#973,#974));
#166=EDGE_LOOP('',(#975,#976,#977,#978));
#167=EDGE_LOOP('',(#979,#980,#981,#982));
#168=EDGE_LOOP('',(#983,#984,#985,#986));
#169=EDGE_LOOP('',(#987,#988,#989,#990));
#170=EDGE_LOOP('',(#991,#992,#993,#994));
#171=EDGE_LOOP('',(#995,#996,#997,#998));
#172=EDGE_LOOP('',(#999,#1000,#1001,#1002));
#173=EDGE_LOOP('',(#1003,#1004,#1005,#1006));
#174=EDGE_LOOP('',(#1007,#1008,#1009,#1010));
#175=EDGE_LOOP('',(#1011,#1012,#1013,#1014));
#176=EDGE_LOOP('',(#1015,#1016,#1017,#1018));
#177=EDGE_LOOP('',(#1019,#1020,#1021,#1022));
#178=EDGE_LOOP('',(#1023,#1024,#1025,#1026));
#179=EDGE_LOOP('',(#1027,#1028,#1029,#1030));
#180=EDGE_LOOP('',(#1031,#1032,#1033,#1034));
#181=EDGE_LOOP('',(#1035,#1036,#1037,#1038));
#182=EDGE_LOOP('',(#1039,#1040,#1041,#1042));
#183=EDGE_LOOP('',(#1043,#1044,#1045,#1046));
#184=EDGE_LOOP('',(#1047,#1048,#1049,#1050));
#185=EDGE_LOOP('',(#1051,#1052,#1053,#1054));
#186=EDGE_LOOP('',(#1055,#1056,#1057,#1058));
#187=EDGE_LOOP('',(#1059,#1060,#1061,#1062));
#188=EDGE_LOOP('',(#1063,#1064,#1065,#1066));
#189=EDGE_LOOP('',(#1067,#1068,#1069,#1070));
#190=EDGE_LOOP('',(#1071,#1072,#1073,#1074));
#191=EDGE_LOOP('',(#1075,#1076,#1077,#1078));
#192=EDGE_LOOP('',(#1079,#1080,#1081,#1082));
#193=EDGE_LOOP('',(#1083,#1084,#1085,#1086));
#194=EDGE_LOOP('',(#1087,#1088,#1089,#1090));
#195=EDGE_LOOP('',(#1091,#1092,#1093,#1094));
#196=EDGE_LOOP('',(#1095,#1096,#1097,#1098));
#197=EDGE_LOOP('',(#1099,#1100,#1101,#1102));
#198=EDGE_LOOP('',(#1103,#1104,#1105,#1106));
#199=EDGE_LOOP('',(#1107,#1108,#1109,#1110));
#200=EDGE_LOOP('',(#1111,#1112,#1113,#1114));
#201=EDGE_LOOP('',(#1115,#1116,#1117,#1118));
#202=EDGE_LOOP('',(#1119,#1120,#1121,#1122));
#203=EDGE_LOOP('',(#1123,#1124,#1125,#1126));
#204=EDGE_LOOP('',(#1127,#1128,#1129,#1130));
#205=EDGE_LOOP('',(#1131,#1132,#1133,#1134));
#206=EDGE_LOOP('',(#1135,#1136,#1137,#1138));
#207=EDGE_LOOP('',(#1139,#1140,#1141,#1142));
#208=EDGE_LOOP('',(#1143,#1144,#1145,#1146));
#209=EDGE_LOOP('',(#1147,#1148,#1149,#1150));
#210=EDGE_LOOP('',(#1151,#1152,#1153,#1154,#1155,#1156,#1157,#1158));
#211=EDGE_LOOP('',(#1159,#1160,#1161,#1162));
#212=EDGE_LOOP('',(#1163,#1164,#1165,#1166));
#213=EDGE_LOOP('',(#1167,#1168,#1169,#1170));
#214=EDGE_LOOP('',(#1171,#1172,#1173,#1174));
#215=EDGE_LOOP('',(#1175,#1176,#1177,#1178));
#216=EDGE_LOOP('',(#1179,#1180,#1181,#1182));
#217=EDGE_LOOP('',(#1183,#1184,#1185,#1186));
#218=EDGE_LOOP('',(#1187,#1188,#1189,#1190));
#219=EDGE_LOOP('',(#1191,#1192,#1193,#1194));
#220=EDGE_LOOP('',(#1195,#1196,#1197,#1198));
#221=EDGE_LOOP('',(#1199,#1200,#1201,#1202));
#222=EDGE_LOOP('',(#1203,#1204,#1205,#1206));
#223=LINE('',#1757,#387);
#224=LINE('',#1759,#388);
#225=LINE('',#1761,#389);
#226=LINE('',#1762,#390);
#227=LINE('',#1765,#391);
#228=LINE('',#1767,#392);
#229=LINE('',#1768,#393);
#230=LINE('',#1771,#394);
#231=LINE('',#1773,#395);
#232=LINE('',#1774,#396);
#233=LINE('',#1776,#397);
#234=LINE('',#1777,#398);
#235=LINE('',#1783,#399);
#236=LINE('',#1786,#400);
#237=LINE('',#1791,#401);
#238=LINE('',#1794,#402);
#239=LINE('',#1802,#403);
#240=LINE('',#1804,#404);
#241=LINE('',#1809,#405);
#242=LINE('',#1811,#406);
#243=LINE('',#1812,#407);
#244=LINE('',#1815,#408);
#245=LINE('',#1819,#409);
#246=LINE('',#1820,#410);
#247=LINE('',#1823,#411);
#248=LINE('',#1825,#412);
#249=LINE('',#1827,#413);
#250=LINE('',#1828,#414);
#251=LINE('',#1831,#415);
#252=LINE('',#1833,#416);
#253=LINE('',#1835,#417);
#254=LINE('',#1836,#418);
#255=LINE('',#1839,#419);
#256=LINE('',#1841,#420);
#257=LINE('',#1843,#421);
#258=LINE('',#1844,#422);
#259=LINE('',#1847,#423);
#260=LINE('',#1849,#424);
#261=LINE('',#1851,#425);
#262=LINE('',#1852,#426);
#263=LINE('',#1855,#427);
#264=LINE('',#1857,#428);
#265=LINE('',#1859,#429);
#266=LINE('',#1860,#430);
#267=LINE('',#1863,#431);
#268=LINE('',#1865,#432);
#269=LINE('',#1867,#433);
#270=LINE('',#1868,#434);
#271=LINE('',#1871,#435);
#272=LINE('',#1873,#436);
#273=LINE('',#1875,#437);
#274=LINE('',#1876,#438);
#275=LINE('',#1879,#439);
#276=LINE('',#1881,#440);
#277=LINE('',#1883,#441);
#278=LINE('',#1884,#442);
#279=LINE('',#1887,#443);
#280=LINE('',#1889,#444);
#281=LINE('',#1891,#445);
#282=LINE('',#1892,#446);
#283=LINE('',#1895,#447);
#284=LINE('',#1897,#448);
#285=LINE('',#1899,#449);
#286=LINE('',#1900,#450);
#287=LINE('',#1903,#451);
#288=LINE('',#1905,#452);
#289=LINE('',#1907,#453);
#290=LINE('',#1908,#454);
#291=LINE('',#1911,#455);
#292=LINE('',#1915,#456);
#293=LINE('',#1916,#457);
#294=LINE('',#1921,#458);
#295=LINE('',#1926,#459);
#296=LINE('',#1929,#460);
#297=LINE('',#1933,#461);
#298=LINE('',#1934,#462);
#299=LINE('',#1942,#463);
#300=LINE('',#1943,#464);
#301=LINE('',#1944,#465);
#302=LINE('',#1947,#466);
#303=LINE('',#1948,#467);
#304=LINE('',#1951,#468);
#305=LINE('',#1952,#469);
#306=LINE('',#1954,#470);
#307=LINE('',#1958,#471);
#308=LINE('',#1959,#472);
#309=LINE('',#1960,#473);
#310=LINE('',#1963,#474);
#311=LINE('',#1964,#475);
#312=LINE('',#1967,#476);
#313=LINE('',#1968,#477);
#314=LINE('',#1970,#478);
#315=LINE('',#1974,#479);
#316=LINE('',#1975,#480);
#317=LINE('',#1976,#481);
#318=LINE('',#1979,#482);
#319=LINE('',#1980,#483);
#320=LINE('',#1983,#484);
#321=LINE('',#1984,#485);
#322=LINE('',#1986,#486);
#323=LINE('',#1990,#487);
#324=LINE('',#1991,#488);
#325=LINE('',#1992,#489);
#326=LINE('',#1995,#490);
#327=LINE('',#1996,#491);
#328=LINE('',#1999,#492);
#329=LINE('',#2000,#493);
#330=LINE('',#2002,#494);
#331=LINE('',#2006,#495);
#332=LINE('',#2007,#496);
#333=LINE('',#2008,#497);
#334=LINE('',#2011,#498);
#335=LINE('',#2012,#499);
#336=LINE('',#2015,#500);
#337=LINE('',#2016,#501);
#338=LINE('',#2018,#502);
#339=LINE('',#2022,#503);
#340=LINE('',#2023,#504);
#341=LINE('',#2024,#505);
#342=LINE('',#2027,#506);
#343=LINE('',#2028,#507);
#344=LINE('',#2031,#508);
#345=LINE('',#2032,#509);
#346=LINE('',#2034,#510);
#347=LINE('',#2038,#511);
#348=LINE('',#2039,#512);
#349=LINE('',#2040,#513);
#350=LINE('',#2043,#514);
#351=LINE('',#2044,#515);
#352=LINE('',#2047,#516);
#353=LINE('',#2048,#517);
#354=LINE('',#2050,#518);
#355=LINE('',#2054,#519);
#356=LINE('',#2055,#520);
#357=LINE('',#2056,#521);
#358=LINE('',#2059,#522);
#359=LINE('',#2060,#523);
#360=LINE('',#2063,#524);
#361=LINE('',#2064,#525);
#362=LINE('',#2066,#526);
#363=LINE('',#2070,#527);
#364=LINE('',#2071,#528);
#365=LINE('',#2072,#529);
#366=LINE('',#2075,#530);
#367=LINE('',#2076,#531);
#368=LINE('',#2079,#532);
#369=LINE('',#2080,#533);
#370=LINE('',#2082,#534);
#371=LINE('',#2086,#535);
#372=LINE('',#2087,#536);
#373=LINE('',#2088,#537);
#374=LINE('',#2091,#538);
#375=LINE('',#2092,#539);
#376=LINE('',#2095,#540);
#377=LINE('',#2096,#541);
#378=LINE('',#2098,#542);
#379=LINE('',#2102,#543);
#380=LINE('',#2103,#544);
#381=LINE('',#2104,#545);
#382=LINE('',#2107,#546);
#383=LINE('',#2108,#547);
#384=LINE('',#2111,#548);
#385=LINE('',#2112,#549);
#386=LINE('',#2114,#550);
#387=VECTOR('',#1427,10.);
#388=VECTOR('',#1428,10.);
#389=VECTOR('',#1429,10.);
#390=VECTOR('',#1430,10.);
#391=VECTOR('',#1433,10.);
#392=VECTOR('',#1434,10.);
#393=VECTOR('',#1435,10.);
#394=VECTOR('',#1438,10.);
#395=VECTOR('',#1439,10.);
#396=VECTOR('',#1440,10.);
#397=VECTOR('',#1443,10.);
#398=VECTOR('',#1444,10.);
#399=VECTOR('',#1449,10.);
#400=VECTOR('',#1452,10.);
#401=VECTOR('',#1457,10.);
#402=VECTOR('',#1460,10.);
#403=VECTOR('',#1469,10.);
#404=VECTOR('',#1472,10.);
#405=VECTOR('',#1479,10.);
#406=VECTOR('',#1480,10.);
#407=VECTOR('',#1481,10.);
#408=VECTOR('',#1484,10.);
#409=VECTOR('',#1489,10.);
#410=VECTOR('',#1490,10.);
#411=VECTOR('',#1491,10.);
#412=VECTOR('',#1492,10.);
#413=VECTOR('',#1493,10.);
#414=VECTOR('',#1494,10.);
#415=VECTOR('',#1495,10.);
#416=VECTOR('',#1496,10.);
#417=VECTOR('',#1497,10.);
#418=VECTOR('',#1498,10.);
#419=VECTOR('',#1499,10.);
#420=VECTOR('',#1500,10.);
#421=VECTOR('',#1501,10.);
#422=VECTOR('',#1502,10.);
#423=VECTOR('',#1503,10.);
#424=VECTOR('',#1504,10.);
#425=VECTOR('',#1505,10.);
#426=VECTOR('',#1506,10.);
#427=VECTOR('',#1507,10.);
#428=VECTOR('',#1508,10.);
#429=VECTOR('',#1509,10.);
#430=VECTOR('',#1510,10.);
#431=VECTOR('',#1511,10.);
#432=VECTOR('',#1512,10.);
#433=VECTOR('',#1513,10.);
#434=VECTOR('',#1514,10.);
#435=VECTOR('',#1515,10.);
#436=VECTOR('',#1516,10.);
#437=VECTOR('',#1517,10.);
#438=VECTOR('',#1518,10.);
#439=VECTOR('',#1519,10.);
#440=VECTOR('',#1520,10.);
#441=VECTOR('',#1521,10.);
#442=VECTOR('',#1522,10.);
#443=VECTOR('',#1523,10.);
#444=VECTOR('',#1524,10.);
#445=VECTOR('',#1525,10.);
#446=VECTOR('',#1526,10.);
#447=VECTOR('',#1527,10.);
#448=VECTOR('',#1528,10.);
#449=VECTOR('',#1529,10.);
#450=VECTOR('',#1530,10.);
#451=VECTOR('',#1531,10.);
#452=VECTOR('',#1532,10.);
#453=VECTOR('',#1533,10.);
#454=VECTOR('',#1534,10.);
#455=VECTOR('',#1537,10.);
#456=VECTOR('',#1542,10.);
#457=VECTOR('',#1543,10.);
#458=VECTOR('',#1548,10.);
#459=VECTOR('',#1557,10.);
#460=VECTOR('',#1560,10.);
#461=VECTOR('',#1565,10.);
#462=VECTOR('',#1566,10.);
#463=VECTOR('',#1577,10.);
#464=VECTOR('',#1578,10.);
#465=VECTOR('',#1579,10.);
#466=VECTOR('',#1582,10.);
#467=VECTOR('',#1583,10.);
#468=VECTOR('',#1586,10.);
#469=VECTOR('',#1587,10.);
#470=VECTOR('',#1590,10.);
#471=VECTOR('',#1593,10.);
#472=VECTOR('',#1594,10.);
#473=VECTOR('',#1595,10.);
#474=VECTOR('',#1598,10.);
#475=VECTOR('',#1599,10.);
#476=VECTOR('',#1602,10.);
#477=VECTOR('',#1603,10.);
#478=VECTOR('',#1606,10.);
#479=VECTOR('',#1609,10.);
#480=VECTOR('',#1610,10.);
#481=VECTOR('',#1611,10.);
#482=VECTOR('',#1614,10.);
#483=VECTOR('',#1615,10.);
#484=VECTOR('',#1618,10.);
#485=VECTOR('',#1619,10.);
#486=VECTOR('',#1622,10.);
#487=VECTOR('',#1625,10.);
#488=VECTOR('',#1626,10.);
#489=VECTOR('',#1627,10.);
#490=VECTOR('',#1630,10.);
#491=VECTOR('',#1631,10.);
#492=VECTOR('',#1634,10.);
#493=VECTOR('',#1635,10.);
#494=VECTOR('',#1638,10.);
#495=VECTOR('',#1641,10.);
#496=VECTOR('',#1642,10.);
#497=VECTOR('',#1643,10.);
#498=VECTOR('',#1646,10.);
#499=VECTOR('',#1647,10.);
#500=VECTOR('',#1650,10.);
#501=VECTOR('',#1651,10.);
#502=VECTOR('',#1654,10.);
#503=VECTOR('',#1657,10.);
#504=VECTOR('',#1658,10.);
#505=VECTOR('',#1659,10.);
#506=VECTOR('',#1662,10.);
#507=VECTOR('',#1663,10.);
#508=VECTOR('',#1666,10.);
#509=VECTOR('',#1667,10.);
#510=VECTOR('',#1670,10.);
#511=VECTOR('',#1673,10.);
#512=VECTOR('',#1674,10.);
#513=VECTOR('',#1675,10.);
#514=VECTOR('',#1678,10.);
#515=VECTOR('',#1679,10.);
#516=VECTOR('',#1682,10.);
#517=VECTOR('',#1683,10.);
#518=VECTOR('',#1686,10.);
#519=VECTOR('',#1689,10.);
#520=VECTOR('',#1690,10.);
#521=VECTOR('',#1691,10.);
#522=VECTOR('',#1694,10.);
#523=VECTOR('',#1695,10.);
#524=VECTOR('',#1698,10.);
#525=VECTOR('',#1699,10.);
#526=VECTOR('',#1702,10.);
#527=VECTOR('',#1705,10.);
#528=VECTOR('',#1706,10.);
#529=VECTOR('',#1707,10.);
#530=VECTOR('',#1710,10.);
#531=VECTOR('',#1711,10.);
#532=VECTOR('',#1714,10.);
#533=VECTOR('',#1715,10.);
#534=VECTOR('',#1718,10.);
#535=VECTOR('',#1721,10.);
#536=VECTOR('',#1722,10.);
#537=VECTOR('',#1723,10.);
#538=VECTOR('',#1726,10.);
#539=VECTOR('',#1727,10.);
#540=VECTOR('',#1730,10.);
#541=VECTOR('',#1731,10.);
#542=VECTOR('',#1734,10.);
#543=VECTOR('',#1737,10.);
#544=VECTOR('',#1738,10.);
#545=VECTOR('',#1739,10.);
#546=VECTOR('',#1742,10.);
#547=VECTOR('',#1743,10.);
#548=VECTOR('',#1746,10.);
#549=VECTOR('',#1747,10.);
#550=VECTOR('',#1750,10.);
#551=VERTEX_POINT('',#1755);
#552=VERTEX_POINT('',#1756);
#553=VERTEX_POINT('',#1758);
#554=VERTEX_POINT('',#1760);
#555=VERTEX_POINT('',#1764);
#556=VERTEX_POINT('',#1766);
#557=VERTEX_POINT('',#1770);
#558=VERTEX_POINT('',#1772);
#559=VERTEX_POINT('',#1779);
#560=VERTEX_POINT('',#1780);
#561=VERTEX_POINT('',#1782);
#562=VERTEX_POINT('',#1784);
#563=VERTEX_POINT('',#1788);
#564=VERTEX_POINT('',#1790);
#565=VERTEX_POINT('',#1792);
#566=VERTEX_POINT('',#1798);
#567=VERTEX_POINT('',#1799);
#568=VERTEX_POINT('',#1801);
#569=VERTEX_POINT('',#1808);
#570=VERTEX_POINT('',#1810);
#571=VERTEX_POINT('',#1814);
#572=VERTEX_POINT('',#1818);
#573=VERTEX_POINT('',#1821);
#574=VERTEX_POINT('',#1822);
#575=VERTEX_POINT('',#1824);
#576=VERTEX_POINT('',#1826);
#577=VERTEX_POINT('',#1829);
#578=VERTEX_POINT('',#1830);
#579=VERTEX_POINT('',#1832);
#580=VERTEX_POINT('',#1834);
#581=VERTEX_POINT('',#1837);
#582=VERTEX_POINT('',#1838);
#583=VERTEX_POINT('',#1840);
#584=VERTEX_POINT('',#1842);
#585=VERTEX_POINT('',#1845);
#586=VERTEX_POINT('',#1846);
#587=VERTEX_POINT('',#1848);
#588=VERTEX_POINT('',#1850);
#589=VERTEX_POINT('',#1853);
#590=VERTEX_POINT('',#1854);
#591=VERTEX_POINT('',#1856);
#592=VERTEX_POINT('',#1858);
#593=VERTEX_POINT('',#1861);
#594=VERTEX_POINT('',#1862);
#595=VERTEX_POINT('',#1864);
#596=VERTEX_POINT('',#1866);
#597=VERTEX_POINT('',#1869);
#598=VERTEX_POINT('',#1870);
#599=VERTEX_POINT('',#1872);
#600=VERTEX_POINT('',#1874);
#601=VERTEX_POINT('',#1877);
#602=VERTEX_POINT('',#1878);
#603=VERTEX_POINT('',#1880);
#604=VERTEX_POINT('',#1882);
#605=VERTEX_POINT('',#1885);
#606=VERTEX_POINT('',#1886);
#607=VERTEX_POINT('',#1888);
#608=VERTEX_POINT('',#1890);
#609=VERTEX_POINT('',#1893);
#610=VERTEX_POINT('',#1894);
#611=VERTEX_POINT('',#1896);
#612=VERTEX_POINT('',#1898);
#613=VERTEX_POINT('',#1901);
#614=VERTEX_POINT('',#1902);
#615=VERTEX_POINT('',#1904);
#616=VERTEX_POINT('',#1906);
#617=VERTEX_POINT('',#1910);
#618=VERTEX_POINT('',#1914);
#619=VERTEX_POINT('',#1918);
#620=VERTEX_POINT('',#1920);
#621=VERTEX_POINT('',#1928);
#622=VERTEX_POINT('',#1932);
#623=VERTEX_POINT('',#1940);
#624=VERTEX_POINT('',#1941);
#625=VERTEX_POINT('',#1946);
#626=VERTEX_POINT('',#1950);
#627=VERTEX_POINT('',#1956);
#628=VERTEX_POINT('',#1957);
#629=VERTEX_POINT('',#1962);
#630=VERTEX_POINT('',#1966);
#631=VERTEX_POINT('',#1972);
#632=VERTEX_POINT('',#1973);
#633=VERTEX_POINT('',#1978);
#634=VERTEX_POINT('',#1982);
#635=VERTEX_POINT('',#1988);
#636=VERTEX_POINT('',#1989);
#637=VERTEX_POINT('',#1994);
#638=VERTEX_POINT('',#1998);
#639=VERTEX_POINT('',#2004);
#640=VERTEX_POINT('',#2005);
#641=VERTEX_POINT('',#2010);
#642=VERTEX_POINT('',#2014);
#643=VERTEX_POINT('',#2020);
#644=VERTEX_POINT('',#2021);
#645=VERTEX_POINT('',#2026);
#646=VERTEX_POINT('',#2030);
#647=VERTEX_POINT('',#2036);
#648=VERTEX_POINT('',#2037);
#649=VERTEX_POINT('',#2042);
#650=VERTEX_POINT('',#2046);
#651=VERTEX_POINT('',#2052);
#652=VERTEX_POINT('',#2053);
#653=VERTEX_POINT('',#2058);
#654=VERTEX_POINT('',#2062);
#655=VERTEX_POINT('',#2068);
#656=VERTEX_POINT('',#2069);
#657=VERTEX_POINT('',#2074);
#658=VERTEX_POINT('',#2078);
#659=VERTEX_POINT('',#2084);
#660=VERTEX_POINT('',#2085);
#661=VERTEX_POINT('',#2090);
#662=VERTEX_POINT('',#2094);
#663=VERTEX_POINT('',#2100);
#664=VERTEX_POINT('',#2101);
#665=VERTEX_POINT('',#2106);
#666=VERTEX_POINT('',#2110);
#667=EDGE_CURVE('',#551,#552,#223,.T.);
#668=EDGE_CURVE('',#551,#553,#224,.T.);
#669=EDGE_CURVE('',#554,#553,#225,.T.);
#670=EDGE_CURVE('',#552,#554,#226,.T.);
#671=EDGE_CURVE('',#552,#555,#227,.T.);
#672=EDGE_CURVE('',#556,#554,#228,.T.);
#673=EDGE_CURVE('',#555,#556,#229,.T.);
#674=EDGE_CURVE('',#557,#551,#230,.T.);
#675=EDGE_CURVE('',#557,#558,#231,.T.);
#676=EDGE_CURVE('',#553,#558,#232,.T.);
#677=EDGE_CURVE('',#555,#557,#233,.T.);
#678=EDGE_CURVE('',#558,#556,#234,.T.);
#679=EDGE_CURVE('',#559,#560,#43,.T.);
#680=EDGE_CURVE('',#560,#561,#235,.T.);
#681=EDGE_CURVE('',#561,#562,#44,.T.);
#682=EDGE_CURVE('',#562,#559,#236,.T.);
#683=EDGE_CURVE('',#563,#561,#45,.T.);
#684=EDGE_CURVE('',#561,#564,#237,.T.);
#685=EDGE_CURVE('',#564,#565,#46,.T.);
#686=EDGE_CURVE('',#565,#563,#238,.T.);
#687=EDGE_CURVE('',#563,#562,#47,.T.);
#688=EDGE_CURVE('',#566,#567,#48,.T.);
#689=EDGE_CURVE('',#567,#568,#239,.T.);
#690=EDGE_CURVE('',#568,#564,#49,.T.);
#691=EDGE_CURVE('',#564,#566,#240,.T.);
#692=EDGE_CURVE('',#568,#565,#50,.T.);
#693=EDGE_CURVE('',#569,#562,#241,.T.);
#694=EDGE_CURVE('',#570,#569,#242,.T.);
#695=EDGE_CURVE('',#559,#570,#243,.T.);
#696=EDGE_CURVE('',#563,#571,#244,.T.);
#697=EDGE_CURVE('',#569,#571,#51,.T.);
#698=EDGE_CURVE('',#572,#565,#245,.T.);
#699=EDGE_CURVE('',#571,#572,#246,.T.);
#700=EDGE_CURVE('',#573,#574,#247,.T.);
#701=EDGE_CURVE('',#574,#575,#248,.T.);
#702=EDGE_CURVE('',#575,#576,#249,.T.);
#703=EDGE_CURVE('',#576,#573,#250,.T.);
#704=EDGE_CURVE('',#577,#578,#251,.T.);
#705=EDGE_CURVE('',#578,#579,#252,.T.);
#706=EDGE_CURVE('',#579,#580,#253,.T.);
#707=EDGE_CURVE('',#580,#577,#254,.T.);
#708=EDGE_CURVE('',#581,#582,#255,.T.);
#709=EDGE_CURVE('',#582,#583,#256,.T.);
#710=EDGE_CURVE('',#583,#584,#257,.T.);
#711=EDGE_CURVE('',#584,#581,#258,.T.);
#712=EDGE_CURVE('',#585,#586,#259,.T.);
#713=EDGE_CURVE('',#586,#587,#260,.T.);
#714=EDGE_CURVE('',#587,#588,#261,.T.);
#715=EDGE_CURVE('',#588,#585,#262,.T.);
#716=EDGE_CURVE('',#589,#590,#263,.T.);
#717=EDGE_CURVE('',#590,#591,#264,.T.);
#718=EDGE_CURVE('',#591,#592,#265,.T.);
#719=EDGE_CURVE('',#592,#589,#266,.T.);
#720=EDGE_CURVE('',#593,#594,#267,.T.);
#721=EDGE_CURVE('',#594,#595,#268,.T.);
#722=EDGE_CURVE('',#595,#596,#269,.T.);
#723=EDGE_CURVE('',#596,#593,#270,.T.);
#724=EDGE_CURVE('',#597,#598,#271,.T.);
#725=EDGE_CURVE('',#598,#599,#272,.T.);
#726=EDGE_CURVE('',#599,#600,#273,.T.);
#727=EDGE_CURVE('',#600,#597,#274,.T.);
#728=EDGE_CURVE('',#601,#602,#275,.T.);
#729=EDGE_CURVE('',#602,#603,#276,.T.);
#730=EDGE_CURVE('',#603,#604,#277,.T.);
#731=EDGE_CURVE('',#604,#601,#278,.T.);
#732=EDGE_CURVE('',#605,#606,#279,.T.);
#733=EDGE_CURVE('',#606,#607,#280,.T.);
#734=EDGE_CURVE('',#607,#608,#281,.T.);
#735=EDGE_CURVE('',#608,#605,#282,.T.);
#736=EDGE_CURVE('',#609,#610,#283,.T.);
#737=EDGE_CURVE('',#610,#611,#284,.T.);
#738=EDGE_CURVE('',#611,#612,#285,.T.);
#739=EDGE_CURVE('',#612,#609,#286,.T.);
#740=EDGE_CURVE('',#613,#614,#287,.T.);
#741=EDGE_CURVE('',#614,#615,#288,.T.);
#742=EDGE_CURVE('',#615,#616,#289,.T.);
#743=EDGE_CURVE('',#616,#613,#290,.T.);
#744=EDGE_CURVE('',#568,#617,#291,.T.);
#745=EDGE_CURVE('',#617,#572,#52,.T.);
#746=EDGE_CURVE('',#618,#567,#292,.T.);
#747=EDGE_CURVE('',#617,#618,#293,.T.);
#748=EDGE_CURVE('',#618,#619,#53,.T.);
#749=EDGE_CURVE('',#619,#620,#294,.T.);
#750=EDGE_CURVE('',#620,#617,#54,.T.);
#751=EDGE_CURVE('',#620,#572,#55,.T.);
#752=EDGE_CURVE('',#566,#560,#295,.T.);
#753=EDGE_CURVE('',#620,#621,#296,.T.);
#754=EDGE_CURVE('',#621,#571,#56,.T.);
#755=EDGE_CURVE('',#622,#619,#297,.T.);
#756=EDGE_CURVE('',#621,#622,#298,.T.);
#757=EDGE_CURVE('',#622,#570,#57,.T.);
#758=EDGE_CURVE('',#569,#621,#58,.T.);
#759=EDGE_CURVE('',#623,#624,#299,.T.);
#760=EDGE_CURVE('',#624,#613,#300,.T.);
#761=EDGE_CURVE('',#623,#616,#301,.T.);
#762=EDGE_CURVE('',#625,#623,#302,.T.);
#763=EDGE_CURVE('',#625,#615,#303,.T.);
#764=EDGE_CURVE('',#626,#625,#304,.T.);
#765=EDGE_CURVE('',#626,#614,#305,.T.);
#766=EDGE_CURVE('',#624,#626,#306,.T.);
#767=EDGE_CURVE('',#627,#628,#307,.T.);
#768=EDGE_CURVE('',#628,#609,#308,.T.);
#769=EDGE_CURVE('',#627,#612,#309,.T.);
#770=EDGE_CURVE('',#629,#627,#310,.T.);
#771=EDGE_CURVE('',#629,#611,#311,.T.);
#772=EDGE_CURVE('',#630,#629,#312,.T.);
#773=EDGE_CURVE('',#630,#610,#313,.T.);
#774=EDGE_CURVE('',#628,#630,#314,.T.);
#775=EDGE_CURVE('',#631,#632,#315,.T.);
#776=EDGE_CURVE('',#632,#605,#316,.T.);
#777=EDGE_CURVE('',#631,#608,#317,.T.);
#778=EDGE_CURVE('',#633,#631,#318,.T.);
#779=EDGE_CURVE('',#633,#607,#319,.T.);
#780=EDGE_CURVE('',#634,#633,#320,.T.);
#781=EDGE_CURVE('',#634,#606,#321,.T.);
#782=EDGE_CURVE('',#632,#634,#322,.T.);
#783=EDGE_CURVE('',#635,#636,#323,.T.);
#784=EDGE_CURVE('',#636,#601,#324,.T.);
#785=EDGE_CURVE('',#635,#604,#325,.T.);
#786=EDGE_CURVE('',#637,#635,#326,.T.);
#787=EDGE_CURVE('',#637,#603,#327,.T.);
#788=EDGE_CURVE('',#638,#637,#328,.T.);
#789=EDGE_CURVE('',#638,#602,#329,.T.);
#790=EDGE_CURVE('',#636,#638,#330,.T.);
#791=EDGE_CURVE('',#639,#640,#331,.T.);
#792=EDGE_CURVE('',#640,#597,#332,.T.);
#793=EDGE_CURVE('',#639,#600,#333,.T.);
#794=EDGE_CURVE('',#641,#639,#334,.T.);
#795=EDGE_CURVE('',#641,#599,#335,.T.);
#796=EDGE_CURVE('',#642,#641,#336,.T.);
#797=EDGE_CURVE('',#642,#598,#337,.T.);
#798=EDGE_CURVE('',#640,#642,#338,.T.);
#799=EDGE_CURVE('',#643,#644,#339,.T.);
#800=EDGE_CURVE('',#644,#593,#340,.T.);
#801=EDGE_CURVE('',#643,#596,#341,.T.);
#802=EDGE_CURVE('',#645,#643,#342,.T.);
#803=EDGE_CURVE('',#645,#595,#343,.T.);
#804=EDGE_CURVE('',#646,#645,#344,.T.);
#805=EDGE_CURVE('',#646,#594,#345,.T.);
#806=EDGE_CURVE('',#644,#646,#346,.T.);
#807=EDGE_CURVE('',#647,#648,#347,.T.);
#808=EDGE_CURVE('',#648,#589,#348,.T.);
#809=EDGE_CURVE('',#647,#592,#349,.T.);
#810=EDGE_CURVE('',#649,#647,#350,.T.);
#811=EDGE_CURVE('',#649,#591,#351,.T.);
#812=EDGE_CURVE('',#650,#649,#352,.T.);
#813=EDGE_CURVE('',#650,#590,#353,.T.);
#814=EDGE_CURVE('',#648,#650,#354,.T.);
#815=EDGE_CURVE('',#651,#652,#355,.T.);
#816=EDGE_CURVE('',#652,#585,#356,.T.);
#817=EDGE_CURVE('',#651,#588,#357,.T.);
#818=EDGE_CURVE('',#653,#651,#358,.T.);
#819=EDGE_CURVE('',#653,#587,#359,.T.);
#820=EDGE_CURVE('',#654,#653,#360,.T.);
#821=EDGE_CURVE('',#654,#586,#361,.T.);
#822=EDGE_CURVE('',#652,#654,#362,.T.);
#823=EDGE_CURVE('',#655,#656,#363,.T.);
#824=EDGE_CURVE('',#656,#581,#364,.T.);
#825=EDGE_CURVE('',#655,#584,#365,.T.);
#826=EDGE_CURVE('',#657,#655,#366,.T.);
#827=EDGE_CURVE('',#657,#583,#367,.T.);
#828=EDGE_CURVE('',#658,#657,#368,.T.);
#829=EDGE_CURVE('',#658,#582,#369,.T.);
#830=EDGE_CURVE('',#656,#658,#370,.T.);
#831=EDGE_CURVE('',#659,#660,#371,.T.);
#832=EDGE_CURVE('',#660,#577,#372,.T.);
#833=EDGE_CURVE('',#659,#580,#373,.T.);
#834=EDGE_CURVE('',#661,#659,#374,.T.);
#835=EDGE_CURVE('',#661,#579,#375,.T.);
#836=EDGE_CURVE('',#662,#661,#376,.T.);
#837=EDGE_CURVE('',#662,#578,#377,.T.);
#838=EDGE_CURVE('',#660,#662,#378,.T.);
#839=EDGE_CURVE('',#663,#664,#379,.T.);
#840=EDGE_CURVE('',#664,#573,#380,.T.);
#841=EDGE_CURVE('',#663,#576,#381,.T.);
#842=EDGE_CURVE('',#665,#663,#382,.T.);
#843=EDGE_CURVE('',#665,#575,#383,.T.);
#844=EDGE_CURVE('',#666,#665,#384,.T.);
#845=EDGE_CURVE('',#666,#574,#385,.T.);
#846=EDGE_CURVE('',#664,#666,#386,.T.);
#847=ORIENTED_EDGE('',*,*,#667,.F.);
#848=ORIENTED_EDGE('',*,*,#668,.T.);
#849=ORIENTED_EDGE('',*,*,#669,.F.);
#850=ORIENTED_EDGE('',*,*,#670,.F.);
#851=ORIENTED_EDGE('',*,*,#671,.F.);
#852=ORIENTED_EDGE('',*,*,#670,.T.);
#853=ORIENTED_EDGE('',*,*,#672,.F.);
#854=ORIENTED_EDGE('',*,*,#673,.F.);
#855=ORIENTED_EDGE('',*,*,#674,.F.);
#856=ORIENTED_EDGE('',*,*,#675,.T.);
#857=ORIENTED_EDGE('',*,*,#676,.F.);
#858=ORIENTED_EDGE('',*,*,#668,.F.);
#859=ORIENTED_EDGE('',*,*,#677,.F.);
#860=ORIENTED_EDGE('',*,*,#673,.T.);
#861=ORIENTED_EDGE('',*,*,#678,.F.);
#862=ORIENTED_EDGE('',*,*,#675,.F.);
#863=ORIENTED_EDGE('',*,*,#679,.T.);
#864=ORIENTED_EDGE('',*,*,#680,.T.);
#865=ORIENTED_EDGE('',*,*,#681,.T.);
#866=ORIENTED_EDGE('',*,*,#682,.T.);
#867=ORIENTED_EDGE('',*,*,#683,.T.);
#868=ORIENTED_EDGE('',*,*,#684,.T.);
#869=ORIENTED_EDGE('',*,*,#685,.T.);
#870=ORIENTED_EDGE('',*,*,#686,.T.);
#871=ORIENTED_EDGE('',*,*,#683,.F.);
#872=ORIENTED_EDGE('',*,*,#687,.T.);
#873=ORIENTED_EDGE('',*,*,#681,.F.);
#874=ORIENTED_EDGE('',*,*,#688,.T.);
#875=ORIENTED_EDGE('',*,*,#689,.T.);
#876=ORIENTED_EDGE('',*,*,#690,.T.);
#877=ORIENTED_EDGE('',*,*,#691,.T.);
#878=ORIENTED_EDGE('',*,*,#690,.F.);
#879=ORIENTED_EDGE('',*,*,#692,.T.);
#880=ORIENTED_EDGE('',*,*,#685,.F.);
#881=ORIENTED_EDGE('',*,*,#682,.F.);
#882=ORIENTED_EDGE('',*,*,#693,.F.);
#883=ORIENTED_EDGE('',*,*,#694,.F.);
#884=ORIENTED_EDGE('',*,*,#695,.F.);
#885=ORIENTED_EDGE('',*,*,#687,.F.);
#886=ORIENTED_EDGE('',*,*,#696,.T.);
#887=ORIENTED_EDGE('',*,*,#697,.F.);
#888=ORIENTED_EDGE('',*,*,#693,.T.);
#889=ORIENTED_EDGE('',*,*,#686,.F.);
#890=ORIENTED_EDGE('',*,*,#698,.F.);
#891=ORIENTED_EDGE('',*,*,#699,.F.);
#892=ORIENTED_EDGE('',*,*,#696,.F.);
#893=ORIENTED_EDGE('',*,*,#674,.T.);
#894=ORIENTED_EDGE('',*,*,#667,.T.);
#895=ORIENTED_EDGE('',*,*,#671,.T.);
#896=ORIENTED_EDGE('',*,*,#677,.T.);
#897=ORIENTED_EDGE('',*,*,#700,.T.);
#898=ORIENTED_EDGE('',*,*,#701,.T.);
#899=ORIENTED_EDGE('',*,*,#702,.T.);
#900=ORIENTED_EDGE('',*,*,#703,.T.);
#901=ORIENTED_EDGE('',*,*,#704,.T.);
#902=ORIENTED_EDGE('',*,*,#705,.T.);
#903=ORIENTED_EDGE('',*,*,#706,.T.);
#904=ORIENTED_EDGE('',*,*,#707,.T.);
#905=ORIENTED_EDGE('',*,*,#708,.T.);
#906=ORIENTED_EDGE('',*,*,#709,.T.);
#907=ORIENTED_EDGE('',*,*,#710,.T.);
#908=ORIENTED_EDGE('',*,*,#711,.T.);
#909=ORIENTED_EDGE('',*,*,#712,.T.);
#910=ORIENTED_EDGE('',*,*,#713,.T.);
#911=ORIENTED_EDGE('',*,*,#714,.T.);
#912=ORIENTED_EDGE('',*,*,#715,.T.);
#913=ORIENTED_EDGE('',*,*,#716,.T.);
#914=ORIENTED_EDGE('',*,*,#717,.T.);
#915=ORIENTED_EDGE('',*,*,#718,.T.);
#916=ORIENTED_EDGE('',*,*,#719,.T.);
#917=ORIENTED_EDGE('',*,*,#720,.T.);
#918=ORIENTED_EDGE('',*,*,#721,.T.);
#919=ORIENTED_EDGE('',*,*,#722,.T.);
#920=ORIENTED_EDGE('',*,*,#723,.T.);
#921=ORIENTED_EDGE('',*,*,#724,.T.);
#922=ORIENTED_EDGE('',*,*,#725,.T.);
#923=ORIENTED_EDGE('',*,*,#726,.T.);
#924=ORIENTED_EDGE('',*,*,#727,.T.);
#925=ORIENTED_EDGE('',*,*,#728,.T.);
#926=ORIENTED_EDGE('',*,*,#729,.T.);
#927=ORIENTED_EDGE('',*,*,#730,.T.);
#928=ORIENTED_EDGE('',*,*,#731,.T.);
#929=ORIENTED_EDGE('',*,*,#732,.T.);
#930=ORIENTED_EDGE('',*,*,#733,.T.);
#931=ORIENTED_EDGE('',*,*,#734,.T.);
#932=ORIENTED_EDGE('',*,*,#735,.T.);
#933=ORIENTED_EDGE('',*,*,#736,.T.);
#934=ORIENTED_EDGE('',*,*,#737,.T.);
#935=ORIENTED_EDGE('',*,*,#738,.T.);
#936=ORIENTED_EDGE('',*,*,#739,.T.);
#937=ORIENTED_EDGE('',*,*,#740,.T.);
#938=ORIENTED_EDGE('',*,*,#741,.T.);
#939=ORIENTED_EDGE('',*,*,#742,.T.);
#940=ORIENTED_EDGE('',*,*,#743,.T.);
#941=ORIENTED_EDGE('',*,*,#692,.F.);
#942=ORIENTED_EDGE('',*,*,#744,.T.);
#943=ORIENTED_EDGE('',*,*,#745,.T.);
#944=ORIENTED_EDGE('',*,*,#698,.T.);
#945=ORIENTED_EDGE('',*,*,#689,.F.);
#946=ORIENTED_EDGE('',*,*,#746,.F.);
#947=ORIENTED_EDGE('',*,*,#747,.F.);
#948=ORIENTED_EDGE('',*,*,#744,.F.);
#949=ORIENTED_EDGE('',*,*,#748,.T.);
#950=ORIENTED_EDGE('',*,*,#749,.T.);
#951=ORIENTED_EDGE('',*,*,#750,.T.);
#952=ORIENTED_EDGE('',*,*,#747,.T.);
#953=ORIENTED_EDGE('',*,*,#750,.F.);
#954=ORIENTED_EDGE('',*,*,#751,.T.);
#955=ORIENTED_EDGE('',*,*,#745,.F.);
#956=ORIENTED_EDGE('',*,*,#680,.F.);
#957=ORIENTED_EDGE('',*,*,#752,.F.);
#958=ORIENTED_EDGE('',*,*,#691,.F.);
#959=ORIENTED_EDGE('',*,*,#684,.F.);
#960=ORIENTED_EDGE('',*,*,#751,.F.);
#961=ORIENTED_EDGE('',*,*,#753,.T.);
#962=ORIENTED_EDGE('',*,*,#754,.T.);
#963=ORIENTED_EDGE('',*,*,#699,.T.);
#964=ORIENTED_EDGE('',*,*,#749,.F.);
#965=ORIENTED_EDGE('',*,*,#755,.F.);
#966=ORIENTED_EDGE('',*,*,#756,.F.);
#967=ORIENTED_EDGE('',*,*,#753,.F.);
#968=ORIENTED_EDGE('',*,*,#757,.T.);
#969=ORIENTED_EDGE('',*,*,#694,.T.);
#970=ORIENTED_EDGE('',*,*,#758,.T.);
#971=ORIENTED_EDGE('',*,*,#756,.T.);
#972=ORIENTED_EDGE('',*,*,#758,.F.);
#973=ORIENTED_EDGE('',*,*,#697,.T.);
#974=ORIENTED_EDGE('',*,*,#754,.F.);
#975=ORIENTED_EDGE('',*,*,#759,.T.);
#976=ORIENTED_EDGE('',*,*,#760,.T.);
#977=ORIENTED_EDGE('',*,*,#743,.F.);
#978=ORIENTED_EDGE('',*,*,#761,.F.);
#979=ORIENTED_EDGE('',*,*,#762,.T.);
#980=ORIENTED_EDGE('',*,*,#761,.T.);
#981=ORIENTED_EDGE('',*,*,#742,.F.);
#982=ORIENTED_EDGE('',*,*,#763,.F.);
#983=ORIENTED_EDGE('',*,*,#764,.T.);
#984=ORIENTED_EDGE('',*,*,#763,.T.);
#985=ORIENTED_EDGE('',*,*,#741,.F.);
#986=ORIENTED_EDGE('',*,*,#765,.F.);
#987=ORIENTED_EDGE('',*,*,#766,.T.);
#988=ORIENTED_EDGE('',*,*,#765,.T.);
#989=ORIENTED_EDGE('',*,*,#740,.F.);
#990=ORIENTED_EDGE('',*,*,#760,.F.);
#991=ORIENTED_EDGE('',*,*,#767,.T.);
#992=ORIENTED_EDGE('',*,*,#768,.T.);
#993=ORIENTED_EDGE('',*,*,#739,.F.);
#994=ORIENTED_EDGE('',*,*,#769,.F.);
#995=ORIENTED_EDGE('',*,*,#770,.T.);
#996=ORIENTED_EDGE('',*,*,#769,.T.);
#997=ORIENTED_EDGE('',*,*,#738,.F.);
#998=ORIENTED_EDGE('',*,*,#771,.F.);
#999=ORIENTED_EDGE('',*,*,#772,.T.);
#1000=ORIENTED_EDGE('',*,*,#771,.T.);
#1001=ORIENTED_EDGE('',*,*,#737,.F.);
#1002=ORIENTED_EDGE('',*,*,#773,.F.);
#1003=ORIENTED_EDGE('',*,*,#774,.T.);
#1004=ORIENTED_EDGE('',*,*,#773,.T.);
#1005=ORIENTED_EDGE('',*,*,#736,.F.);
#1006=ORIENTED_EDGE('',*,*,#768,.F.);
#1007=ORIENTED_EDGE('',*,*,#775,.T.);
#1008=ORIENTED_EDGE('',*,*,#776,.T.);
#1009=ORIENTED_EDGE('',*,*,#735,.F.);
#1010=ORIENTED_EDGE('',*,*,#777,.F.);
#1011=ORIENTED_EDGE('',*,*,#778,.T.);
#1012=ORIENTED_EDGE('',*,*,#777,.T.);
#1013=ORIENTED_EDGE('',*,*,#734,.F.);
#1014=ORIENTED_EDGE('',*,*,#779,.F.);
#1015=ORIENTED_EDGE('',*,*,#780,.T.);
#1016=ORIENTED_EDGE('',*,*,#779,.T.);
#1017=ORIENTED_EDGE('',*,*,#733,.F.);
#1018=ORIENTED_EDGE('',*,*,#781,.F.);
#1019=ORIENTED_EDGE('',*,*,#782,.T.);
#1020=ORIENTED_EDGE('',*,*,#781,.T.);
#1021=ORIENTED_EDGE('',*,*,#732,.F.);
#1022=ORIENTED_EDGE('',*,*,#776,.F.);
#1023=ORIENTED_EDGE('',*,*,#783,.T.);
#1024=ORIENTED_EDGE('',*,*,#784,.T.);
#1025=ORIENTED_EDGE('',*,*,#731,.F.);
#1026=ORIENTED_EDGE('',*,*,#785,.F.);
#1027=ORIENTED_EDGE('',*,*,#786,.T.);
#1028=ORIENTED_EDGE('',*,*,#785,.T.);
#1029=ORIENTED_EDGE('',*,*,#730,.F.);
#1030=ORIENTED_EDGE('',*,*,#787,.F.);
#1031=ORIENTED_EDGE('',*,*,#788,.T.);
#1032=ORIENTED_EDGE('',*,*,#787,.T.);
#1033=ORIENTED_EDGE('',*,*,#729,.F.);
#1034=ORIENTED_EDGE('',*,*,#789,.F.);
#1035=ORIENTED_EDGE('',*,*,#790,.T.);
#1036=ORIENTED_EDGE('',*,*,#789,.T.);
#1037=ORIENTED_EDGE('',*,*,#728,.F.);
#1038=ORIENTED_EDGE('',*,*,#784,.F.);
#1039=ORIENTED_EDGE('',*,*,#791,.T.);
#1040=ORIENTED_EDGE('',*,*,#792,.T.);
#1041=ORIENTED_EDGE('',*,*,#727,.F.);
#1042=ORIENTED_EDGE('',*,*,#793,.F.);
#1043=ORIENTED_EDGE('',*,*,#794,.T.);
#1044=ORIENTED_EDGE('',*,*,#793,.T.);
#1045=ORIENTED_EDGE('',*,*,#726,.F.);
#1046=ORIENTED_EDGE('',*,*,#795,.F.);
#1047=ORIENTED_EDGE('',*,*,#796,.T.);
#1048=ORIENTED_EDGE('',*,*,#795,.T.);
#1049=ORIENTED_EDGE('',*,*,#725,.F.);
#1050=ORIENTED_EDGE('',*,*,#797,.F.);
#1051=ORIENTED_EDGE('',*,*,#798,.T.);
#1052=ORIENTED_EDGE('',*,*,#797,.T.);
#1053=ORIENTED_EDGE('',*,*,#724,.F.);
#1054=ORIENTED_EDGE('',*,*,#792,.F.);
#1055=ORIENTED_EDGE('',*,*,#799,.T.);
#1056=ORIENTED_EDGE('',*,*,#800,.T.);
#1057=ORIENTED_EDGE('',*,*,#723,.F.);
#1058=ORIENTED_EDGE('',*,*,#801,.F.);
#1059=ORIENTED_EDGE('',*,*,#802,.T.);
#1060=ORIENTED_EDGE('',*,*,#801,.T.);
#1061=ORIENTED_EDGE('',*,*,#722,.F.);
#1062=ORIENTED_EDGE('',*,*,#803,.F.);
#1063=ORIENTED_EDGE('',*,*,#804,.T.);
#1064=ORIENTED_EDGE('',*,*,#803,.T.);
#1065=ORIENTED_EDGE('',*,*,#721,.F.);
#1066=ORIENTED_EDGE('',*,*,#805,.F.);
#1067=ORIENTED_EDGE('',*,*,#806,.T.);
#1068=ORIENTED_EDGE('',*,*,#805,.T.);
#1069=ORIENTED_EDGE('',*,*,#720,.F.);
#1070=ORIENTED_EDGE('',*,*,#800,.F.);
#1071=ORIENTED_EDGE('',*,*,#807,.T.);
#1072=ORIENTED_EDGE('',*,*,#808,.T.);
#1073=ORIENTED_EDGE('',*,*,#719,.F.);
#1074=ORIENTED_EDGE('',*,*,#809,.F.);
#1075=ORIENTED_EDGE('',*,*,#810,.T.);
#1076=ORIENTED_EDGE('',*,*,#809,.T.);
#1077=ORIENTED_EDGE('',*,*,#718,.F.);
#1078=ORIENTED_EDGE('',*,*,#811,.F.);
#1079=ORIENTED_EDGE('',*,*,#812,.T.);
#1080=ORIENTED_EDGE('',*,*,#811,.T.);
#1081=ORIENTED_EDGE('',*,*,#717,.F.);
#1082=ORIENTED_EDGE('',*,*,#813,.F.);
#1083=ORIENTED_EDGE('',*,*,#814,.T.);
#1084=ORIENTED_EDGE('',*,*,#813,.T.);
#1085=ORIENTED_EDGE('',*,*,#716,.F.);
#1086=ORIENTED_EDGE('',*,*,#808,.F.);
#1087=ORIENTED_EDGE('',*,*,#815,.T.);
#1088=ORIENTED_EDGE('',*,*,#816,.T.);
#1089=ORIENTED_EDGE('',*,*,#715,.F.);
#1090=ORIENTED_EDGE('',*,*,#817,.F.);
#1091=ORIENTED_EDGE('',*,*,#818,.T.);
#1092=ORIENTED_EDGE('',*,*,#817,.T.);
#1093=ORIENTED_EDGE('',*,*,#714,.F.);
#1094=ORIENTED_EDGE('',*,*,#819,.F.);
#1095=ORIENTED_EDGE('',*,*,#820,.T.);
#1096=ORIENTED_EDGE('',*,*,#819,.T.);
#1097=ORIENTED_EDGE('',*,*,#713,.F.);
#1098=ORIENTED_EDGE('',*,*,#821,.F.);
#1099=ORIENTED_EDGE('',*,*,#822,.T.);
#1100=ORIENTED_EDGE('',*,*,#821,.T.);
#1101=ORIENTED_EDGE('',*,*,#712,.F.);
#1102=ORIENTED_EDGE('',*,*,#816,.F.);
#1103=ORIENTED_EDGE('',*,*,#823,.T.);
#1104=ORIENTED_EDGE('',*,*,#824,.T.);
#1105=ORIENTED_EDGE('',*,*,#711,.F.);
#1106=ORIENTED_EDGE('',*,*,#825,.F.);
#1107=ORIENTED_EDGE('',*,*,#826,.T.);
#1108=ORIENTED_EDGE('',*,*,#825,.T.);
#1109=ORIENTED_EDGE('',*,*,#710,.F.);
#1110=ORIENTED_EDGE('',*,*,#827,.F.);
#1111=ORIENTED_EDGE('',*,*,#828,.T.);
#1112=ORIENTED_EDGE('',*,*,#827,.T.);
#1113=ORIENTED_EDGE('',*,*,#709,.F.);
#1114=ORIENTED_EDGE('',*,*,#829,.F.);
#1115=ORIENTED_EDGE('',*,*,#830,.T.);
#1116=ORIENTED_EDGE('',*,*,#829,.T.);
#1117=ORIENTED_EDGE('',*,*,#708,.F.);
#1118=ORIENTED_EDGE('',*,*,#824,.F.);
#1119=ORIENTED_EDGE('',*,*,#831,.T.);
#1120=ORIENTED_EDGE('',*,*,#832,.T.);
#1121=ORIENTED_EDGE('',*,*,#707,.F.);
#1122=ORIENTED_EDGE('',*,*,#833,.F.);
#1123=ORIENTED_EDGE('',*,*,#834,.T.);
#1124=ORIENTED_EDGE('',*,*,#833,.T.);
#1125=ORIENTED_EDGE('',*,*,#706,.F.);
#1126=ORIENTED_EDGE('',*,*,#835,.F.);
#1127=ORIENTED_EDGE('',*,*,#836,.T.);
#1128=ORIENTED_EDGE('',*,*,#835,.T.);
#1129=ORIENTED_EDGE('',*,*,#705,.F.);
#1130=ORIENTED_EDGE('',*,*,#837,.F.);
#1131=ORIENTED_EDGE('',*,*,#838,.T.);
#1132=ORIENTED_EDGE('',*,*,#837,.T.);
#1133=ORIENTED_EDGE('',*,*,#704,.F.);
#1134=ORIENTED_EDGE('',*,*,#832,.F.);
#1135=ORIENTED_EDGE('',*,*,#839,.T.);
#1136=ORIENTED_EDGE('',*,*,#840,.T.);
#1137=ORIENTED_EDGE('',*,*,#703,.F.);
#1138=ORIENTED_EDGE('',*,*,#841,.F.);
#1139=ORIENTED_EDGE('',*,*,#842,.T.);
#1140=ORIENTED_EDGE('',*,*,#841,.T.);
#1141=ORIENTED_EDGE('',*,*,#702,.F.);
#1142=ORIENTED_EDGE('',*,*,#843,.F.);
#1143=ORIENTED_EDGE('',*,*,#844,.T.);
#1144=ORIENTED_EDGE('',*,*,#843,.T.);
#1145=ORIENTED_EDGE('',*,*,#701,.F.);
#1146=ORIENTED_EDGE('',*,*,#845,.F.);
#1147=ORIENTED_EDGE('',*,*,#846,.T.);
#1148=ORIENTED_EDGE('',*,*,#845,.T.);
#1149=ORIENTED_EDGE('',*,*,#700,.F.);
#1150=ORIENTED_EDGE('',*,*,#840,.F.);
#1151=ORIENTED_EDGE('',*,*,#679,.F.);
#1152=ORIENTED_EDGE('',*,*,#695,.T.);
#1153=ORIENTED_EDGE('',*,*,#757,.F.);
#1154=ORIENTED_EDGE('',*,*,#755,.T.);
#1155=ORIENTED_EDGE('',*,*,#748,.F.);
#1156=ORIENTED_EDGE('',*,*,#746,.T.);
#1157=ORIENTED_EDGE('',*,*,#688,.F.);
#1158=ORIENTED_EDGE('',*,*,#752,.T.);
#1159=ORIENTED_EDGE('',*,*,#846,.F.);
#1160=ORIENTED_EDGE('',*,*,#839,.F.);
#1161=ORIENTED_EDGE('',*,*,#842,.F.);
#1162=ORIENTED_EDGE('',*,*,#844,.F.);
#1163=ORIENTED_EDGE('',*,*,#838,.F.);
#1164=ORIENTED_EDGE('',*,*,#831,.F.);
#1165=ORIENTED_EDGE('',*,*,#834,.F.);
#1166=ORIENTED_EDGE('',*,*,#836,.F.);
#1167=ORIENTED_EDGE('',*,*,#830,.F.);
#1168=ORIENTED_EDGE('',*,*,#823,.F.);
#1169=ORIENTED_EDGE('',*,*,#826,.F.);
#1170=ORIENTED_EDGE('',*,*,#828,.F.);
#1171=ORIENTED_EDGE('',*,*,#822,.F.);
#1172=ORIENTED_EDGE('',*,*,#815,.F.);
#1173=ORIENTED_EDGE('',*,*,#818,.F.);
#1174=ORIENTED_EDGE('',*,*,#820,.F.);
#1175=ORIENTED_EDGE('',*,*,#814,.F.);
#1176=ORIENTED_EDGE('',*,*,#807,.F.);
#1177=ORIENTED_EDGE('',*,*,#810,.F.);
#1178=ORIENTED_EDGE('',*,*,#812,.F.);
#1179=ORIENTED_EDGE('',*,*,#806,.F.);
#1180=ORIENTED_EDGE('',*,*,#799,.F.);
#1181=ORIENTED_EDGE('',*,*,#802,.F.);
#1182=ORIENTED_EDGE('',*,*,#804,.F.);
#1183=ORIENTED_EDGE('',*,*,#798,.F.);
#1184=ORIENTED_EDGE('',*,*,#791,.F.);
#1185=ORIENTED_EDGE('',*,*,#794,.F.);
#1186=ORIENTED_EDGE('',*,*,#796,.F.);
#1187=ORIENTED_EDGE('',*,*,#790,.F.);
#1188=ORIENTED_EDGE('',*,*,#783,.F.);
#1189=ORIENTED_EDGE('',*,*,#786,.F.);
#1190=ORIENTED_EDGE('',*,*,#788,.F.);
#1191=ORIENTED_EDGE('',*,*,#782,.F.);
#1192=ORIENTED_EDGE('',*,*,#775,.F.);
#1193=ORIENTED_EDGE('',*,*,#778,.F.);
#1194=ORIENTED_EDGE('',*,*,#780,.F.);
#1195=ORIENTED_EDGE('',*,*,#774,.F.);
#1196=ORIENTED_EDGE('',*,*,#767,.F.);
#1197=ORIENTED_EDGE('',*,*,#770,.F.);
#1198=ORIENTED_EDGE('',*,*,#772,.F.);
#1199=ORIENTED_EDGE('',*,*,#766,.F.);
#1200=ORIENTED_EDGE('',*,*,#759,.F.);
#1201=ORIENTED_EDGE('',*,*,#762,.F.);
#1202=ORIENTED_EDGE('',*,*,#764,.F.);
#1203=ORIENTED_EDGE('',*,*,#676,.T.);
#1204=ORIENTED_EDGE('',*,*,#678,.T.);
#1205=ORIENTED_EDGE('',*,*,#672,.T.);
#1206=ORIENTED_EDGE('',*,*,#669,.T.);
#1207=PLANE('',#1341);
#1208=PLANE('',#1342);
#1209=PLANE('',#1343);
#1210=PLANE('',#1344);
#1211=PLANE('',#1358);
#1212=PLANE('',#1361);
#1213=PLANE('',#1364);
#1214=PLANE('',#1370);
#1215=PLANE('',#1373);
#1216=PLANE('',#1378);
#1217=PLANE('',#1379);
#1218=PLANE('',#1380);
#1219=PLANE('',#1381);
#1220=PLANE('',#1382);
#1221=PLANE('',#1383);
#1222=PLANE('',#1384);
#1223=PLANE('',#1385);
#1224=PLANE('',#1386);
#1225=PLANE('',#1387);
#1226=PLANE('',#1388);
#1227=PLANE('',#1389);
#1228=PLANE('',#1390);
#1229=PLANE('',#1391);
#1230=PLANE('',#1392);
#1231=PLANE('',#1393);
#1232=PLANE('',#1394);
#1233=PLANE('',#1395);
#1234=PLANE('',#1396);
#1235=PLANE('',#1397);
#1236=PLANE('',#1398);
#1237=PLANE('',#1399);
#1238=PLANE('',#1400);
#1239=PLANE('',#1401);
#1240=PLANE('',#1402);
#1241=PLANE('',#1403);
#1242=PLANE('',#1404);
#1243=PLANE('',#1405);
#1244=PLANE('',#1406);
#1245=PLANE('',#1407);
#1246=PLANE('',#1408);
#1247=PLANE('',#1409);
#1248=PLANE('',#1410);
#1249=PLANE('',#1411);
#1250=PLANE('',#1412);
#1251=PLANE('',#1413);
#1252=PLANE('',#1414);
#1253=PLANE('',#1415);
#1254=PLANE('',#1416);
#1255=PLANE('',#1417);
#1256=PLANE('',#1418);
#1257=PLANE('',#1419);
#1258=PLANE('',#1420);
#1259=PLANE('',#1421);
#1260=PLANE('',#1422);
#1261=ADVANCED_FACE('',(#67),#1207,.F.);
#1262=ADVANCED_FACE('',(#68),#1208,.F.);
#1263=ADVANCED_FACE('',(#69),#1209,.F.);
#1264=ADVANCED_FACE('',(#70),#1210,.F.);
#1265=ADVANCED_FACE('',(#71),#59,.T.);
#1266=ADVANCED_FACE('',(#72),#60,.T.);
#1267=ADVANCED_FACE('',(#73),#39,.T.);
#1268=ADVANCED_FACE('',(#74),#61,.T.);
#1269=ADVANCED_FACE('',(#75),#40,.T.);
#1270=ADVANCED_FACE('',(#76),#1211,.T.);
#1271=ADVANCED_FACE('',(#77),#62,.T.);
#1272=ADVANCED_FACE('',(#78,#15,#16,#17,#18,#19,#20,#21,#22,#23,#24,#25,
#26),#1212,.T.);
#1273=ADVANCED_FACE('',(#79),#63,.T.);
#1274=ADVANCED_FACE('',(#80),#1213,.T.);
#1275=ADVANCED_FACE('',(#81),#64,.T.);
#1276=ADVANCED_FACE('',(#82),#41,.T.);
#1277=ADVANCED_FACE('',(#83),#1214,.T.);
#1278=ADVANCED_FACE('',(#84),#65,.T.);
#1279=ADVANCED_FACE('',(#85),#1215,.T.);
#1280=ADVANCED_FACE('',(#86),#66,.T.);
#1281=ADVANCED_FACE('',(#87),#42,.T.);
#1282=ADVANCED_FACE('',(#88),#1216,.T.);
#1283=ADVANCED_FACE('',(#89),#1217,.T.);
#1284=ADVANCED_FACE('',(#90),#1218,.T.);
#1285=ADVANCED_FACE('',(#91),#1219,.T.);
#1286=ADVANCED_FACE('',(#92),#1220,.T.);
#1287=ADVANCED_FACE('',(#93),#1221,.T.);
#1288=ADVANCED_FACE('',(#94),#1222,.T.);
#1289=ADVANCED_FACE('',(#95),#1223,.T.);
#1290=ADVANCED_FACE('',(#96),#1224,.T.);
#1291=ADVANCED_FACE('',(#97),#1225,.T.);
#1292=ADVANCED_FACE('',(#98),#1226,.T.);
#1293=ADVANCED_FACE('',(#99),#1227,.T.);
#1294=ADVANCED_FACE('',(#100),#1228,.T.);
#1295=ADVANCED_FACE('',(#101),#1229,.T.);
#1296=ADVANCED_FACE('',(#102),#1230,.T.);
#1297=ADVANCED_FACE('',(#103),#1231,.T.);
#1298=ADVANCED_FACE('',(#104),#1232,.T.);
#1299=ADVANCED_FACE('',(#105),#1233,.T.);
#1300=ADVANCED_FACE('',(#106),#1234,.T.);
#1301=ADVANCED_FACE('',(#107),#1235,.T.);
#1302=ADVANCED_FACE('',(#108),#1236,.T.);
#1303=ADVANCED_FACE('',(#109),#1237,.T.);
#1304=ADVANCED_FACE('',(#110),#1238,.T.);
#1305=ADVANCED_FACE('',(#111),#1239,.T.);
#1306=ADVANCED_FACE('',(#112),#1240,.T.);
#1307=ADVANCED_FACE('',(#113),#1241,.T.);
#1308=ADVANCED_FACE('',(#114),#1242,.T.);
#1309=ADVANCED_FACE('',(#115),#1243,.T.);
#1310=ADVANCED_FACE('',(#116),#1244,.T.);
#1311=ADVANCED_FACE('',(#117),#1245,.T.);
#1312=ADVANCED_FACE('',(#118),#1246,.T.);
#1313=ADVANCED_FACE('',(#119),#1247,.T.);
#1314=ADVANCED_FACE('',(#120),#1248,.T.);
#1315=ADVANCED_FACE('',(#121),#1249,.T.);
#1316=ADVANCED_FACE('',(#122),#1250,.T.);
#1317=ADVANCED_FACE('',(#123),#1251,.T.);
#1318=ADVANCED_FACE('',(#124),#1252,.T.);
#1319=ADVANCED_FACE('',(#125),#1253,.T.);
#1320=ADVANCED_FACE('',(#126),#1254,.T.);
#1321=ADVANCED_FACE('',(#127),#1255,.T.);
#1322=ADVANCED_FACE('',(#128),#1256,.T.);
#1323=ADVANCED_FACE('',(#129),#1257,.T.);
#1324=ADVANCED_FACE('',(#130),#1258,.T.);
#1325=ADVANCED_FACE('',(#131),#1259,.T.);
#1326=ADVANCED_FACE('',(#132,#27,#28,#29,#30,#31,#32,#33,#34,#35,#36,#37,
#38),#1260,.F.);
#1327=CLOSED_SHELL('',(#1261,#1262,#1263,#1264,#1265,#1266,#1267,#1268,
#1269,#1270,#1271,#1272,#1273,#1274,#1275,#1276,#1277,#1278,#1279,#1280,
#1281,#1282,#1283,#1284,#1285,#1286,#1287,#1288,#1289,#1290,#1291,#1292,
#1293,#1294,#1295,#1296,#1297,#1298,#1299,#1300,#1301,#1302,#1303,#1304,
#1305,#1306,#1307,#1308,#1309,#1310,#1311,#1312,#1313,#1314,#1315,#1316,
#1317,#1318,#1319,#1320,#1321,#1322,#1323,#1324,#1325,#1326));
#1328=DERIVED_UNIT_ELEMENT(#1330,1.);
#1329=DERIVED_UNIT_ELEMENT(#2121,-3.);
#1330=(
MASS_UNIT()
NAMED_UNIT(*)
SI_UNIT(.KILO.,.GRAM.)
);
#1331=DERIVED_UNIT((#1328,#1329));
#1332=MEASURE_REPRESENTATION_ITEM('density measure',
POSITIVE_RATIO_MEASURE(7850.),#1331);
#1333=PROPERTY_DEFINITION_REPRESENTATION(#1338,#1335);
#1334=PROPERTY_DEFINITION_REPRESENTATION(#1339,#1336);
#1335=REPRESENTATION('material name',(#1337),#2118);
#1336=REPRESENTATION('density',(#1332),#2118);
#1337=DESCRIPTIVE_REPRESENTATION_ITEM('Steel','Steel');
#1338=PROPERTY_DEFINITION('material property','material name',#2128);
#1339=PROPERTY_DEFINITION('material property','density of part',#2128);
#1340=AXIS2_PLACEMENT_3D('',#1753,#1423,#1424);
#1341=AXIS2_PLACEMENT_3D('',#1754,#1425,#1426);
#1342=AXIS2_PLACEMENT_3D('',#1763,#1431,#1432);
#1343=AXIS2_PLACEMENT_3D('',#1769,#1436,#1437);
#1344=AXIS2_PLACEMENT_3D('',#1775,#1441,#1442);
#1345=AXIS2_PLACEMENT_3D('',#1778,#1445,#1446);
#1346=AXIS2_PLACEMENT_3D('',#1781,#1447,#1448);
#1347=AXIS2_PLACEMENT_3D('',#1785,#1450,#1451);
#1348=AXIS2_PLACEMENT_3D('',#1787,#1453,#1454);
#1349=AXIS2_PLACEMENT_3D('',#1789,#1455,#1456);
#1350=AXIS2_PLACEMENT_3D('',#1793,#1458,#1459);
#1351=AXIS2_PLACEMENT_3D('',#1795,#1461,#1462);
#1352=AXIS2_PLACEMENT_3D('',#1796,#1463,#1464);
#1353=AXIS2_PLACEMENT_3D('',#1797,#1465,#1466);
#1354=AXIS2_PLACEMENT_3D('',#1800,#1467,#1468);
#1355=AXIS2_PLACEMENT_3D('',#1803,#1470,#1471);
#1356=AXIS2_PLACEMENT_3D('',#1805,#1473,#1474);
#1357=AXIS2_PLACEMENT_3D('',#1806,#1475,#1476);
#1358=AXIS2_PLACEMENT_3D('',#1807,#1477,#1478);
#1359=AXIS2_PLACEMENT_3D('',#1813,#1482,#1483);
#1360=AXIS2_PLACEMENT_3D('',#1816,#1485,#1486);
#1361=AXIS2_PLACEMENT_3D('',#1817,#1487,#1488);
#1362=AXIS2_PLACEMENT_3D('',#1909,#1535,#1536);
#1363=AXIS2_PLACEMENT_3D('',#1912,#1538,#1539);
#1364=AXIS2_PLACEMENT_3D('',#1913,#1540,#1541);
#1365=AXIS2_PLACEMENT_3D('',#1917,#1544,#1545);
#1366=AXIS2_PLACEMENT_3D('',#1919,#1546,#1547);
#1367=AXIS2_PLACEMENT_3D('',#1922,#1549,#1550);
#1368=AXIS2_PLACEMENT_3D('',#1923,#1551,#1552);
#1369=AXIS2_PLACEMENT_3D('',#1924,#1553,#1554);
#1370=AXIS2_PLACEMENT_3D('',#1925,#1555,#1556);
#1371=AXIS2_PLACEMENT_3D('',#1927,#1558,#1559);
#1372=AXIS2_PLACEMENT_3D('',#1930,#1561,#1562);
#1373=AXIS2_PLACEMENT_3D('',#1931,#1563,#1564);
#1374=AXIS2_PLACEMENT_3D('',#1935,#1567,#1568);
#1375=AXIS2_PLACEMENT_3D('',#1936,#1569,#1570);
#1376=AXIS2_PLACEMENT_3D('',#1937,#1571,#1572);
#1377=AXIS2_PLACEMENT_3D('',#1938,#1573,#1574);
#1378=AXIS2_PLACEMENT_3D('',#1939,#1575,#1576);
#1379=AXIS2_PLACEMENT_3D('',#1945,#1580,#1581);
#1380=AXIS2_PLACEMENT_3D('',#1949,#1584,#1585);
#1381=AXIS2_PLACEMENT_3D('',#1953,#1588,#1589);
#1382=AXIS2_PLACEMENT_3D('',#1955,#1591,#1592);
#1383=AXIS2_PLACEMENT_3D('',#1961,#1596,#1597);
#1384=AXIS2_PLACEMENT_3D('',#1965,#1600,#1601);
#1385=AXIS2_PLACEMENT_3D('',#1969,#1604,#1605);
#1386=AXIS2_PLACEMENT_3D('',#1971,#1607,#1608);
#1387=AXIS2_PLACEMENT_3D('',#1977,#1612,#1613);
#1388=AXIS2_PLACEMENT_3D('',#1981,#1616,#1617);
#1389=AXIS2_PLACEMENT_3D('',#1985,#1620,#1621);
#1390=AXIS2_PLACEMENT_3D('',#1987,#1623,#1624);
#1391=AXIS2_PLACEMENT_3D('',#1993,#1628,#1629);
#1392=AXIS2_PLACEMENT_3D('',#1997,#1632,#1633);
#1393=AXIS2_PLACEMENT_3D('',#2001,#1636,#1637);
#1394=AXIS2_PLACEMENT_3D('',#2003,#1639,#1640);
#1395=AXIS2_PLACEMENT_3D('',#2009,#1644,#1645);
#1396=AXIS2_PLACEMENT_3D('',#2013,#1648,#1649);
#1397=AXIS2_PLACEMENT_3D('',#2017,#1652,#1653);
#1398=AXIS2_PLACEMENT_3D('',#2019,#1655,#1656);
#1399=AXIS2_PLACEMENT_3D('',#2025,#1660,#1661);
#1400=AXIS2_PLACEMENT_3D('',#2029,#1664,#1665);
#1401=AXIS2_PLACEMENT_3D('',#2033,#1668,#1669);
#1402=AXIS2_PLACEMENT_3D('',#2035,#1671,#1672);
#1403=AXIS2_PLACEMENT_3D('',#2041,#1676,#1677);
#1404=AXIS2_PLACEMENT_3D('',#2045,#1680,#1681);
#1405=AXIS2_PLACEMENT_3D('',#2049,#1684,#1685);
#1406=AXIS2_PLACEMENT_3D('',#2051,#1687,#1688);
#1407=AXIS2_PLACEMENT_3D('',#2057,#1692,#1693);
#1408=AXIS2_PLACEMENT_3D('',#2061,#1696,#1697);
#1409=AXIS2_PLACEMENT_3D('',#2065,#1700,#1701);
#1410=AXIS2_PLACEMENT_3D('',#2067,#1703,#1704);
#1411=AXIS2_PLACEMENT_3D('',#2073,#1708,#1709);
#1412=AXIS2_PLACEMENT_3D('',#2077,#1712,#1713);
#1413=AXIS2_PLACEMENT_3D('',#2081,#1716,#1717);
#1414=AXIS2_PLACEMENT_3D('',#2083,#1719,#1720);
#1415=AXIS2_PLACEMENT_3D('',#2089,#1724,#1725);
#1416=AXIS2_PLACEMENT_3D('',#2093,#1728,#1729);
#1417=AXIS2_PLACEMENT_3D('',#2097,#1732,#1733);
#1418=AXIS2_PLACEMENT_3D('',#2099,#1735,#1736);
#1419=AXIS2_PLACEMENT_3D('',#2105,#1740,#1741);
#1420=AXIS2_PLACEMENT_3D('',#2109,#1744,#1745);
#1421=AXIS2_PLACEMENT_3D('',#2113,#1748,#1749);
#1422=AXIS2_PLACEMENT_3D('',#2115,#1751,#1752);
#1423=DIRECTION('axis',(0.,0.,1.));
#1424=DIRECTION('refdir',(1.,0.,0.));
#1425=DIRECTION('center_axis',(1.,0.,0.));
#1426=DIRECTION('ref_axis',(0.,-1.,0.));
#1427=DIRECTION('',(0.,-1.,0.));
#1428=DIRECTION('',(0.,0.,-1.));
#1429=DIRECTION('',(0.,1.,0.));
#1430=DIRECTION('',(0.,0.,-1.));
#1431=DIRECTION('center_axis',(0.,-1.,0.));
#1432=DIRECTION('ref_axis',(-1.,0.,0.));
#1433=DIRECTION('',(-1.,0.,0.));
#1434=DIRECTION('',(1.,0.,0.));
#1435=DIRECTION('',(0.,0.,-1.));
#1436=DIRECTION('center_axis',(0.,1.,0.));
#1437=DIRECTION('ref_axis',(1.,0.,0.));
#1438=DIRECTION('',(1.,0.,0.));
#1439=DIRECTION('',(0.,0.,-1.));
#1440=DIRECTION('',(-1.,0.,0.));
#1441=DIRECTION('center_axis',(-1.,0.,0.));
#1442=DIRECTION('ref_axis',(0.,1.,0.));
#1443=DIRECTION('',(0.,1.,0.));
#1444=DIRECTION('',(0.,-1.,0.));
#1445=DIRECTION('center_axis',(0.,0.,1.));
#1446=DIRECTION('ref_axis',(0.707106781186544,0.707106781186551,0.));
#1447=DIRECTION('center_axis',(0.,0.,1.));
#1448=DIRECTION('ref_axis',(0.707106781186544,0.707106781186551,0.));
#1449=DIRECTION('',(0.,0.,1.));
#1450=DIRECTION('center_axis',(0.,0.,-1.));
#1451=DIRECTION('ref_axis',(0.,1.,0.));
#1452=DIRECTION('',(0.,0.,-1.));
#1453=DIRECTION('center_axis',(-1.,0.,0.));
#1454=DIRECTION('ref_axis',(0.,0.70710678118655,0.707106781186545));
#1455=DIRECTION('center_axis',(-1.,0.,0.));
#1456=DIRECTION('ref_axis',(0.,0.,1.));
#1457=DIRECTION('',(-1.,0.,0.));
#1458=DIRECTION('center_axis',(1.,0.,0.));
#1459=DIRECTION('ref_axis',(0.,1.,0.));
#1460=DIRECTION('',(1.,0.,0.));
#1461=DIRECTION('center_axis',(-0.816496580927726,0.408248290463863,0.408248290463862));
#1462=DIRECTION('ref_axis',(0.577350269189623,0.577350269189627,0.577350269189627));
#1463=DIRECTION('center_axis',(0.,1.,0.));
#1464=DIRECTION('ref_axis',(0.707106781186546,0.,0.707106781186549));
#1465=DIRECTION('center_axis',(0.,0.,1.));
#1466=DIRECTION('ref_axis',(-0.707106781186551,0.707106781186544,0.));
#1467=DIRECTION('center_axis',(0.,0.,1.));
#1468=DIRECTION('ref_axis',(-0.707106781186551,0.707106781186544,0.));
#1469=DIRECTION('',(0.,0.,1.));
#1470=DIRECTION('center_axis',(0.,0.,-1.));
#1471=DIRECTION('ref_axis',(-1.,0.,0.));
#1472=DIRECTION('',(0.,0.,-1.));
#1473=DIRECTION('center_axis',(-0.816496580927727,-0.408248290463863,-0.408248290463862));
#1474=DIRECTION('ref_axis',(-0.577350269189626,0.577350269189626,0.577350269189625));
#1475=DIRECTION('center_axis',(0.,1.,0.));
#1476=DIRECTION('ref_axis',(-0.70710678118655,0.,0.707106781186545));
#1477=DIRECTION('center_axis',(1.,0.,0.));
#1478=DIRECTION('ref_axis',(0.,1.,0.));
#1479=DIRECTION('',(0.,1.,0.));
#1480=DIRECTION('',(0.,0.,1.));
#1481=DIRECTION('',(0.,-1.,0.));
#1482=DIRECTION('center_axis',(0.,1.,0.));
#1483=DIRECTION('ref_axis',(0.707106781186547,0.,0.707106781186548));
#1484=DIRECTION('',(0.,-1.,0.));
#1485=DIRECTION('center_axis',(0.,-1.,0.));
#1486=DIRECTION('ref_axis',(0.707106781186546,0.,0.707106781186549));
#1487=DIRECTION('center_axis',(0.,0.,1.));
#1488=DIRECTION('ref_axis',(1.,0.,0.));
#1489=DIRECTION('',(0.,1.,0.));
#1490=DIRECTION('',(-1.,0.,0.));
#1491=DIRECTION('',(0.,-1.,0.));
#1492=DIRECTION('',(-1.,0.,0.));
#1493=DIRECTION('',(0.,1.,0.));
#1494=DIRECTION('',(1.,0.,0.));
#1495=DIRECTION('',(-1.,0.,0.));
#1496=DIRECTION('',(0.,1.,0.));
#1497=DIRECTION('',(1.,0.,0.));
#1498=DIRECTION('',(0.,-1.,0.));
#1499=DIRECTION('',(0.,-1.,0.));
#1500=DIRECTION('',(-1.,0.,0.));
#1501=DIRECTION('',(0.,1.,0.));
#1502=DIRECTION('',(1.,0.,0.));
#1503=DIRECTION('',(-1.,0.,0.));
#1504=DIRECTION('',(0.,1.,0.));
#1505=DIRECTION('',(1.,0.,0.));
#1506=DIRECTION('',(0.,-1.,0.));
#1507=DIRECTION('',(0.,-1.,0.));
#1508=DIRECTION('',(-1.,0.,0.));
#1509=DIRECTION('',(0.,1.,0.));
#1510=DIRECTION('',(1.,0.,0.));
#1511=DIRECTION('',(0.,-1.,0.));
#1512=DIRECTION('',(-1.,0.,0.));
#1513=DIRECTION('',(0.,1.,0.));
#1514=DIRECTION('',(1.,0.,0.));
#1515=DIRECTION('',(-1.,0.,0.));
#1516=DIRECTION('',(0.,1.,0.));
#1517=DIRECTION('',(1.,0.,0.));
#1518=DIRECTION('',(0.,-1.,0.));
#1519=DIRECTION('',(0.,-1.,0.));
#1520=DIRECTION('',(-1.,0.,0.));
#1521=DIRECTION('',(0.,1.,0.));
#1522=DIRECTION('',(1.,0.,0.));
#1523=DIRECTION('',(-1.,0.,0.));
#1524=DIRECTION('',(0.,1.,0.));
#1525=DIRECTION('',(1.,0.,0.));
#1526=DIRECTION('',(0.,-1.,0.));
#1527=DIRECTION('',(-1.,0.,0.));
#1528=DIRECTION('',(0.,1.,0.));
#1529=DIRECTION('',(1.,0.,0.));
#1530=DIRECTION('',(0.,-1.,0.));
#1531=DIRECTION('',(-1.,0.,0.));
#1532=DIRECTION('',(0.,1.,0.));
#1533=DIRECTION('',(1.,0.,0.));
#1534=DIRECTION('',(0.,-1.,0.));
#1535=DIRECTION('center_axis',(0.,-1.,0.));
#1536=DIRECTION('ref_axis',(-0.70710678118655,0.,0.707106781186545));
#1537=DIRECTION('',(0.,-1.,0.));
#1538=DIRECTION('center_axis',(0.,1.,0.));
#1539=DIRECTION('ref_axis',(-1.,0.,0.));
#1540=DIRECTION('center_axis',(-1.,0.,0.));
#1541=DIRECTION('ref_axis',(0.,-1.,0.));
#1542=DIRECTION('',(0.,1.,0.));
#1543=DIRECTION('',(0.,0.,-1.));
#1544=DIRECTION('center_axis',(0.,0.,1.));
#1545=DIRECTION('ref_axis',(-0.707106781186548,-0.707106781186548,0.));
#1546=DIRECTION('center_axis',(0.,0.,1.));
#1547=DIRECTION('ref_axis',(-0.707106781186548,-0.707106781186548,0.));
#1548=DIRECTION('',(0.,0.,1.));
#1549=DIRECTION('center_axis',(0.,0.,-1.));
#1550=DIRECTION('ref_axis',(0.,-1.,0.));
#1551=DIRECTION('center_axis',(-0.408248290463864,-0.40824829046386,-0.816496580927727));
#1552=DIRECTION('ref_axis',(-0.57735026918963,-0.577350269189623,0.577350269189625));
#1553=DIRECTION('center_axis',(-1.,0.,0.));
#1554=DIRECTION('ref_axis',(0.,-0.707106781186546,0.707106781186549));
#1555=DIRECTION('center_axis',(0.,1.,0.));
#1556=DIRECTION('ref_axis',(-1.,0.,0.));
#1557=DIRECTION('',(1.,0.,0.));
#1558=DIRECTION('center_axis',(1.,0.,0.));
#1559=DIRECTION('ref_axis',(0.,-0.707106781186547,0.707106781186548));
#1560=DIRECTION('',(1.,0.,0.));
#1561=DIRECTION('center_axis',(-1.,0.,0.));
#1562=DIRECTION('ref_axis',(0.,-1.,0.));
#1563=DIRECTION('center_axis',(0.,-1.,0.));
#1564=DIRECTION('ref_axis',(1.,0.,0.));
#1565=DIRECTION('',(-1.,0.,0.));
#1566=DIRECTION('',(0.,0.,-1.));
#1567=DIRECTION('center_axis',(0.,0.,1.));
#1568=DIRECTION('ref_axis',(0.707106781186548,-0.707106781186548,0.));
#1569=DIRECTION('center_axis',(0.,0.,1.));
#1570=DIRECTION('ref_axis',(0.707106781186548,-0.707106781186548,0.));
#1571=DIRECTION('center_axis',(0.,0.,-1.));
#1572=DIRECTION('ref_axis',(1.,0.,0.));
#1573=DIRECTION('center_axis',(-0.408248290463858,-0.81649658092773,-0.408248290463861));
#1574=DIRECTION('ref_axis',(0.577350269189624,-0.577350269189624,0.577350269189629));
#1575=DIRECTION('center_axis',(-1.,0.,0.));
#1576=DIRECTION('ref_axis',(0.,-1.,0.));
#1577=DIRECTION('',(0.,-1.,0.));
#1578=DIRECTION('',(0.,0.,1.));
#1579=DIRECTION('',(0.,0.,1.));
#1580=DIRECTION('center_axis',(0.,-1.,0.));
#1581=DIRECTION('ref_axis',(1.,0.,0.));
#1582=DIRECTION('',(1.,0.,0.));
#1583=DIRECTION('',(0.,0.,1.));
#1584=DIRECTION('center_axis',(1.,0.,0.));
#1585=DIRECTION('ref_axis',(0.,1.,0.));
#1586=DIRECTION('',(0.,1.,0.));
#1587=DIRECTION('',(0.,0.,1.));
#1588=DIRECTION('center_axis',(0.,1.,0.));
#1589=DIRECTION('ref_axis',(-1.,0.,0.));
#1590=DIRECTION('',(-1.,0.,0.));
#1591=DIRECTION('center_axis',(-1.,0.,0.));
#1592=DIRECTION('ref_axis',(0.,-1.,0.));
#1593=DIRECTION('',(0.,-1.,0.));
#1594=DIRECTION('',(0.,0.,1.));
#1595=DIRECTION('',(0.,0.,1.));
#1596=DIRECTION('center_axis',(0.,-1.,0.));
#1597=DIRECTION('ref_axis',(1.,0.,0.));
#1598=DIRECTION('',(1.,0.,0.));
#1599=DIRECTION('',(0.,0.,1.));
#1600=DIRECTION('center_axis',(1.,0.,0.));
#1601=DIRECTION('ref_axis',(0.,1.,0.));
#1602=DIRECTION('',(0.,1.,0.));
#1603=DIRECTION('',(0.,0.,1.));
#1604=DIRECTION('center_axis',(0.,1.,0.));
#1605=DIRECTION('ref_axis',(-1.,0.,0.));
#1606=DIRECTION('',(-1.,0.,0.));
#1607=DIRECTION('center_axis',(-1.,0.,0.));
#1608=DIRECTION('ref_axis',(0.,-1.,0.));
#1609=DIRECTION('',(0.,-1.,0.));
#1610=DIRECTION('',(0.,0.,1.));
#1611=DIRECTION('',(0.,0.,1.));
#1612=DIRECTION('center_axis',(0.,-1.,0.));
#1613=DIRECTION('ref_axis',(1.,0.,0.));
#1614=DIRECTION('',(1.,0.,0.));
#1615=DIRECTION('',(0.,0.,1.));
#1616=DIRECTION('center_axis',(1.,0.,0.));
#1617=DIRECTION('ref_axis',(0.,1.,0.));
#1618=DIRECTION('',(0.,1.,0.));
#1619=DIRECTION('',(0.,0.,1.));
#1620=DIRECTION('center_axis',(0.,1.,0.));
#1621=DIRECTION('ref_axis',(-1.,0.,0.));
#1622=DIRECTION('',(-1.,0.,0.));
#1623=DIRECTION('center_axis',(0.,-1.,0.));
#1624=DIRECTION('ref_axis',(1.,0.,0.));
#1625=DIRECTION('',(1.,0.,0.));
#1626=DIRECTION('',(0.,0.,1.));
#1627=DIRECTION('',(0.,0.,1.));
#1628=DIRECTION('center_axis',(1.,0.,0.));
#1629=DIRECTION('ref_axis',(0.,1.,0.));
#1630=DIRECTION('',(0.,1.,0.));
#1631=DIRECTION('',(0.,0.,1.));
#1632=DIRECTION('center_axis',(0.,1.,0.));
#1633=DIRECTION('ref_axis',(-1.,0.,0.));
#1634=DIRECTION('',(-1.,0.,0.));
#1635=DIRECTION('',(0.,0.,1.));
#1636=DIRECTION('center_axis',(-1.,0.,0.));
#1637=DIRECTION('ref_axis',(0.,-1.,0.));
#1638=DIRECTION('',(0.,-1.,0.));
#1639=DIRECTION('center_axis',(-1.,0.,0.));
#1640=DIRECTION('ref_axis',(0.,-1.,0.));
#1641=DIRECTION('',(0.,-1.,0.));
#1642=DIRECTION('',(0.,0.,1.));
#1643=DIRECTION('',(0.,0.,1.));
#1644=DIRECTION('center_axis',(0.,-1.,0.));
#1645=DIRECTION('ref_axis',(1.,0.,0.));
#1646=DIRECTION('',(1.,0.,0.));
#1647=DIRECTION('',(0.,0.,1.));
#1648=DIRECTION('center_axis',(1.,0.,0.));
#1649=DIRECTION('ref_axis',(0.,1.,0.));
#1650=DIRECTION('',(0.,1.,0.));
#1651=DIRECTION('',(0.,0.,1.));
#1652=DIRECTION('center_axis',(0.,1.,0.));
#1653=DIRECTION('ref_axis',(-1.,0.,0.));
#1654=DIRECTION('',(-1.,0.,0.));
#1655=DIRECTION('center_axis',(0.,-1.,0.));
#1656=DIRECTION('ref_axis',(1.,0.,0.));
#1657=DIRECTION('',(1.,0.,0.));
#1658=DIRECTION('',(0.,0.,1.));
#1659=DIRECTION('',(0.,0.,1.));
#1660=DIRECTION('center_axis',(1.,0.,0.));
#1661=DIRECTION('ref_axis',(0.,1.,0.));
#1662=DIRECTION('',(0.,1.,0.));
#1663=DIRECTION('',(0.,0.,1.));
#1664=DIRECTION('center_axis',(0.,1.,0.));
#1665=DIRECTION('ref_axis',(-1.,0.,0.));
#1666=DIRECTION('',(-1.,0.,0.));
#1667=DIRECTION('',(0.,0.,1.));
#1668=DIRECTION('center_axis',(-1.,0.,0.));
#1669=DIRECTION('ref_axis',(0.,-1.,0.));
#1670=DIRECTION('',(0.,-1.,0.));
#1671=DIRECTION('center_axis',(0.,-1.,0.));
#1672=DIRECTION('ref_axis',(1.,0.,0.));
#1673=DIRECTION('',(1.,0.,0.));
#1674=DIRECTION('',(0.,0.,1.));
#1675=DIRECTION('',(0.,0.,1.));
#1676=DIRECTION('center_axis',(1.,0.,0.));
#1677=DIRECTION('ref_axis',(0.,1.,0.));
#1678=DIRECTION('',(0.,1.,0.));
#1679=DIRECTION('',(0.,0.,1.));
#1680=DIRECTION('center_axis',(0.,1.,0.));
#1681=DIRECTION('ref_axis',(-1.,0.,0.));
#1682=DIRECTION('',(-1.,0.,0.));
#1683=DIRECTION('',(0.,0.,1.));
#1684=DIRECTION('center_axis',(-1.,0.,0.));
#1685=DIRECTION('ref_axis',(0.,-1.,0.));
#1686=DIRECTION('',(0.,-1.,0.));
#1687=DIRECTION('center_axis',(-1.,0.,0.));
#1688=DIRECTION('ref_axis',(0.,-1.,0.));
#1689=DIRECTION('',(0.,-1.,0.));
#1690=DIRECTION('',(0.,0.,1.));
#1691=DIRECTION('',(0.,0.,1.));
#1692=DIRECTION('center_axis',(0.,-1.,0.));
#1693=DIRECTION('ref_axis',(1.,0.,0.));
#1694=DIRECTION('',(1.,0.,0.));
#1695=DIRECTION('',(0.,0.,1.));
#1696=DIRECTION('center_axis',(1.,0.,0.));
#1697=DIRECTION('ref_axis',(0.,1.,0.));
#1698=DIRECTION('',(0.,1.,0.));
#1699=DIRECTION('',(0.,0.,1.));
#1700=DIRECTION('center_axis',(0.,1.,0.));
#1701=DIRECTION('ref_axis',(-1.,0.,0.));
#1702=DIRECTION('',(-1.,0.,0.));
#1703=DIRECTION('center_axis',(0.,-1.,0.));
#1704=DIRECTION('ref_axis',(1.,0.,0.));
#1705=DIRECTION('',(1.,0.,0.));
#1706=DIRECTION('',(0.,0.,1.));
#1707=DIRECTION('',(0.,0.,1.));
#1708=DIRECTION('center_axis',(1.,0.,0.));
#1709=DIRECTION('ref_axis',(0.,1.,0.));
#1710=DIRECTION('',(0.,1.,0.));
#1711=DIRECTION('',(0.,0.,1.));
#1712=DIRECTION('center_axis',(0.,1.,0.));
#1713=DIRECTION('ref_axis',(-1.,0.,0.));
#1714=DIRECTION('',(-1.,0.,0.));
#1715=DIRECTION('',(0.,0.,1.));
#1716=DIRECTION('center_axis',(-1.,0.,0.));
#1717=DIRECTION('ref_axis',(0.,-1.,0.));
#1718=DIRECTION('',(0.,-1.,0.));
#1719=DIRECTION('center_axis',(-1.,0.,0.));
#1720=DIRECTION('ref_axis',(0.,-1.,0.));
#1721=DIRECTION('',(0.,-1.,0.));
#1722=DIRECTION('',(0.,0.,1.));
#1723=DIRECTION('',(0.,0.,1.));
#1724=DIRECTION('center_axis',(0.,-1.,0.));
#1725=DIRECTION('ref_axis',(1.,0.,0.));
#1726=DIRECTION('',(1.,0.,0.));
#1727=DIRECTION('',(0.,0.,1.));
#1728=DIRECTION('center_axis',(1.,0.,0.));
#1729=DIRECTION('ref_axis',(0.,1.,0.));
#1730=DIRECTION('',(0.,1.,0.));
#1731=DIRECTION('',(0.,0.,1.));
#1732=DIRECTION('center_axis',(0.,1.,0.));
#1733=DIRECTION('ref_axis',(-1.,0.,0.));
#1734=DIRECTION('',(-1.,0.,0.));
#1735=DIRECTION('center_axis',(0.,-1.,0.));
#1736=DIRECTION('ref_axis',(1.,0.,0.));
#1737=DIRECTION('',(1.,0.,0.));
#1738=DIRECTION('',(0.,0.,1.));
#1739=DIRECTION('',(0.,0.,1.));
#1740=DIRECTION('center_axis',(1.,0.,0.));
#1741=DIRECTION('ref_axis',(0.,1.,0.));
#1742=DIRECTION('',(0.,1.,0.));
#1743=DIRECTION('',(0.,0.,1.));
#1744=DIRECTION('center_axis',(0.,1.,0.));
#1745=DIRECTION('ref_axis',(-1.,0.,0.));
#1746=DIRECTION('',(-1.,0.,0.));
#1747=DIRECTION('',(0.,0.,1.));
#1748=DIRECTION('center_axis',(-1.,0.,0.));
#1749=DIRECTION('ref_axis',(0.,-1.,0.));
#1750=DIRECTION('',(0.,-1.,0.));
#1751=DIRECTION('center_axis',(0.,0.,1.));
#1752=DIRECTION('ref_axis',(-1.,0.,0.));
#1753=CARTESIAN_POINT('',(0.,0.,0.));
#1754=CARTESIAN_POINT('Origin',(117.000001743436,-50.0000007450581,16.));
#1755=CARTESIAN_POINT('',(117.000001743436,-50.0000007450581,16.));
#1756=CARTESIAN_POINT('',(117.000001743436,-72.0000010728836,16.));
#1757=CARTESIAN_POINT('',(117.000001743436,-68.2500010170043,16.));
#1758=CARTESIAN_POINT('',(117.000001743436,-50.0000007450581,13.));
#1759=CARTESIAN_POINT('',(117.000001743436,-50.0000007450581,16.));
#1760=CARTESIAN_POINT('',(117.000001743436,-72.0000010728836,13.));
#1761=CARTESIAN_POINT('',(117.000001743436,-68.2500010170043,13.));
#1762=CARTESIAN_POINT('',(117.000001743436,-72.0000010728836,16.));
#1763=CARTESIAN_POINT('Origin',(111.000001654029,-72.0000010728836,19.));
#1764=CARTESIAN_POINT('',(95.0000014156103,-72.0000010728836,16.));
#1765=CARTESIAN_POINT('',(101.000001505017,-72.0000010728836,16.));
#1766=CARTESIAN_POINT('',(95.0000014156103,-72.0000010728836,13.));
#1767=CARTESIAN_POINT('',(101.000001505017,-72.0000010728836,13.));
#1768=CARTESIAN_POINT('',(95.0000014156103,-72.0000010728836,19.));
#1769=CARTESIAN_POINT('Origin',(95.0000014156103,-50.0000007450581,19.));
#1770=CARTESIAN_POINT('',(95.0000014156103,-50.0000007450581,16.));
#1771=CARTESIAN_POINT('',(98.0000014603138,-50.0000007450581,16.));
#1772=CARTESIAN_POINT('',(95.0000014156103,-50.0000007450581,13.));
#1773=CARTESIAN_POINT('',(95.0000014156103,-50.0000007450581,19.));
#1774=CARTESIAN_POINT('',(98.0000014603138,-50.0000007450581,13.));
#1775=CARTESIAN_POINT('Origin',(95.0000014156103,-72.0000010728836,19.));
#1776=CARTESIAN_POINT('',(95.0000014156103,-68.2500010170043,16.));
#1777=CARTESIAN_POINT('',(95.0000014156103,-79.250001180917,13.));
#1778=CARTESIAN_POINT('Origin',(118.000001788139,-42.0000005960464,13.));
#1779=CARTESIAN_POINT('',(120.000001788139,-42.0000005960464,13.));
#1780=CARTESIAN_POINT('',(118.000001788139,-40.0000005960464,13.));
#1781=CARTESIAN_POINT('Origin',(118.000001788139,-42.0000005960464,13.));
#1782=CARTESIAN_POINT('',(118.000001788139,-40.0000005960464,14.));
#1783=CARTESIAN_POINT('',(118.000001788139,-40.0000005960464,13.));
#1784=CARTESIAN_POINT('',(120.000001788139,-42.0000005960464,14.));
#1785=CARTESIAN_POINT('Origin',(118.000001788139,-42.0000005960464,14.));
#1786=CARTESIAN_POINT('',(120.000001788139,-42.0000005960464,13.));
#1787=CARTESIAN_POINT('Origin',(102.500001527369,-42.0000005960464,14.));
#1788=CARTESIAN_POINT('',(118.000001788139,-42.0000005960464,16.));
#1789=CARTESIAN_POINT('Origin',(118.000001788139,-42.0000005960464,14.));
#1790=CARTESIAN_POINT('',(52.0000007450581,-40.0000005960464,14.));
#1791=CARTESIAN_POINT('',(102.500001527369,-40.0000005960464,14.));
#1792=CARTESIAN_POINT('',(52.0000007450581,-42.0000005960464,16.));
#1793=CARTESIAN_POINT('Origin',(52.0000007450581,-42.0000005960464,14.));
#1794=CARTESIAN_POINT('',(102.500001527369,-42.0000005960464,16.));
#1795=CARTESIAN_POINT('Origin',(118.000001788139,-42.0000005960464,14.));
#1796=CARTESIAN_POINT('Origin',(118.000001788139,-42.0000005960464,14.));
#1797=CARTESIAN_POINT('Origin',(52.0000007450581,-42.0000005960464,13.));
#1798=CARTESIAN_POINT('',(52.0000007450581,-40.0000005960464,13.));
#1799=CARTESIAN_POINT('',(50.0000007450581,-42.0000005960464,13.));
#1800=CARTESIAN_POINT('Origin',(52.0000007450581,-42.0000005960464,13.));
#1801=CARTESIAN_POINT('',(50.0000007450581,-42.0000005960464,14.));
#1802=CARTESIAN_POINT('',(50.0000007450581,-42.0000005960464,13.));
#1803=CARTESIAN_POINT('Origin',(52.0000007450581,-42.0000005960464,14.));
#1804=CARTESIAN_POINT('',(52.0000007450581,-40.0000005960464,13.));
#1805=CARTESIAN_POINT('Origin',(52.0000007450581,-42.0000005960464,14.));
#1806=CARTESIAN_POINT('Origin',(52.0000007450581,-42.0000005960464,14.));
#1807=CARTESIAN_POINT('Origin',(120.000001788139,-133.000001981854,13.));
#1808=CARTESIAN_POINT('',(120.000001788139,-131.000001981854,14.));
#1809=CARTESIAN_POINT('',(120.000001788139,-109.750001635402,14.));
#1810=CARTESIAN_POINT('',(120.000001788139,-131.000001981854,13.));
#1811=CARTESIAN_POINT('',(120.000001788139,-131.000001981854,13.));
#1812=CARTESIAN_POINT('',(120.000001788139,-40.0000005960464,13.));
#1813=CARTESIAN_POINT('Origin',(118.000001788139,-109.750001635402,14.));
#1814=CARTESIAN_POINT('',(118.000001788139,-131.000001981854,16.));
#1815=CARTESIAN_POINT('',(118.000001788139,-109.750001635402,16.));
#1816=CARTESIAN_POINT('Origin',(118.000001788139,-131.000001981854,14.));
#1817=CARTESIAN_POINT('Origin',(85.0000012665987,-86.5000012889504,16.));
#1818=CARTESIAN_POINT('',(52.0000007450581,-131.000001981854,16.));
#1819=CARTESIAN_POINT('',(52.0000007450581,-63.2500009424984,16.));
#1820=CARTESIAN_POINT('',(67.5000010058284,-131.000001981854,16.));
#1821=CARTESIAN_POINT('',(93.000001385808,-94.0000014007092,16.));
#1822=CARTESIAN_POINT('',(93.000001385808,-109.000001400709,16.));
#1823=CARTESIAN_POINT('',(93.000001385808,-109.000001400709,16.));
#1824=CARTESIAN_POINT('',(78.000001385808,-109.000001400709,16.));
#1825=CARTESIAN_POINT('',(78.000001385808,-109.000001400709,16.));
#1826=CARTESIAN_POINT('',(78.000001385808,-94.0000014007092,16.));
#1827=CARTESIAN_POINT('',(78.000001385808,-94.0000014007092,16.));
#1828=CARTESIAN_POINT('',(93.000001385808,-94.0000014007092,16.));
#1829=CARTESIAN_POINT('',(111.000001430511,-109.000001400709,16.));
#1830=CARTESIAN_POINT('',(96.0000014305115,-109.000001400709,16.));
#1831=CARTESIAN_POINT('',(111.000001430511,-109.000001400709,16.));
#1832=CARTESIAN_POINT('',(96.0000014305115,-94.0000014007092,16.));
#1833=CARTESIAN_POINT('',(96.0000014305115,-109.000001400709,16.));
#1834=CARTESIAN_POINT('',(111.000001430511,-94.0000014007092,16.));
#1835=CARTESIAN_POINT('',(96.0000014305115,-94.0000014007092,16.));
#1836=CARTESIAN_POINT('',(111.000001430511,-94.0000014007092,16.));
#1837=CARTESIAN_POINT('',(93.000001385808,-111.000001654029,16.));
#1838=CARTESIAN_POINT('',(93.000001385808,-126.000001654029,16.));
#1839=CARTESIAN_POINT('',(93.000001385808,-126.000001654029,16.));
#1840=CARTESIAN_POINT('',(78.000001385808,-126.000001654029,16.));
#1841=CARTESIAN_POINT('',(78.000001385808,-126.000001654029,16.));
#1842=CARTESIAN_POINT('',(78.000001385808,-111.000001654029,16.));
#1843=CARTESIAN_POINT('',(78.000001385808,-111.000001654029,16.));
#1844=CARTESIAN_POINT('',(93.000001385808,-111.000001654029,16.));
#1845=CARTESIAN_POINT('',(93.000001385808,-92.0000013709068,16.));
#1846=CARTESIAN_POINT('',(78.0000011622906,-92.0000013709068,16.));
#1847=CARTESIAN_POINT('',(93.000001385808,-92.0000013709068,16.));
#1848=CARTESIAN_POINT('',(78.0000011622906,-77.0000011473894,16.));
#1849=CARTESIAN_POINT('',(78.0000011622906,-92.0000013709068,16.));
#1850=CARTESIAN_POINT('',(93.000001385808,-77.0000011473894,16.));
#1851=CARTESIAN_POINT('',(78.0000011622906,-77.0000011473894,16.));
#1852=CARTESIAN_POINT('',(93.000001385808,-77.0000011473894,16.));
#1853=CARTESIAN_POINT('',(75.0000011175871,-94.0000014007092,16.));
#1854=CARTESIAN_POINT('',(75.0000011175871,-109.000001400709,16.));
#1855=CARTESIAN_POINT('',(75.0000011175871,-109.000001400709,16.));
#1856=CARTESIAN_POINT('',(60.0000011175871,-109.000001400709,16.));
#1857=CARTESIAN_POINT('',(60.0000011175871,-109.000001400709,16.));
#1858=CARTESIAN_POINT('',(60.0000011175871,-94.0000014007092,16.));
#1859=CARTESIAN_POINT('',(60.0000011175871,-94.0000014007092,16.));
#1860=CARTESIAN_POINT('',(75.0000011175871,-94.0000014007092,16.));
#1861=CARTESIAN_POINT('',(75.0000011175871,-111.000001654029,16.));
#1862=CARTESIAN_POINT('',(75.0000011175871,-126.000001654029,16.));
#1863=CARTESIAN_POINT('',(75.0000011175871,-126.000001654029,16.));
#1864=CARTESIAN_POINT('',(60.0000011175871,-126.000001654029,16.));
#1865=CARTESIAN_POINT('',(60.0000011175871,-126.000001654029,16.));
#1866=CARTESIAN_POINT('',(60.0000011175871,-111.000001654029,16.));
#1867=CARTESIAN_POINT('',(60.0000011175871,-111.000001654029,16.));
#1868=CARTESIAN_POINT('',(75.0000011175871,-111.000001654029,16.));
#1869=CARTESIAN_POINT('',(88.0000011920929,-72.0000009536743,16.));
#1870=CARTESIAN_POINT('',(80.0000011920929,-72.0000009536743,16.));
#1871=CARTESIAN_POINT('',(88.0000011920929,-72.0000009536743,16.));
#1872=CARTESIAN_POINT('',(80.0000011920929,-64.0000009536743,16.));
#1873=CARTESIAN_POINT('',(80.0000011920929,-72.0000009536743,16.));
#1874=CARTESIAN_POINT('',(88.0000011920929,-64.0000009536743,16.));
#1875=CARTESIAN_POINT('',(80.0000011920929,-64.0000009536743,16.));
#1876=CARTESIAN_POINT('',(88.0000011920929,-64.0000009536743,16.));
#1877=CARTESIAN_POINT('',(111.000001654029,-111.000001654029,16.));
#1878=CARTESIAN_POINT('',(111.000001654029,-126.000001654029,16.));
#1879=CARTESIAN_POINT('',(111.000001654029,-126.000001654029,16.));
#1880=CARTESIAN_POINT('',(96.0000016540289,-126.000001654029,16.));
#1881=CARTESIAN_POINT('',(96.0000016540289,-126.000001654029,16.));
#1882=CARTESIAN_POINT('',(96.0000016540289,-111.000001654029,16.));
#1883=CARTESIAN_POINT('',(96.0000016540289,-111.000001654029,16.));
#1884=CARTESIAN_POINT('',(111.000001654029,-111.000001654029,16.));
#1885=CARTESIAN_POINT('',(111.000001654029,-92.0000013709068,16.));
#1886=CARTESIAN_POINT('',(96.0000014305115,-92.0000013709068,16.));
#1887=CARTESIAN_POINT('',(111.000001654029,-92.0000013709068,16.));
#1888=CARTESIAN_POINT('',(96.0000014305115,-77.0000011473894,16.));
#1889=CARTESIAN_POINT('',(96.0000014305115,-92.0000013709068,16.));
#1890=CARTESIAN_POINT('',(111.000001654029,-77.0000011473894,16.));
#1891=CARTESIAN_POINT('',(96.0000014305115,-77.0000011473894,16.));
#1892=CARTESIAN_POINT('',(111.000001654029,-77.0000011473894,16.));
#1893=CARTESIAN_POINT('',(71.0000010579824,-72.0000010728836,16.));
#1894=CARTESIAN_POINT('',(63.0000009387732,-72.0000010728836,16.));
#1895=CARTESIAN_POINT('',(71.0000010579824,-72.0000010728836,16.));
#1896=CARTESIAN_POINT('',(63.0000009387732,-64.0000009536743,16.));
#1897=CARTESIAN_POINT('',(63.0000009387732,-72.0000010728836,16.));
#1898=CARTESIAN_POINT('',(71.0000010579824,-64.0000009536743,16.));
#1899=CARTESIAN_POINT('',(63.0000009387732,-64.0000009536743,16.));
#1900=CARTESIAN_POINT('',(71.0000010579824,-64.0000009536743,16.));
#1901=CARTESIAN_POINT('',(75.0000011175871,-92.0000013709068,16.));
#1902=CARTESIAN_POINT('',(60.0000008940697,-92.0000013709068,16.));
#1903=CARTESIAN_POINT('',(75.0000011175871,-92.0000013709068,16.));
#1904=CARTESIAN_POINT('',(60.0000008940697,-77.0000011473894,16.));
#1905=CARTESIAN_POINT('',(60.0000008940697,-92.0000013709068,16.));
#1906=CARTESIAN_POINT('',(75.0000011175871,-77.0000011473894,16.));
#1907=CARTESIAN_POINT('',(60.0000008940697,-77.0000011473894,16.));
#1908=CARTESIAN_POINT('',(75.0000011175871,-77.0000011473894,16.));
#1909=CARTESIAN_POINT('Origin',(52.0000007450581,-63.2500009424984,14.));
#1910=CARTESIAN_POINT('',(50.0000007450581,-131.000001981854,14.));
#1911=CARTESIAN_POINT('',(50.0000007450581,-63.2500009424984,14.));
#1912=CARTESIAN_POINT('Origin',(52.0000007450581,-131.000001981854,14.));
#1913=CARTESIAN_POINT('Origin',(50.0000007450581,-40.0000005960464,13.));
#1914=CARTESIAN_POINT('',(50.0000007450581,-131.000001981854,13.));
#1915=CARTESIAN_POINT('',(50.0000007450581,-133.000001981854,13.));
#1916=CARTESIAN_POINT('',(50.0000007450581,-131.000001981854,13.));
#1917=CARTESIAN_POINT('Origin',(52.0000007450581,-131.000001981854,13.));
#1918=CARTESIAN_POINT('',(52.0000007450581,-133.000001981854,13.));
#1919=CARTESIAN_POINT('Origin',(52.0000007450581,-131.000001981854,13.));
#1920=CARTESIAN_POINT('',(52.0000007450581,-133.000001981854,14.));
#1921=CARTESIAN_POINT('',(52.0000007450581,-133.000001981854,13.));
#1922=CARTESIAN_POINT('Origin',(52.0000007450581,-131.000001981854,14.));
#1923=CARTESIAN_POINT('Origin',(52.0000007450581,-131.000001981854,14.));
#1924=CARTESIAN_POINT('Origin',(52.0000007450581,-131.000001981854,14.));
#1925=CARTESIAN_POINT('Origin',(120.000001788139,-40.0000005960464,13.));
#1926=CARTESIAN_POINT('',(50.0000007450581,-40.0000005960464,13.));
#1927=CARTESIAN_POINT('Origin',(67.5000010058284,-131.000001981854,14.));
#1928=CARTESIAN_POINT('',(118.000001788139,-133.000001981854,14.));
#1929=CARTESIAN_POINT('',(67.5000010058284,-133.000001981854,14.));
#1930=CARTESIAN_POINT('Origin',(118.000001788139,-131.000001981854,14.));
#1931=CARTESIAN_POINT('Origin',(50.0000007450581,-133.000001981854,13.));
#1932=CARTESIAN_POINT('',(118.000001788139,-133.000001981854,13.));
#1933=CARTESIAN_POINT('',(120.000001788139,-133.000001981854,13.));
#1934=CARTESIAN_POINT('',(118.000001788139,-133.000001981854,13.));
#1935=CARTESIAN_POINT('Origin',(118.000001788139,-131.000001981854,13.));
#1936=CARTESIAN_POINT('Origin',(118.000001788139,-131.000001981854,13.));
#1937=CARTESIAN_POINT('Origin',(118.000001788139,-131.000001981854,14.));
#1938=CARTESIAN_POINT('Origin',(118.000001788139,-131.000001981854,14.));
#1939=CARTESIAN_POINT('Origin',(75.0000011175871,-77.0000011473894,13.));
#1940=CARTESIAN_POINT('',(75.0000011175871,-77.0000011473894,13.));
#1941=CARTESIAN_POINT('',(75.0000011175871,-92.0000013709068,13.));
#1942=CARTESIAN_POINT('',(75.0000011175871,-77.0000011473894,13.));
#1943=CARTESIAN_POINT('',(75.0000011175871,-92.0000013709068,13.));
#1944=CARTESIAN_POINT('',(75.0000011175871,-77.0000011473894,13.));
#1945=CARTESIAN_POINT('Origin',(60.0000008940697,-77.0000011473894,13.));
#1946=CARTESIAN_POINT('',(60.0000008940697,-77.0000011473894,13.));
#1947=CARTESIAN_POINT('',(60.0000008940697,-77.0000011473894,13.));
#1948=CARTESIAN_POINT('',(60.0000008940697,-77.0000011473894,13.));
#1949=CARTESIAN_POINT('Origin',(60.0000008940697,-92.0000013709068,13.));
#1950=CARTESIAN_POINT('',(60.0000008940697,-92.0000013709068,13.));
#1951=CARTESIAN_POINT('',(60.0000008940697,-92.0000013709068,13.));
#1952=CARTESIAN_POINT('',(60.0000008940697,-92.0000013709068,13.));
#1953=CARTESIAN_POINT('Origin',(75.0000011175871,-92.0000013709068,13.));
#1954=CARTESIAN_POINT('',(75.0000011175871,-92.0000013709068,13.));
#1955=CARTESIAN_POINT('Origin',(71.0000010579824,-64.0000009536743,13.));
#1956=CARTESIAN_POINT('',(71.0000010579824,-64.0000009536743,13.));
#1957=CARTESIAN_POINT('',(71.0000010579824,-72.0000010728836,13.));
#1958=CARTESIAN_POINT('',(71.0000010579824,-64.0000009536743,13.));
#1959=CARTESIAN_POINT('',(71.0000010579824,-72.0000010728836,13.));
#1960=CARTESIAN_POINT('',(71.0000010579824,-64.0000009536743,13.));
#1961=CARTESIAN_POINT('Origin',(63.0000009387732,-64.0000009536743,13.));
#1962=CARTESIAN_POINT('',(63.0000009387732,-64.0000009536743,13.));
#1963=CARTESIAN_POINT('',(63.0000009387732,-64.0000009536743,13.));
#1964=CARTESIAN_POINT('',(63.0000009387732,-64.0000009536743,13.));
#1965=CARTESIAN_POINT('Origin',(63.0000009387732,-72.0000010728836,13.));
#1966=CARTESIAN_POINT('',(63.0000009387732,-72.0000010728836,13.));
#1967=CARTESIAN_POINT('',(63.0000009387732,-72.0000010728836,13.));
#1968=CARTESIAN_POINT('',(63.0000009387732,-72.0000010728836,13.));
#1969=CARTESIAN_POINT('Origin',(71.0000010579824,-72.0000010728836,13.));
#1970=CARTESIAN_POINT('',(71.0000010579824,-72.0000010728836,13.));
#1971=CARTESIAN_POINT('Origin',(111.000001654029,-77.0000011473894,13.));
#1972=CARTESIAN_POINT('',(111.000001654029,-77.0000011473894,13.));
#1973=CARTESIAN_POINT('',(111.000001654029,-92.0000013709068,13.));
#1974=CARTESIAN_POINT('',(111.000001654029,-77.0000011473894,13.));
#1975=CARTESIAN_POINT('',(111.000001654029,-92.0000013709068,13.));
#1976=CARTESIAN_POINT('',(111.000001654029,-77.0000011473894,13.));
#1977=CARTESIAN_POINT('Origin',(96.0000014305115,-77.0000011473894,13.));
#1978=CARTESIAN_POINT('',(96.0000014305115,-77.0000011473894,13.));
#1979=CARTESIAN_POINT('',(96.0000014305115,-77.0000011473894,13.));
#1980=CARTESIAN_POINT('',(96.0000014305115,-77.0000011473894,13.));
#1981=CARTESIAN_POINT('Origin',(96.0000014305115,-92.0000013709068,13.));
#1982=CARTESIAN_POINT('',(96.0000014305115,-92.0000013709068,13.));
#1983=CARTESIAN_POINT('',(96.0000014305115,-92.0000013709068,13.));
#1984=CARTESIAN_POINT('',(96.0000014305115,-92.0000013709068,13.));
#1985=CARTESIAN_POINT('Origin',(111.000001654029,-92.0000013709068,13.));
#1986=CARTESIAN_POINT('',(111.000001654029,-92.0000013709068,13.));
#1987=CARTESIAN_POINT('Origin',(96.0000016540289,-111.000001654029,13.));
#1988=CARTESIAN_POINT('',(96.0000016540289,-111.000001654029,13.));
#1989=CARTESIAN_POINT('',(111.000001654029,-111.000001654029,13.));
#1990=CARTESIAN_POINT('',(111.000001654029,-111.000001654029,13.));
#1991=CARTESIAN_POINT('',(111.000001654029,-111.000001654029,13.));
#1992=CARTESIAN_POINT('',(96.0000016540289,-111.000001654029,13.));
#1993=CARTESIAN_POINT('Origin',(96.0000016540289,-126.000001654029,13.));
#1994=CARTESIAN_POINT('',(96.0000016540289,-126.000001654029,13.));
#1995=CARTESIAN_POINT('',(96.0000016540289,-111.000001654029,13.));
#1996=CARTESIAN_POINT('',(96.0000016540289,-126.000001654029,13.));
#1997=CARTESIAN_POINT('Origin',(111.000001654029,-126.000001654029,13.));
#1998=CARTESIAN_POINT('',(111.000001654029,-126.000001654029,13.));
#1999=CARTESIAN_POINT('',(96.0000016540289,-126.000001654029,13.));
#2000=CARTESIAN_POINT('',(111.000001654029,-126.000001654029,13.));
#2001=CARTESIAN_POINT('Origin',(111.000001654029,-111.000001654029,13.));
#2002=CARTESIAN_POINT('',(111.000001654029,-126.000001654029,13.));
#2003=CARTESIAN_POINT('Origin',(88.0000011920929,-64.0000009536743,13.));
#2004=CARTESIAN_POINT('',(88.0000011920929,-64.0000009536743,13.));
#2005=CARTESIAN_POINT('',(88.0000011920929,-72.0000009536743,13.));
#2006=CARTESIAN_POINT('',(88.0000011920929,-64.0000009536743,13.));
#2007=CARTESIAN_POINT('',(88.0000011920929,-72.0000009536743,13.));
#2008=CARTESIAN_POINT('',(88.0000011920929,-64.0000009536743,13.));
#2009=CARTESIAN_POINT('Origin',(80.0000011920929,-64.0000009536743,13.));
#2010=CARTESIAN_POINT('',(80.0000011920929,-64.0000009536743,13.));
#2011=CARTESIAN_POINT('',(80.0000011920929,-64.0000009536743,13.));
#2012=CARTESIAN_POINT('',(80.0000011920929,-64.0000009536743,13.));
#2013=CARTESIAN_POINT('Origin',(80.0000011920929,-72.0000009536743,13.));
#2014=CARTESIAN_POINT('',(80.0000011920929,-72.0000009536743,13.));
#2015=CARTESIAN_POINT('',(80.0000011920929,-72.0000009536743,13.));
#2016=CARTESIAN_POINT('',(80.0000011920929,-72.0000009536743,13.));
#2017=CARTESIAN_POINT('Origin',(88.0000011920929,-72.0000009536743,13.));
#2018=CARTESIAN_POINT('',(88.0000011920929,-72.0000009536743,13.));
#2019=CARTESIAN_POINT('Origin',(60.0000011175871,-111.000001654029,13.));
#2020=CARTESIAN_POINT('',(60.0000011175871,-111.000001654029,13.));
#2021=CARTESIAN_POINT('',(75.0000011175871,-111.000001654029,13.));
#2022=CARTESIAN_POINT('',(75.0000011175871,-111.000001654029,13.));
#2023=CARTESIAN_POINT('',(75.0000011175871,-111.000001654029,13.));
#2024=CARTESIAN_POINT('',(60.0000011175871,-111.000001654029,13.));
#2025=CARTESIAN_POINT('Origin',(60.0000011175871,-126.000001654029,13.));
#2026=CARTESIAN_POINT('',(60.0000011175871,-126.000001654029,13.));
#2027=CARTESIAN_POINT('',(60.0000011175871,-111.000001654029,13.));
#2028=CARTESIAN_POINT('',(60.0000011175871,-126.000001654029,13.));
#2029=CARTESIAN_POINT('Origin',(75.0000011175871,-126.000001654029,13.));
#2030=CARTESIAN_POINT('',(75.0000011175871,-126.000001654029,13.));
#2031=CARTESIAN_POINT('',(60.0000011175871,-126.000001654029,13.));
#2032=CARTESIAN_POINT('',(75.0000011175871,-126.000001654029,13.));
#2033=CARTESIAN_POINT('Origin',(75.0000011175871,-111.000001654029,13.));
#2034=CARTESIAN_POINT('',(75.0000011175871,-126.000001654029,13.));
#2035=CARTESIAN_POINT('Origin',(60.0000011175871,-94.0000014007092,13.));
#2036=CARTESIAN_POINT('',(60.0000011175871,-94.0000014007092,13.));
#2037=CARTESIAN_POINT('',(75.0000011175871,-94.0000014007092,13.));
#2038=CARTESIAN_POINT('',(75.0000011175871,-94.0000014007092,13.));
#2039=CARTESIAN_POINT('',(75.0000011175871,-94.0000014007092,13.));
#2040=CARTESIAN_POINT('',(60.0000011175871,-94.0000014007092,13.));
#2041=CARTESIAN_POINT('Origin',(60.0000011175871,-109.000001400709,13.));
#2042=CARTESIAN_POINT('',(60.0000011175871,-109.000001400709,13.));
#2043=CARTESIAN_POINT('',(60.0000011175871,-94.0000014007092,13.));
#2044=CARTESIAN_POINT('',(60.0000011175871,-109.000001400709,13.));
#2045=CARTESIAN_POINT('Origin',(75.0000011175871,-109.000001400709,13.));
#2046=CARTESIAN_POINT('',(75.0000011175871,-109.000001400709,13.));
#2047=CARTESIAN_POINT('',(60.0000011175871,-109.000001400709,13.));
#2048=CARTESIAN_POINT('',(75.0000011175871,-109.000001400709,13.));
#2049=CARTESIAN_POINT('Origin',(75.0000011175871,-94.0000014007092,13.));
#2050=CARTESIAN_POINT('',(75.0000011175871,-109.000001400709,13.));
#2051=CARTESIAN_POINT('Origin',(93.000001385808,-77.0000011473894,13.));
#2052=CARTESIAN_POINT('',(93.000001385808,-77.0000011473894,13.));
#2053=CARTESIAN_POINT('',(93.000001385808,-92.0000013709068,13.));
#2054=CARTESIAN_POINT('',(93.000001385808,-77.0000011473894,13.));
#2055=CARTESIAN_POINT('',(93.000001385808,-92.0000013709068,13.));
#2056=CARTESIAN_POINT('',(93.000001385808,-77.0000011473894,13.));
#2057=CARTESIAN_POINT('Origin',(78.0000011622906,-77.0000011473894,13.));
#2058=CARTESIAN_POINT('',(78.0000011622906,-77.0000011473894,13.));
#2059=CARTESIAN_POINT('',(78.0000011622906,-77.0000011473894,13.));
#2060=CARTESIAN_POINT('',(78.0000011622906,-77.0000011473894,13.));
#2061=CARTESIAN_POINT('Origin',(78.0000011622906,-92.0000013709068,13.));
#2062=CARTESIAN_POINT('',(78.0000011622906,-92.0000013709068,13.));
#2063=CARTESIAN_POINT('',(78.0000011622906,-92.0000013709068,13.));
#2064=CARTESIAN_POINT('',(78.0000011622906,-92.0000013709068,13.));
#2065=CARTESIAN_POINT('Origin',(93.000001385808,-92.0000013709068,13.));
#2066=CARTESIAN_POINT('',(93.000001385808,-92.0000013709068,13.));
#2067=CARTESIAN_POINT('Origin',(78.000001385808,-111.000001654029,13.));
#2068=CARTESIAN_POINT('',(78.000001385808,-111.000001654029,13.));
#2069=CARTESIAN_POINT('',(93.000001385808,-111.000001654029,13.));
#2070=CARTESIAN_POINT('',(93.000001385808,-111.000001654029,13.));
#2071=CARTESIAN_POINT('',(93.000001385808,-111.000001654029,13.));
#2072=CARTESIAN_POINT('',(78.000001385808,-111.000001654029,13.));
#2073=CARTESIAN_POINT('Origin',(78.000001385808,-126.000001654029,13.));
#2074=CARTESIAN_POINT('',(78.000001385808,-126.000001654029,13.));
#2075=CARTESIAN_POINT('',(78.000001385808,-111.000001654029,13.));
#2076=CARTESIAN_POINT('',(78.000001385808,-126.000001654029,13.));
#2077=CARTESIAN_POINT('Origin',(93.000001385808,-126.000001654029,13.));
#2078=CARTESIAN_POINT('',(93.000001385808,-126.000001654029,13.));
#2079=CARTESIAN_POINT('',(78.000001385808,-126.000001654029,13.));
#2080=CARTESIAN_POINT('',(93.000001385808,-126.000001654029,13.));
#2081=CARTESIAN_POINT('Origin',(93.000001385808,-111.000001654029,13.));
#2082=CARTESIAN_POINT('',(93.000001385808,-126.000001654029,13.));
#2083=CARTESIAN_POINT('Origin',(111.000001430511,-94.0000014007092,13.));
#2084=CARTESIAN_POINT('',(111.000001430511,-94.0000014007092,13.));
#2085=CARTESIAN_POINT('',(111.000001430511,-109.000001400709,13.));
#2086=CARTESIAN_POINT('',(111.000001430511,-94.0000014007092,13.));
#2087=CARTESIAN_POINT('',(111.000001430511,-109.000001400709,13.));
#2088=CARTESIAN_POINT('',(111.000001430511,-94.0000014007092,13.));
#2089=CARTESIAN_POINT('Origin',(96.0000014305115,-94.0000014007092,13.));
#2090=CARTESIAN_POINT('',(96.0000014305115,-94.0000014007092,13.));
#2091=CARTESIAN_POINT('',(96.0000014305115,-94.0000014007092,13.));
#2092=CARTESIAN_POINT('',(96.0000014305115,-94.0000014007092,13.));
#2093=CARTESIAN_POINT('Origin',(96.0000014305115,-109.000001400709,13.));
#2094=CARTESIAN_POINT('',(96.0000014305115,-109.000001400709,13.));
#2095=CARTESIAN_POINT('',(96.0000014305115,-109.000001400709,13.));
#2096=CARTESIAN_POINT('',(96.0000014305115,-109.000001400709,13.));
#2097=CARTESIAN_POINT('Origin',(111.000001430511,-109.000001400709,13.));
#2098=CARTESIAN_POINT('',(111.000001430511,-109.000001400709,13.));
#2099=CARTESIAN_POINT('Origin',(78.000001385808,-94.0000014007092,13.));
#2100=CARTESIAN_POINT('',(78.000001385808,-94.0000014007092,13.));
#2101=CARTESIAN_POINT('',(93.000001385808,-94.0000014007092,13.));
#2102=CARTESIAN_POINT('',(93.000001385808,-94.0000014007092,13.));
#2103=CARTESIAN_POINT('',(93.000001385808,-94.0000014007092,13.));
#2104=CARTESIAN_POINT('',(78.000001385808,-94.0000014007092,13.));
#2105=CARTESIAN_POINT('Origin',(78.000001385808,-109.000001400709,13.));
#2106=CARTESIAN_POINT('',(78.000001385808,-109.000001400709,13.));
#2107=CARTESIAN_POINT('',(78.000001385808,-94.0000014007092,13.));
#2108=CARTESIAN_POINT('',(78.000001385808,-109.000001400709,13.));
#2109=CARTESIAN_POINT('Origin',(93.000001385808,-109.000001400709,13.));
#2110=CARTESIAN_POINT('',(93.000001385808,-109.000001400709,13.));
#2111=CARTESIAN_POINT('',(78.000001385808,-109.000001400709,13.));
#2112=CARTESIAN_POINT('',(93.000001385808,-109.000001400709,13.));
#2113=CARTESIAN_POINT('Origin',(93.000001385808,-94.0000014007092,13.));
#2114=CARTESIAN_POINT('',(93.000001385808,-109.000001400709,13.));
#2115=CARTESIAN_POINT('Origin',(85.0000012665987,-86.5000012889504,13.));
#2116=UNCERTAINTY_MEASURE_WITH_UNIT(LENGTH_MEASURE(0.01),#2120,
'DISTANCE_ACCURACY_VALUE',
'Maximum model space distance between geometric entities at asserted c
onnectivities');
#2117=UNCERTAINTY_MEASURE_WITH_UNIT(LENGTH_MEASURE(0.01),#2120,
'DISTANCE_ACCURACY_VALUE',
'Maximum model space distance between geometric entities at asserted c
onnectivities');
#2118=(
GEOMETRIC_REPRESENTATION_CONTEXT(3)
GLOBAL_UNCERTAINTY_ASSIGNED_CONTEXT((#2116))
GLOBAL_UNIT_ASSIGNED_CONTEXT((#2120,#2122,#2123))
REPRESENTATION_CONTEXT('','3D')
);
#2119=(
GEOMETRIC_REPRESENTATION_CONTEXT(3)
GLOBAL_UNCERTAINTY_ASSIGNED_CONTEXT((#2117))
GLOBAL_UNIT_ASSIGNED_CONTEXT((#2120,#2122,#2123))
REPRESENTATION_CONTEXT('','3D')
);
#2120=(
LENGTH_UNIT()
NAMED_UNIT(*)
SI_UNIT(.MILLI.,.METRE.)
);
#2121=(
LENGTH_UNIT()
NAMED_UNIT(*)
SI_UNIT($,.METRE.)
);
#2122=(
NAMED_UNIT(*)
PLANE_ANGLE_UNIT()
SI_UNIT($,.RADIAN.)
);
#2123=(
NAMED_UNIT(*)
SI_UNIT($,.STERADIAN.)
SOLID_ANGLE_UNIT()
);
#2124=SHAPE_DEFINITION_REPRESENTATION(#2125,#2126);
#2125=PRODUCT_DEFINITION_SHAPE('',$,#2128);
#2126=SHAPE_REPRESENTATION('',(#1340),#2118);
#2127=PRODUCT_DEFINITION_CONTEXT('part definition',#2132,'design');
#2128=PRODUCT_DEFINITION('2026-08-12-15-41-15-330',
'Hotswappable macropad',#2129,#2127);
#2129=PRODUCT_DEFINITION_FORMATION('',$,#2134);
#2130=PRODUCT_RELATED_PRODUCT_CATEGORY('Hotswappable macropad',
'Hotswappable macropad',(#2134));
#2131=APPLICATION_PROTOCOL_DEFINITION('international standard',
'automotive_design',2009,#2132);
#2132=APPLICATION_CONTEXT(
'Core Data for Automotive Mechanical Design Process');
#2133=PRODUCT_CONTEXT('part definition',#2132,'mechanical');
#2134=PRODUCT('2026-08-12-15-41-15-330','Hotswappable macropad',$,(#2133));
#2135=PRESENTATION_STYLE_ASSIGNMENT((#2136));
#2136=SURFACE_STYLE_USAGE(.BOTH.,#2137);
#2137=SURFACE_SIDE_STYLE('',(#2138));
#2138=SURFACE_STYLE_FILL_AREA(#2139);
#2139=FILL_AREA_STYLE('Steel - Satin',(#2140));
#2140=FILL_AREA_STYLE_COLOUR('Steel - Satin',#2141);
#2141=COLOUR_RGB('Steel - Satin',0.627450980392157,0.627450980392157,0.627450980392157);
ENDSEC;
END-ISO-10303-21;
