%TF.GenerationSoftware,KiCad,Pcbnew,10.0.4*%
%TF.CreationDate,2026-08-06T16:09:42-04:00*%
%TF.ProjectId,Untitled,556e7469-746c-4656-942e-6b696361645f,rev?*%
%TF.SameCoordinates,Original*%
%TF.FileFunction,Copper,L2,Bot*%
%TF.FilePolarity,Positive*%
%FSLAX46Y46*%
G04 Gerber Fmt 4.6, Leading zero omitted, Abs format (unit mm)*
G04 Created by KiCad (PCBNEW 10.0.4) date 2026-08-06 16:09:42*
%MOMM*%
%LPD*%
G01*
G04 APERTURE LIST*
G04 Aperture macros list*
%AMRoundRect*
0 Rectangle with rounded corners*
0 $1 Rounding radius*
0 $2 $3 $4 $5 $6 $7 $8 $9 X,Y pos of 4 corners*
0 Add a 4 corners polygon primitive as box body*
4,1,4,$2,$3,$4,$5,$6,$7,$8,$9,$2,$3,0*
0 Add four circle primitives for the rounded corners*
1,1,$1+$1,$2,$3*
1,1,$1+$1,$4,$5*
1,1,$1+$1,$6,$7*
1,1,$1+$1,$8,$9*
0 Add four rect primitives between the rounded corners*
20,1,$1+$1,$2,$3,$4,$5,0*
20,1,$1+$1,$4,$5,$6,$7,0*
20,1,$1+$1,$6,$7,$8,$9,0*
20,1,$1+$1,$8,$9,$2,$3,0*%
G04 Aperture macros list end*
%TA.AperFunction,ComponentPad*%
%ADD10RoundRect,0.250000X-0.550000X-0.550000X0.550000X-0.550000X0.550000X0.550000X-0.550000X0.550000X0*%
%TD*%
%TA.AperFunction,ComponentPad*%
%ADD11C,1.600000*%
%TD*%
%TA.AperFunction,ComponentPad*%
%ADD12R,1.700000X3.500000*%
%TD*%
%TA.AperFunction,ComponentPad*%
%ADD13O,1.700000X3.600000*%
%TD*%
%TA.AperFunction,ComponentPad*%
%ADD14O,1.700000X3.700000*%
%TD*%
%TA.AperFunction,SMDPad,CuDef*%
%ADD15RoundRect,0.250000X-1.025000X-1.000000X1.025000X-1.000000X1.025000X1.000000X-1.025000X1.000000X0*%
%TD*%
%TA.AperFunction,ComponentPad*%
%ADD16C,2.000000*%
%TD*%
%TA.AperFunction,ComponentPad*%
%ADD17R,3.200000X2.000000*%
%TD*%
%TA.AperFunction,ComponentPad*%
%ADD18R,2.000000X2.000000*%
%TD*%
%TA.AperFunction,ViaPad*%
%ADD19C,0.600000*%
%TD*%
%TA.AperFunction,Conductor*%
%ADD20C,0.200000*%
%TD*%
G04 APERTURE END LIST*
D10*
%TO.P,D1,1,K_1*%
%TO.N,/Row 0*%
X61030000Y-49850000D03*
D11*
%TO.P,D1,2,A_2*%
%TO.N,Net-(D1-A)*%
X68650000Y-49850000D03*
%TD*%
%TO.P,D3,2,A_2*%
%TO.N,Net-(D3-A)*%
X68600000Y-55000000D03*
D10*
%TO.P,D3,1,K_1*%
%TO.N,/Row 1*%
X60980000Y-55000000D03*
%TD*%
D11*
%TO.P,D2,2,A_2*%
%TO.N,Net-(D2-A)*%
X68650000Y-52450000D03*
D10*
%TO.P,D2,1,K_1*%
%TO.N,/Row 0*%
X61030000Y-52450000D03*
%TD*%
D11*
%TO.P,D4,2,A_2*%
%TO.N,Net-(D4-A)*%
X68600000Y-57600000D03*
D10*
%TO.P,D4,1,K_1*%
%TO.N,/Row 1*%
X60980000Y-57600000D03*
%TD*%
%TO.P,D5,1,K_1*%
%TO.N,/Row 1*%
X60980000Y-60150000D03*
D11*
%TO.P,D5,2,A_2*%
%TO.N,Net-(D5-A)*%
X68600000Y-60150000D03*
%TD*%
D12*
%TO.P,U1,1,PA02_A0_D0_1*%
%TO.N,/Row 0*%
X115940000Y-71150000D03*
D13*
%TO.P,U1,2,PA4_A1_D1_2*%
%TO.N,/Row 1*%
X113400000Y-71150000D03*
%TO.P,U1,3,PA10_A2_D2_3*%
%TO.N,/Row 2*%
X110860000Y-71150000D03*
%TO.P,U1,4,PA11_A3_D3_4*%
%TO.N,/Row 3*%
X108320000Y-71150000D03*
%TO.P,U1,5,PA8_A4_D4_SDA_5*%
%TO.N,/L0*%
X105780000Y-71150000D03*
%TO.P,U1,6,PA9_A5_D5_SCL_6*%
%TO.N,/L1*%
X103240000Y-71150000D03*
%TO.P,U1,7,PB08_A6_D6_TX_7*%
%TO.N,/L2*%
X100700000Y-71150000D03*
%TO.P,U1,8,PB09_A7_D7_RX_8*%
%TO.N,/A1*%
X100700000Y-53900000D03*
%TO.P,U1,9,PA7_A8_D8_SCK_9*%
%TO.N,/B1*%
X103240000Y-53900000D03*
%TO.P,U1,10,PA5_A9_D9_MISO_10*%
%TO.N,/A2*%
X105780000Y-53900000D03*
D14*
%TO.P,U1,11,PA6_A10_D10_MOSI_11*%
%TO.N,/B2*%
X108320000Y-53900000D03*
%TO.P,U1,12,3V3_12*%
%TO.N,unconnected-(U1-3V3-Pad12)*%
X110860000Y-53900000D03*
%TO.P,U1,13,GND_13*%
%TO.N,GND*%
X113400000Y-53900000D03*
%TO.P,U1,14,5V_14*%
%TO.N,unconnected-(U1-5V-Pad14)*%
X115940000Y-53900000D03*
%TD*%
D10*
%TO.P,D6,1,K_1*%
%TO.N,/Row 2*%
X73380000Y-55100000D03*
D11*
%TO.P,D6,2,A_2*%
%TO.N,Net-(D6-A)*%
X81000000Y-55100000D03*
%TD*%
D10*
%TO.P,D7,1,K_1*%
%TO.N,/Row 2*%
X73380000Y-57700000D03*
D11*
%TO.P,D7,2,A_2*%
%TO.N,Net-(D7-A)*%
X81000000Y-57700000D03*
%TD*%
D10*
%TO.P,D8,1,K_1*%
%TO.N,/Row 2*%
X73380000Y-60300000D03*
D11*
%TO.P,D8,2,A_2*%
%TO.N,Net-(D8-A)*%
X81000000Y-60300000D03*
%TD*%
D15*
%TO.P,SW7,2,2_2*%
%TO.N,Net-(D9-A)*%
X112200000Y-80798000D03*
%TO.P,SW7,1,1_1*%
%TO.N,/L0*%
X100200000Y-78598000D03*
%TD*%
%TO.P,SW8,2,2_2*%
%TO.N,Net-(D10-A)*%
X112200000Y-98050000D03*
%TO.P,SW8,1,1_1*%
%TO.N,/L1*%
X100200000Y-95850000D03*
%TD*%
%TO.P,SW9,2,2_2*%
%TO.N,Net-(D11-A)*%
X112200000Y-115302000D03*
%TO.P,SW9,1,1_1*%
%TO.N,/L2*%
X100200000Y-113102000D03*
%TD*%
D11*
%TO.P,D9,2,A_2*%
%TO.N,Net-(D9-A)*%
X93810000Y-55050000D03*
D10*
%TO.P,D9,1,K_1*%
%TO.N,/Row 3*%
X86190000Y-55050000D03*
%TD*%
D11*
%TO.P,D10,2,A_2*%
%TO.N,Net-(D10-A)*%
X93860000Y-57600000D03*
D10*
%TO.P,D10,1,K_1*%
%TO.N,/Row 3*%
X86240000Y-57600000D03*
%TD*%
D11*
%TO.P,D11,2,A_2*%
%TO.N,Net-(D11-A)*%
X93860000Y-60250000D03*
D10*
%TO.P,D11,1,K_1*%
%TO.N,/Row 3*%
X86240000Y-60250000D03*
%TD*%
D16*
%TO.P,R1,S2,S2_S2*%
%TO.N,/L0*%
X73625000Y-66221000D03*
%TO.P,R1,S1,S1_S1*%
%TO.N,Net-(D1-A)*%
X73625000Y-71221000D03*
D17*
%TO.P,R1,MP*%
%TO.N,N/C*%
X66625000Y-74321000D03*
X66625000Y-63121000D03*
D16*
%TO.P,R1,C,C_C*%
%TO.N,GND*%
X59125000Y-68721000D03*
%TO.P,R1,B,B_B*%
%TO.N,/B1*%
X59125000Y-71221000D03*
D18*
%TO.P,R1,A,A_A*%
%TO.N,/A1*%
X59125000Y-66221000D03*
%TD*%
D16*
%TO.P,R2,S2,S2_S2*%
%TO.N,/L1*%
X91425000Y-66371000D03*
%TO.P,R2,S1,S1_S1*%
%TO.N,Net-(D2-A)*%
X91425000Y-71371000D03*
D17*
%TO.P,R2,MP*%
%TO.N,N/C*%
X84425000Y-74471000D03*
X84425000Y-63271000D03*
D16*
%TO.P,R2,C,C_C*%
%TO.N,GND*%
X76925000Y-68871000D03*
%TO.P,R2,B,B_B*%
%TO.N,/B2*%
X76925000Y-71371000D03*
D18*
%TO.P,R2,A,A_A*%
%TO.N,/A2*%
X76925000Y-66371000D03*
%TD*%
D15*
%TO.P,SW1,2,2_2*%
%TO.N,Net-(D3-A)*%
X75100000Y-80798000D03*
%TO.P,SW1,1,1_1*%
%TO.N,/L0*%
X63100000Y-78598000D03*
%TD*%
%TO.P,SW2,2,2_2*%
%TO.N,Net-(D4-A)*%
X75100000Y-98050000D03*
%TO.P,SW2,1,1_1*%
%TO.N,/L1*%
X63100000Y-95850000D03*
%TD*%
%TO.P,SW3,2,2_2*%
%TO.N,Net-(D5-A)*%
X75100000Y-115302000D03*
%TO.P,SW3,1,1_1*%
%TO.N,/L2*%
X63100000Y-113102000D03*
%TD*%
%TO.P,SW4,2,2_2*%
%TO.N,Net-(D6-A)*%
X93650000Y-80798000D03*
%TO.P,SW4,1,1_1*%
%TO.N,/L0*%
X81650000Y-78598000D03*
%TD*%
%TO.P,SW5,2,2_2*%
%TO.N,Net-(D7-A)*%
X93650000Y-98050000D03*
%TO.P,SW5,1,1_1*%
%TO.N,/L1*%
X81650000Y-95850000D03*
%TD*%
%TO.P,SW6,2,2_2*%
%TO.N,Net-(D8-A)*%
X93650000Y-115302000D03*
%TO.P,SW6,1,1_1*%
%TO.N,/L2*%
X81650000Y-113102000D03*
%TD*%
D19*
%TO.N,/L2*%
X97888908Y-75600000D03*
X100200000Y-113102000D03*
%TO.N,/L1*%
X98100000Y-95750000D03*
X96900000Y-76200000D03*
%TO.N,Net-(D11-A)*%
X112200000Y-115302000D03*
%TO.N,Net-(D10-A)*%
X112150000Y-96050000D03*
%TO.N,Net-(D9-A)*%
X111800000Y-78850000D03*
%TO.N,Net-(D8-A)*%
X93000000Y-73050000D03*
X72450000Y-67950000D03*
X95950000Y-113150000D03*
X73976265Y-62573735D03*
X95950000Y-74350000D03*
%TO.N,Net-(D7-A)*%
X95350000Y-95800000D03*
X84650000Y-61770998D03*
X87000000Y-61900000D03*
%TO.N,Net-(D6-A)*%
X93600000Y-79050000D03*
%TO.N,Net-(D5-A)*%
X74950000Y-113400000D03*
%TO.N,Net-(D4-A)*%
X75050000Y-96300000D03*
%TO.N,Net-(D3-A)*%
X75250000Y-79100000D03*
%TO.N,Net-(D2-A)*%
X75600000Y-64071000D03*
X73776473Y-64071000D03*
%TO.N,/B2*%
X104011092Y-58938908D03*
X95400000Y-67400000D03*
X99200000Y-64400000D03*
%TO.N,/A2*%
X102811092Y-57738908D03*
%TO.N,/Row 1*%
X92812562Y-49437438D03*
X91550000Y-48150000D03*
%TD*%
%TO.N,/L2*%
D20*
X100700000Y-70150000D02*
X100700000Y-72788908D01*
X100700000Y-72788908D02*
X97888908Y-75600000D01*
%TO.N,/L1*%
X103240000Y-70150000D02*
X103240000Y-71186346D01*
X103240000Y-71186346D02*
X98226346Y-76200000D01*
X98226346Y-76200000D02*
X96900000Y-76200000D01*
X98200000Y-95850000D02*
X100200000Y-95850000D01*
X98100000Y-95750000D02*
X98200000Y-95850000D01*
%TO.N,/L0*%
X100000000Y-78798000D02*
X100000000Y-78850000D01*
X100000000Y-78850000D02*
X105780000Y-73070000D01*
X100200000Y-78598000D02*
X100000000Y-78798000D01*
X105780000Y-73070000D02*
X105780000Y-70150000D01*
%TO.N,/L2*%
X95998000Y-108900000D02*
X100200000Y-113102000D01*
%TO.N,/L0*%
X98402000Y-76800000D02*
X100200000Y-78598000D01*
X81650000Y-78598000D02*
X83448000Y-76800000D01*
X83448000Y-76800000D02*
X98402000Y-76800000D01*
X63100000Y-78598000D02*
X66077000Y-75621000D01*
X66077000Y-75621000D02*
X78673000Y-75621000D01*
X78673000Y-75621000D02*
X81650000Y-78598000D01*
%TO.N,/L1*%
X81650000Y-95850000D02*
X83425000Y-94075000D01*
X83425000Y-94075000D02*
X98425000Y-94075000D01*
X98425000Y-94075000D02*
X100200000Y-95850000D01*
X63100000Y-95850000D02*
X64875000Y-94075000D01*
X64875000Y-94075000D02*
X79875000Y-94075000D01*
X79875000Y-94075000D02*
X81650000Y-95850000D01*
%TO.N,/L2*%
X81650000Y-113102000D02*
X85852000Y-108900000D01*
X85852000Y-108900000D02*
X95998000Y-108900000D01*
X63100000Y-113102000D02*
X68052000Y-108150000D01*
X68052000Y-108150000D02*
X76698000Y-108150000D01*
X76698000Y-108150000D02*
X81650000Y-113102000D01*
X63052000Y-113102000D02*
X63050000Y-113100000D01*
X63100000Y-113102000D02*
X63052000Y-113102000D01*
%TO.N,Net-(D10-A)*%
X112150000Y-96050000D02*
X112150000Y-96450000D01*
X112150000Y-96450000D02*
X112200000Y-96500000D01*
X112200000Y-96500000D02*
X112200000Y-98050000D01*
%TO.N,Net-(D9-A)*%
X111800000Y-78850000D02*
X112200000Y-79250000D01*
X112200000Y-79250000D02*
X112200000Y-80798000D01*
%TO.N,Net-(D8-A)*%
X95950000Y-113150000D02*
X95802000Y-113150000D01*
X73976265Y-62573735D02*
X71925000Y-64625000D01*
X71925000Y-67425000D02*
X72450000Y-67950000D01*
X94650000Y-73050000D02*
X95950000Y-74350000D01*
X93000000Y-73050000D02*
X94650000Y-73050000D01*
X71925000Y-64625000D02*
X71925000Y-67425000D01*
X95802000Y-113150000D02*
X93650000Y-115302000D01*
%TO.N,Net-(D7-A)*%
X86870998Y-61770998D02*
X87000000Y-61900000D01*
X84650000Y-61770998D02*
X86870998Y-61770998D01*
X95350000Y-95800000D02*
X93650000Y-97500000D01*
X93650000Y-97500000D02*
X93650000Y-98050000D01*
%TO.N,Net-(D6-A)*%
X93600000Y-79050000D02*
X93600000Y-80748000D01*
X93600000Y-80748000D02*
X93650000Y-80798000D01*
%TO.N,Net-(D5-A)*%
X74950000Y-113400000D02*
X74950000Y-115152000D01*
X74950000Y-115152000D02*
X75100000Y-115302000D01*
%TO.N,Net-(D4-A)*%
X75050000Y-96300000D02*
X75050000Y-98000000D01*
X75050000Y-98000000D02*
X75100000Y-98050000D01*
%TO.N,Net-(D3-A)*%
X75250000Y-79100000D02*
X75250000Y-80648000D01*
X75250000Y-80648000D02*
X75100000Y-80798000D01*
%TO.N,GND*%
X76929000Y-68871000D02*
X76950000Y-68850000D01*
X76925000Y-68871000D02*
X76929000Y-68871000D01*
X76950000Y-68850000D02*
X76821000Y-68721000D01*
X76821000Y-68721000D02*
X59125000Y-68721000D01*
%TO.N,Net-(D2-A)*%
X73776473Y-64071000D02*
X75600000Y-64071000D01*
%TO.N,/B2*%
X89586522Y-71371000D02*
X76925000Y-71371000D01*
X104011092Y-58938908D02*
X99200000Y-63750000D01*
X99200000Y-63750000D02*
X99200000Y-64400000D01*
X95400000Y-67400000D02*
X93557522Y-67400000D01*
X93557522Y-67400000D02*
X89586522Y-71371000D01*
%TO.N,/A2*%
X72325000Y-65682522D02*
X72325000Y-66759478D01*
X72325000Y-66759478D02*
X73086522Y-67521000D01*
X102811092Y-57738908D02*
X95879000Y-64671000D01*
X95879000Y-64671000D02*
X73336522Y-64671000D01*
X73336522Y-64671000D02*
X72325000Y-65682522D01*
X73086522Y-67521000D02*
X75775000Y-67521000D01*
X75775000Y-67521000D02*
X76925000Y-66371000D01*
%TO.N,/L0*%
X105780000Y-70150000D02*
X100701000Y-65071000D01*
X100701000Y-65071000D02*
X74775000Y-65071000D01*
X74775000Y-65071000D02*
X73625000Y-66221000D01*
%TO.N,/L1*%
X91425000Y-66371000D02*
X99461000Y-66371000D01*
X99461000Y-66371000D02*
X103240000Y-70150000D01*
%TO.N,/Row 1*%
X91550000Y-48174876D02*
X92812562Y-49437438D01*
X91550000Y-48150000D02*
X91550000Y-48174876D01*
%TD*%
M02*
