%TF.GenerationSoftware,KiCad,Pcbnew,10.0.4*%
%TF.CreationDate,2026-08-06T16:09:42-04:00*%
%TF.ProjectId,Untitled,556e7469-746c-4656-942e-6b696361645f,rev?*%
%TF.SameCoordinates,Original*%
%TF.FileFunction,Legend,Bot*%
%TF.FilePolarity,Positive*%
%FSLAX46Y46*%
G04 Gerber Fmt 4.6, Leading zero omitted, Abs format (unit mm)*
G04 Created by KiCad (PCBNEW 10.0.4) date 2026-08-06 16:09:42*
%MOMM*%
%LPD*%
G01*
G04 APERTURE LIST*
%ADD10C,0.150000*%
%ADD11C,0.101600*%
%ADD12C,0.120000*%
%ADD13C,0.127000*%
%ADD14C,0.254000*%
%ADD15C,0.025400*%
G04 APERTURE END LIST*
D10*
X65578094Y-52424819D02*
X65578094Y-51424819D01*
X65578094Y-51424819D02*
X65339999Y-51424819D01*
X65339999Y-51424819D02*
X65197142Y-51472438D01*
X65197142Y-51472438D02*
X65101904Y-51567676D01*
X65101904Y-51567676D02*
X65054285Y-51662914D01*
X65054285Y-51662914D02*
X65006666Y-51853390D01*
X65006666Y-51853390D02*
X65006666Y-51996247D01*
X65006666Y-51996247D02*
X65054285Y-52186723D01*
X65054285Y-52186723D02*
X65101904Y-52281961D01*
X65101904Y-52281961D02*
X65197142Y-52377200D01*
X65197142Y-52377200D02*
X65339999Y-52424819D01*
X65339999Y-52424819D02*
X65578094Y-52424819D01*
X64054285Y-52424819D02*
X64625713Y-52424819D01*
X64339999Y-52424819D02*
X64339999Y-51424819D01*
X64339999Y-51424819D02*
X64435237Y-51567676D01*
X64435237Y-51567676D02*
X64530475Y-51662914D01*
X64530475Y-51662914D02*
X64625713Y-51710533D01*
X61291904Y-52104819D02*
X61291904Y-51104819D01*
X60720476Y-52104819D02*
X61149047Y-51533390D01*
X60720476Y-51104819D02*
X61291904Y-51676247D01*
X65528094Y-57574819D02*
X65528094Y-56574819D01*
X65528094Y-56574819D02*
X65289999Y-56574819D01*
X65289999Y-56574819D02*
X65147142Y-56622438D01*
X65147142Y-56622438D02*
X65051904Y-56717676D01*
X65051904Y-56717676D02*
X65004285Y-56812914D01*
X65004285Y-56812914D02*
X64956666Y-57003390D01*
X64956666Y-57003390D02*
X64956666Y-57146247D01*
X64956666Y-57146247D02*
X65004285Y-57336723D01*
X65004285Y-57336723D02*
X65051904Y-57431961D01*
X65051904Y-57431961D02*
X65147142Y-57527200D01*
X65147142Y-57527200D02*
X65289999Y-57574819D01*
X65289999Y-57574819D02*
X65528094Y-57574819D01*
X64623332Y-56574819D02*
X64004285Y-56574819D01*
X64004285Y-56574819D02*
X64337618Y-56955771D01*
X64337618Y-56955771D02*
X64194761Y-56955771D01*
X64194761Y-56955771D02*
X64099523Y-57003390D01*
X64099523Y-57003390D02*
X64051904Y-57051009D01*
X64051904Y-57051009D02*
X64004285Y-57146247D01*
X64004285Y-57146247D02*
X64004285Y-57384342D01*
X64004285Y-57384342D02*
X64051904Y-57479580D01*
X64051904Y-57479580D02*
X64099523Y-57527200D01*
X64099523Y-57527200D02*
X64194761Y-57574819D01*
X64194761Y-57574819D02*
X64480475Y-57574819D01*
X64480475Y-57574819D02*
X64575713Y-57527200D01*
X64575713Y-57527200D02*
X64623332Y-57479580D01*
X61241904Y-57254819D02*
X61241904Y-56254819D01*
X60670476Y-57254819D02*
X61099047Y-56683390D01*
X60670476Y-56254819D02*
X61241904Y-56826247D01*
X65578094Y-55024819D02*
X65578094Y-54024819D01*
X65578094Y-54024819D02*
X65339999Y-54024819D01*
X65339999Y-54024819D02*
X65197142Y-54072438D01*
X65197142Y-54072438D02*
X65101904Y-54167676D01*
X65101904Y-54167676D02*
X65054285Y-54262914D01*
X65054285Y-54262914D02*
X65006666Y-54453390D01*
X65006666Y-54453390D02*
X65006666Y-54596247D01*
X65006666Y-54596247D02*
X65054285Y-54786723D01*
X65054285Y-54786723D02*
X65101904Y-54881961D01*
X65101904Y-54881961D02*
X65197142Y-54977200D01*
X65197142Y-54977200D02*
X65339999Y-55024819D01*
X65339999Y-55024819D02*
X65578094Y-55024819D01*
X64625713Y-54120057D02*
X64578094Y-54072438D01*
X64578094Y-54072438D02*
X64482856Y-54024819D01*
X64482856Y-54024819D02*
X64244761Y-54024819D01*
X64244761Y-54024819D02*
X64149523Y-54072438D01*
X64149523Y-54072438D02*
X64101904Y-54120057D01*
X64101904Y-54120057D02*
X64054285Y-54215295D01*
X64054285Y-54215295D02*
X64054285Y-54310533D01*
X64054285Y-54310533D02*
X64101904Y-54453390D01*
X64101904Y-54453390D02*
X64673332Y-55024819D01*
X64673332Y-55024819D02*
X64054285Y-55024819D01*
X61291904Y-54704819D02*
X61291904Y-53704819D01*
X60720476Y-54704819D02*
X61149047Y-54133390D01*
X60720476Y-53704819D02*
X61291904Y-54276247D01*
X65528094Y-60174819D02*
X65528094Y-59174819D01*
X65528094Y-59174819D02*
X65289999Y-59174819D01*
X65289999Y-59174819D02*
X65147142Y-59222438D01*
X65147142Y-59222438D02*
X65051904Y-59317676D01*
X65051904Y-59317676D02*
X65004285Y-59412914D01*
X65004285Y-59412914D02*
X64956666Y-59603390D01*
X64956666Y-59603390D02*
X64956666Y-59746247D01*
X64956666Y-59746247D02*
X65004285Y-59936723D01*
X65004285Y-59936723D02*
X65051904Y-60031961D01*
X65051904Y-60031961D02*
X65147142Y-60127200D01*
X65147142Y-60127200D02*
X65289999Y-60174819D01*
X65289999Y-60174819D02*
X65528094Y-60174819D01*
X64099523Y-59508152D02*
X64099523Y-60174819D01*
X64337618Y-59127200D02*
X64575713Y-59841485D01*
X64575713Y-59841485D02*
X63956666Y-59841485D01*
X61241904Y-59854819D02*
X61241904Y-58854819D01*
X60670476Y-59854819D02*
X61099047Y-59283390D01*
X60670476Y-58854819D02*
X61241904Y-59426247D01*
X65528094Y-62724819D02*
X65528094Y-61724819D01*
X65528094Y-61724819D02*
X65289999Y-61724819D01*
X65289999Y-61724819D02*
X65147142Y-61772438D01*
X65147142Y-61772438D02*
X65051904Y-61867676D01*
X65051904Y-61867676D02*
X65004285Y-61962914D01*
X65004285Y-61962914D02*
X64956666Y-62153390D01*
X64956666Y-62153390D02*
X64956666Y-62296247D01*
X64956666Y-62296247D02*
X65004285Y-62486723D01*
X65004285Y-62486723D02*
X65051904Y-62581961D01*
X65051904Y-62581961D02*
X65147142Y-62677200D01*
X65147142Y-62677200D02*
X65289999Y-62724819D01*
X65289999Y-62724819D02*
X65528094Y-62724819D01*
X64051904Y-61724819D02*
X64528094Y-61724819D01*
X64528094Y-61724819D02*
X64575713Y-62201009D01*
X64575713Y-62201009D02*
X64528094Y-62153390D01*
X64528094Y-62153390D02*
X64432856Y-62105771D01*
X64432856Y-62105771D02*
X64194761Y-62105771D01*
X64194761Y-62105771D02*
X64099523Y-62153390D01*
X64099523Y-62153390D02*
X64051904Y-62201009D01*
X64051904Y-62201009D02*
X64004285Y-62296247D01*
X64004285Y-62296247D02*
X64004285Y-62534342D01*
X64004285Y-62534342D02*
X64051904Y-62629580D01*
X64051904Y-62629580D02*
X64099523Y-62677200D01*
X64099523Y-62677200D02*
X64194761Y-62724819D01*
X64194761Y-62724819D02*
X64432856Y-62724819D01*
X64432856Y-62724819D02*
X64528094Y-62677200D01*
X64528094Y-62677200D02*
X64575713Y-62629580D01*
X61241904Y-62404819D02*
X61241904Y-61404819D01*
X60670476Y-62404819D02*
X61099047Y-61833390D01*
X60670476Y-61404819D02*
X61241904Y-61976247D01*
D11*
X105296985Y-61847666D02*
X106016652Y-61847666D01*
X106016652Y-61847666D02*
X106101318Y-61890000D01*
X106101318Y-61890000D02*
X106143652Y-61932333D01*
X106143652Y-61932333D02*
X106185985Y-62017000D01*
X106185985Y-62017000D02*
X106185985Y-62186333D01*
X106185985Y-62186333D02*
X106143652Y-62271000D01*
X106143652Y-62271000D02*
X106101318Y-62313333D01*
X106101318Y-62313333D02*
X106016652Y-62355666D01*
X106016652Y-62355666D02*
X105296985Y-62355666D01*
X106185985Y-63244666D02*
X106185985Y-62736666D01*
X106185985Y-62990666D02*
X105296985Y-62990666D01*
X105296985Y-62990666D02*
X105423985Y-62905999D01*
X105423985Y-62905999D02*
X105508652Y-62821333D01*
X105508652Y-62821333D02*
X105550985Y-62736666D01*
D10*
X108365180Y-64048808D02*
X107365180Y-63382142D01*
X108365180Y-63382142D02*
X107365180Y-64048808D01*
X107365180Y-63001189D02*
X108365180Y-63001189D01*
X107650895Y-62572618D02*
X107650895Y-62096428D01*
X107365180Y-62667856D02*
X108365180Y-62334523D01*
X108365180Y-62334523D02*
X107365180Y-62001190D01*
X108365180Y-61477380D02*
X108365180Y-61286904D01*
X108365180Y-61286904D02*
X108317561Y-61191666D01*
X108317561Y-61191666D02*
X108222323Y-61096428D01*
X108222323Y-61096428D02*
X108031847Y-61048809D01*
X108031847Y-61048809D02*
X107698514Y-61048809D01*
X107698514Y-61048809D02*
X107508038Y-61096428D01*
X107508038Y-61096428D02*
X107412800Y-61191666D01*
X107412800Y-61191666D02*
X107365180Y-61286904D01*
X107365180Y-61286904D02*
X107365180Y-61477380D01*
X107365180Y-61477380D02*
X107412800Y-61572618D01*
X107412800Y-61572618D02*
X107508038Y-61667856D01*
X107508038Y-61667856D02*
X107698514Y-61715475D01*
X107698514Y-61715475D02*
X108031847Y-61715475D01*
X108031847Y-61715475D02*
X108222323Y-61667856D01*
X108222323Y-61667856D02*
X108317561Y-61572618D01*
X108317561Y-61572618D02*
X108365180Y-61477380D01*
X109412800Y-67286904D02*
X109365180Y-67144047D01*
X109365180Y-67144047D02*
X109365180Y-66905952D01*
X109365180Y-66905952D02*
X109412800Y-66810714D01*
X109412800Y-66810714D02*
X109460419Y-66763095D01*
X109460419Y-66763095D02*
X109555657Y-66715476D01*
X109555657Y-66715476D02*
X109650895Y-66715476D01*
X109650895Y-66715476D02*
X109746133Y-66763095D01*
X109746133Y-66763095D02*
X109793752Y-66810714D01*
X109793752Y-66810714D02*
X109841371Y-66905952D01*
X109841371Y-66905952D02*
X109888990Y-67096428D01*
X109888990Y-67096428D02*
X109936609Y-67191666D01*
X109936609Y-67191666D02*
X109984228Y-67239285D01*
X109984228Y-67239285D02*
X110079466Y-67286904D01*
X110079466Y-67286904D02*
X110174704Y-67286904D01*
X110174704Y-67286904D02*
X110269942Y-67239285D01*
X110269942Y-67239285D02*
X110317561Y-67191666D01*
X110317561Y-67191666D02*
X110365180Y-67096428D01*
X110365180Y-67096428D02*
X110365180Y-66858333D01*
X110365180Y-66858333D02*
X110317561Y-66715476D01*
X109412800Y-65905952D02*
X109365180Y-66001190D01*
X109365180Y-66001190D02*
X109365180Y-66191666D01*
X109365180Y-66191666D02*
X109412800Y-66286904D01*
X109412800Y-66286904D02*
X109508038Y-66334523D01*
X109508038Y-66334523D02*
X109888990Y-66334523D01*
X109888990Y-66334523D02*
X109984228Y-66286904D01*
X109984228Y-66286904D02*
X110031847Y-66191666D01*
X110031847Y-66191666D02*
X110031847Y-66001190D01*
X110031847Y-66001190D02*
X109984228Y-65905952D01*
X109984228Y-65905952D02*
X109888990Y-65858333D01*
X109888990Y-65858333D02*
X109793752Y-65858333D01*
X109793752Y-65858333D02*
X109698514Y-66334523D01*
X109412800Y-65048809D02*
X109365180Y-65144047D01*
X109365180Y-65144047D02*
X109365180Y-65334523D01*
X109365180Y-65334523D02*
X109412800Y-65429761D01*
X109412800Y-65429761D02*
X109508038Y-65477380D01*
X109508038Y-65477380D02*
X109888990Y-65477380D01*
X109888990Y-65477380D02*
X109984228Y-65429761D01*
X109984228Y-65429761D02*
X110031847Y-65334523D01*
X110031847Y-65334523D02*
X110031847Y-65144047D01*
X110031847Y-65144047D02*
X109984228Y-65048809D01*
X109984228Y-65048809D02*
X109888990Y-65001190D01*
X109888990Y-65001190D02*
X109793752Y-65001190D01*
X109793752Y-65001190D02*
X109698514Y-65477380D01*
X109412800Y-64191666D02*
X109365180Y-64286904D01*
X109365180Y-64286904D02*
X109365180Y-64477380D01*
X109365180Y-64477380D02*
X109412800Y-64572618D01*
X109412800Y-64572618D02*
X109508038Y-64620237D01*
X109508038Y-64620237D02*
X109888990Y-64620237D01*
X109888990Y-64620237D02*
X109984228Y-64572618D01*
X109984228Y-64572618D02*
X110031847Y-64477380D01*
X110031847Y-64477380D02*
X110031847Y-64286904D01*
X110031847Y-64286904D02*
X109984228Y-64191666D01*
X109984228Y-64191666D02*
X109888990Y-64144047D01*
X109888990Y-64144047D02*
X109793752Y-64144047D01*
X109793752Y-64144047D02*
X109698514Y-64620237D01*
X109365180Y-63286904D02*
X110365180Y-63286904D01*
X109412800Y-63286904D02*
X109365180Y-63382142D01*
X109365180Y-63382142D02*
X109365180Y-63572618D01*
X109365180Y-63572618D02*
X109412800Y-63667856D01*
X109412800Y-63667856D02*
X109460419Y-63715475D01*
X109460419Y-63715475D02*
X109555657Y-63763094D01*
X109555657Y-63763094D02*
X109841371Y-63763094D01*
X109841371Y-63763094D02*
X109936609Y-63715475D01*
X109936609Y-63715475D02*
X109984228Y-63667856D01*
X109984228Y-63667856D02*
X110031847Y-63572618D01*
X110031847Y-63572618D02*
X110031847Y-63382142D01*
X110031847Y-63382142D02*
X109984228Y-63286904D01*
X109412800Y-62096427D02*
X109365180Y-61953570D01*
X109365180Y-61953570D02*
X109365180Y-61715475D01*
X109365180Y-61715475D02*
X109412800Y-61620237D01*
X109412800Y-61620237D02*
X109460419Y-61572618D01*
X109460419Y-61572618D02*
X109555657Y-61524999D01*
X109555657Y-61524999D02*
X109650895Y-61524999D01*
X109650895Y-61524999D02*
X109746133Y-61572618D01*
X109746133Y-61572618D02*
X109793752Y-61620237D01*
X109793752Y-61620237D02*
X109841371Y-61715475D01*
X109841371Y-61715475D02*
X109888990Y-61905951D01*
X109888990Y-61905951D02*
X109936609Y-62001189D01*
X109936609Y-62001189D02*
X109984228Y-62048808D01*
X109984228Y-62048808D02*
X110079466Y-62096427D01*
X110079466Y-62096427D02*
X110174704Y-62096427D01*
X110174704Y-62096427D02*
X110269942Y-62048808D01*
X110269942Y-62048808D02*
X110317561Y-62001189D01*
X110317561Y-62001189D02*
X110365180Y-61905951D01*
X110365180Y-61905951D02*
X110365180Y-61667856D01*
X110365180Y-61667856D02*
X110317561Y-61524999D01*
X110031847Y-61239284D02*
X110031847Y-60858332D01*
X110365180Y-61096427D02*
X109508038Y-61096427D01*
X109508038Y-61096427D02*
X109412800Y-61048808D01*
X109412800Y-61048808D02*
X109365180Y-60953570D01*
X109365180Y-60953570D02*
X109365180Y-60858332D01*
X110031847Y-60096427D02*
X109365180Y-60096427D01*
X110031847Y-60524998D02*
X109508038Y-60524998D01*
X109508038Y-60524998D02*
X109412800Y-60477379D01*
X109412800Y-60477379D02*
X109365180Y-60382141D01*
X109365180Y-60382141D02*
X109365180Y-60239284D01*
X109365180Y-60239284D02*
X109412800Y-60144046D01*
X109412800Y-60144046D02*
X109460419Y-60096427D01*
X109365180Y-59191665D02*
X110365180Y-59191665D01*
X109412800Y-59191665D02*
X109365180Y-59286903D01*
X109365180Y-59286903D02*
X109365180Y-59477379D01*
X109365180Y-59477379D02*
X109412800Y-59572617D01*
X109412800Y-59572617D02*
X109460419Y-59620236D01*
X109460419Y-59620236D02*
X109555657Y-59667855D01*
X109555657Y-59667855D02*
X109841371Y-59667855D01*
X109841371Y-59667855D02*
X109936609Y-59620236D01*
X109936609Y-59620236D02*
X109984228Y-59572617D01*
X109984228Y-59572617D02*
X110031847Y-59477379D01*
X110031847Y-59477379D02*
X110031847Y-59286903D01*
X110031847Y-59286903D02*
X109984228Y-59191665D01*
X109365180Y-58715474D02*
X110031847Y-58715474D01*
X110365180Y-58715474D02*
X110317561Y-58763093D01*
X110317561Y-58763093D02*
X110269942Y-58715474D01*
X110269942Y-58715474D02*
X110317561Y-58667855D01*
X110317561Y-58667855D02*
X110365180Y-58715474D01*
X110365180Y-58715474D02*
X110269942Y-58715474D01*
X109365180Y-58096427D02*
X109412800Y-58191665D01*
X109412800Y-58191665D02*
X109460419Y-58239284D01*
X109460419Y-58239284D02*
X109555657Y-58286903D01*
X109555657Y-58286903D02*
X109841371Y-58286903D01*
X109841371Y-58286903D02*
X109936609Y-58239284D01*
X109936609Y-58239284D02*
X109984228Y-58191665D01*
X109984228Y-58191665D02*
X110031847Y-58096427D01*
X110031847Y-58096427D02*
X110031847Y-57953570D01*
X110031847Y-57953570D02*
X109984228Y-57858332D01*
X109984228Y-57858332D02*
X109936609Y-57810713D01*
X109936609Y-57810713D02*
X109841371Y-57763094D01*
X109841371Y-57763094D02*
X109555657Y-57763094D01*
X109555657Y-57763094D02*
X109460419Y-57810713D01*
X109460419Y-57810713D02*
X109412800Y-57858332D01*
X109412800Y-57858332D02*
X109365180Y-57953570D01*
X109365180Y-57953570D02*
X109365180Y-58096427D01*
X77928094Y-57674819D02*
X77928094Y-56674819D01*
X77928094Y-56674819D02*
X77689999Y-56674819D01*
X77689999Y-56674819D02*
X77547142Y-56722438D01*
X77547142Y-56722438D02*
X77451904Y-56817676D01*
X77451904Y-56817676D02*
X77404285Y-56912914D01*
X77404285Y-56912914D02*
X77356666Y-57103390D01*
X77356666Y-57103390D02*
X77356666Y-57246247D01*
X77356666Y-57246247D02*
X77404285Y-57436723D01*
X77404285Y-57436723D02*
X77451904Y-57531961D01*
X77451904Y-57531961D02*
X77547142Y-57627200D01*
X77547142Y-57627200D02*
X77689999Y-57674819D01*
X77689999Y-57674819D02*
X77928094Y-57674819D01*
X76499523Y-56674819D02*
X76689999Y-56674819D01*
X76689999Y-56674819D02*
X76785237Y-56722438D01*
X76785237Y-56722438D02*
X76832856Y-56770057D01*
X76832856Y-56770057D02*
X76928094Y-56912914D01*
X76928094Y-56912914D02*
X76975713Y-57103390D01*
X76975713Y-57103390D02*
X76975713Y-57484342D01*
X76975713Y-57484342D02*
X76928094Y-57579580D01*
X76928094Y-57579580D02*
X76880475Y-57627200D01*
X76880475Y-57627200D02*
X76785237Y-57674819D01*
X76785237Y-57674819D02*
X76594761Y-57674819D01*
X76594761Y-57674819D02*
X76499523Y-57627200D01*
X76499523Y-57627200D02*
X76451904Y-57579580D01*
X76451904Y-57579580D02*
X76404285Y-57484342D01*
X76404285Y-57484342D02*
X76404285Y-57246247D01*
X76404285Y-57246247D02*
X76451904Y-57151009D01*
X76451904Y-57151009D02*
X76499523Y-57103390D01*
X76499523Y-57103390D02*
X76594761Y-57055771D01*
X76594761Y-57055771D02*
X76785237Y-57055771D01*
X76785237Y-57055771D02*
X76880475Y-57103390D01*
X76880475Y-57103390D02*
X76928094Y-57151009D01*
X76928094Y-57151009D02*
X76975713Y-57246247D01*
X73641904Y-57354819D02*
X73641904Y-56354819D01*
X73070476Y-57354819D02*
X73499047Y-56783390D01*
X73070476Y-56354819D02*
X73641904Y-56926247D01*
X77928094Y-60274819D02*
X77928094Y-59274819D01*
X77928094Y-59274819D02*
X77689999Y-59274819D01*
X77689999Y-59274819D02*
X77547142Y-59322438D01*
X77547142Y-59322438D02*
X77451904Y-59417676D01*
X77451904Y-59417676D02*
X77404285Y-59512914D01*
X77404285Y-59512914D02*
X77356666Y-59703390D01*
X77356666Y-59703390D02*
X77356666Y-59846247D01*
X77356666Y-59846247D02*
X77404285Y-60036723D01*
X77404285Y-60036723D02*
X77451904Y-60131961D01*
X77451904Y-60131961D02*
X77547142Y-60227200D01*
X77547142Y-60227200D02*
X77689999Y-60274819D01*
X77689999Y-60274819D02*
X77928094Y-60274819D01*
X77023332Y-59274819D02*
X76356666Y-59274819D01*
X76356666Y-59274819D02*
X76785237Y-60274819D01*
X73641904Y-59954819D02*
X73641904Y-58954819D01*
X73070476Y-59954819D02*
X73499047Y-59383390D01*
X73070476Y-58954819D02*
X73641904Y-59526247D01*
X77928094Y-62874819D02*
X77928094Y-61874819D01*
X77928094Y-61874819D02*
X77689999Y-61874819D01*
X77689999Y-61874819D02*
X77547142Y-61922438D01*
X77547142Y-61922438D02*
X77451904Y-62017676D01*
X77451904Y-62017676D02*
X77404285Y-62112914D01*
X77404285Y-62112914D02*
X77356666Y-62303390D01*
X77356666Y-62303390D02*
X77356666Y-62446247D01*
X77356666Y-62446247D02*
X77404285Y-62636723D01*
X77404285Y-62636723D02*
X77451904Y-62731961D01*
X77451904Y-62731961D02*
X77547142Y-62827200D01*
X77547142Y-62827200D02*
X77689999Y-62874819D01*
X77689999Y-62874819D02*
X77928094Y-62874819D01*
X76785237Y-62303390D02*
X76880475Y-62255771D01*
X76880475Y-62255771D02*
X76928094Y-62208152D01*
X76928094Y-62208152D02*
X76975713Y-62112914D01*
X76975713Y-62112914D02*
X76975713Y-62065295D01*
X76975713Y-62065295D02*
X76928094Y-61970057D01*
X76928094Y-61970057D02*
X76880475Y-61922438D01*
X76880475Y-61922438D02*
X76785237Y-61874819D01*
X76785237Y-61874819D02*
X76594761Y-61874819D01*
X76594761Y-61874819D02*
X76499523Y-61922438D01*
X76499523Y-61922438D02*
X76451904Y-61970057D01*
X76451904Y-61970057D02*
X76404285Y-62065295D01*
X76404285Y-62065295D02*
X76404285Y-62112914D01*
X76404285Y-62112914D02*
X76451904Y-62208152D01*
X76451904Y-62208152D02*
X76499523Y-62255771D01*
X76499523Y-62255771D02*
X76594761Y-62303390D01*
X76594761Y-62303390D02*
X76785237Y-62303390D01*
X76785237Y-62303390D02*
X76880475Y-62351009D01*
X76880475Y-62351009D02*
X76928094Y-62398628D01*
X76928094Y-62398628D02*
X76975713Y-62493866D01*
X76975713Y-62493866D02*
X76975713Y-62684342D01*
X76975713Y-62684342D02*
X76928094Y-62779580D01*
X76928094Y-62779580D02*
X76880475Y-62827200D01*
X76880475Y-62827200D02*
X76785237Y-62874819D01*
X76785237Y-62874819D02*
X76594761Y-62874819D01*
X76594761Y-62874819D02*
X76499523Y-62827200D01*
X76499523Y-62827200D02*
X76451904Y-62779580D01*
X76451904Y-62779580D02*
X76404285Y-62684342D01*
X76404285Y-62684342D02*
X76404285Y-62493866D01*
X76404285Y-62493866D02*
X76451904Y-62398628D01*
X76451904Y-62398628D02*
X76499523Y-62351009D01*
X76499523Y-62351009D02*
X76594761Y-62303390D01*
X73641904Y-62554819D02*
X73641904Y-61554819D01*
X73070476Y-62554819D02*
X73499047Y-61983390D01*
X73070476Y-61554819D02*
X73641904Y-62126247D01*
X90738094Y-57624819D02*
X90738094Y-56624819D01*
X90738094Y-56624819D02*
X90499999Y-56624819D01*
X90499999Y-56624819D02*
X90357142Y-56672438D01*
X90357142Y-56672438D02*
X90261904Y-56767676D01*
X90261904Y-56767676D02*
X90214285Y-56862914D01*
X90214285Y-56862914D02*
X90166666Y-57053390D01*
X90166666Y-57053390D02*
X90166666Y-57196247D01*
X90166666Y-57196247D02*
X90214285Y-57386723D01*
X90214285Y-57386723D02*
X90261904Y-57481961D01*
X90261904Y-57481961D02*
X90357142Y-57577200D01*
X90357142Y-57577200D02*
X90499999Y-57624819D01*
X90499999Y-57624819D02*
X90738094Y-57624819D01*
X89690475Y-57624819D02*
X89499999Y-57624819D01*
X89499999Y-57624819D02*
X89404761Y-57577200D01*
X89404761Y-57577200D02*
X89357142Y-57529580D01*
X89357142Y-57529580D02*
X89261904Y-57386723D01*
X89261904Y-57386723D02*
X89214285Y-57196247D01*
X89214285Y-57196247D02*
X89214285Y-56815295D01*
X89214285Y-56815295D02*
X89261904Y-56720057D01*
X89261904Y-56720057D02*
X89309523Y-56672438D01*
X89309523Y-56672438D02*
X89404761Y-56624819D01*
X89404761Y-56624819D02*
X89595237Y-56624819D01*
X89595237Y-56624819D02*
X89690475Y-56672438D01*
X89690475Y-56672438D02*
X89738094Y-56720057D01*
X89738094Y-56720057D02*
X89785713Y-56815295D01*
X89785713Y-56815295D02*
X89785713Y-57053390D01*
X89785713Y-57053390D02*
X89738094Y-57148628D01*
X89738094Y-57148628D02*
X89690475Y-57196247D01*
X89690475Y-57196247D02*
X89595237Y-57243866D01*
X89595237Y-57243866D02*
X89404761Y-57243866D01*
X89404761Y-57243866D02*
X89309523Y-57196247D01*
X89309523Y-57196247D02*
X89261904Y-57148628D01*
X89261904Y-57148628D02*
X89214285Y-57053390D01*
X86451904Y-57304819D02*
X86451904Y-56304819D01*
X85880476Y-57304819D02*
X86309047Y-56733390D01*
X85880476Y-56304819D02*
X86451904Y-56876247D01*
X91264285Y-60174819D02*
X91264285Y-59174819D01*
X91264285Y-59174819D02*
X91026190Y-59174819D01*
X91026190Y-59174819D02*
X90883333Y-59222438D01*
X90883333Y-59222438D02*
X90788095Y-59317676D01*
X90788095Y-59317676D02*
X90740476Y-59412914D01*
X90740476Y-59412914D02*
X90692857Y-59603390D01*
X90692857Y-59603390D02*
X90692857Y-59746247D01*
X90692857Y-59746247D02*
X90740476Y-59936723D01*
X90740476Y-59936723D02*
X90788095Y-60031961D01*
X90788095Y-60031961D02*
X90883333Y-60127200D01*
X90883333Y-60127200D02*
X91026190Y-60174819D01*
X91026190Y-60174819D02*
X91264285Y-60174819D01*
X89740476Y-60174819D02*
X90311904Y-60174819D01*
X90026190Y-60174819D02*
X90026190Y-59174819D01*
X90026190Y-59174819D02*
X90121428Y-59317676D01*
X90121428Y-59317676D02*
X90216666Y-59412914D01*
X90216666Y-59412914D02*
X90311904Y-59460533D01*
X89121428Y-59174819D02*
X89026190Y-59174819D01*
X89026190Y-59174819D02*
X88930952Y-59222438D01*
X88930952Y-59222438D02*
X88883333Y-59270057D01*
X88883333Y-59270057D02*
X88835714Y-59365295D01*
X88835714Y-59365295D02*
X88788095Y-59555771D01*
X88788095Y-59555771D02*
X88788095Y-59793866D01*
X88788095Y-59793866D02*
X88835714Y-59984342D01*
X88835714Y-59984342D02*
X88883333Y-60079580D01*
X88883333Y-60079580D02*
X88930952Y-60127200D01*
X88930952Y-60127200D02*
X89026190Y-60174819D01*
X89026190Y-60174819D02*
X89121428Y-60174819D01*
X89121428Y-60174819D02*
X89216666Y-60127200D01*
X89216666Y-60127200D02*
X89264285Y-60079580D01*
X89264285Y-60079580D02*
X89311904Y-59984342D01*
X89311904Y-59984342D02*
X89359523Y-59793866D01*
X89359523Y-59793866D02*
X89359523Y-59555771D01*
X89359523Y-59555771D02*
X89311904Y-59365295D01*
X89311904Y-59365295D02*
X89264285Y-59270057D01*
X89264285Y-59270057D02*
X89216666Y-59222438D01*
X89216666Y-59222438D02*
X89121428Y-59174819D01*
X86501904Y-59854819D02*
X86501904Y-58854819D01*
X85930476Y-59854819D02*
X86359047Y-59283390D01*
X85930476Y-58854819D02*
X86501904Y-59426247D01*
X91264285Y-62824819D02*
X91264285Y-61824819D01*
X91264285Y-61824819D02*
X91026190Y-61824819D01*
X91026190Y-61824819D02*
X90883333Y-61872438D01*
X90883333Y-61872438D02*
X90788095Y-61967676D01*
X90788095Y-61967676D02*
X90740476Y-62062914D01*
X90740476Y-62062914D02*
X90692857Y-62253390D01*
X90692857Y-62253390D02*
X90692857Y-62396247D01*
X90692857Y-62396247D02*
X90740476Y-62586723D01*
X90740476Y-62586723D02*
X90788095Y-62681961D01*
X90788095Y-62681961D02*
X90883333Y-62777200D01*
X90883333Y-62777200D02*
X91026190Y-62824819D01*
X91026190Y-62824819D02*
X91264285Y-62824819D01*
X89740476Y-62824819D02*
X90311904Y-62824819D01*
X90026190Y-62824819D02*
X90026190Y-61824819D01*
X90026190Y-61824819D02*
X90121428Y-61967676D01*
X90121428Y-61967676D02*
X90216666Y-62062914D01*
X90216666Y-62062914D02*
X90311904Y-62110533D01*
X88788095Y-62824819D02*
X89359523Y-62824819D01*
X89073809Y-62824819D02*
X89073809Y-61824819D01*
X89073809Y-61824819D02*
X89169047Y-61967676D01*
X89169047Y-61967676D02*
X89264285Y-62062914D01*
X89264285Y-62062914D02*
X89359523Y-62110533D01*
X86501904Y-62504819D02*
X86501904Y-61504819D01*
X85930476Y-62504819D02*
X86359047Y-61933390D01*
X85930476Y-61504819D02*
X86501904Y-62076247D01*
%TO.C,D1*%
D12*
X62070000Y-49850000D02*
X62720000Y-49850000D01*
X63320000Y-50970000D02*
X63320000Y-48730000D01*
X63440000Y-50970000D02*
X63440000Y-48730000D01*
X63560000Y-50970000D02*
X63560000Y-48730000D01*
X67610000Y-49850000D02*
X66960000Y-49850000D01*
X62720000Y-48730000D02*
X66960000Y-48730000D01*
X66960000Y-50970000D01*
X62720000Y-50970000D01*
X62720000Y-48730000D01*
%TO.C,D3*%
X62670000Y-53880000D02*
X66910000Y-53880000D01*
X66910000Y-56120000D01*
X62670000Y-56120000D01*
X62670000Y-53880000D01*
X67560000Y-55000000D02*
X66910000Y-55000000D01*
X63510000Y-56120000D02*
X63510000Y-53880000D01*
X63390000Y-56120000D02*
X63390000Y-53880000D01*
X63270000Y-56120000D02*
X63270000Y-53880000D01*
X62020000Y-55000000D02*
X62670000Y-55000000D01*
%TO.C,D2*%
X62720000Y-51330000D02*
X66960000Y-51330000D01*
X66960000Y-53570000D01*
X62720000Y-53570000D01*
X62720000Y-51330000D01*
X67610000Y-52450000D02*
X66960000Y-52450000D01*
X63560000Y-53570000D02*
X63560000Y-51330000D01*
X63440000Y-53570000D02*
X63440000Y-51330000D01*
X63320000Y-53570000D02*
X63320000Y-51330000D01*
X62070000Y-52450000D02*
X62720000Y-52450000D01*
%TO.C,D4*%
X62670000Y-56480000D02*
X66910000Y-56480000D01*
X66910000Y-58720000D01*
X62670000Y-58720000D01*
X62670000Y-56480000D01*
X67560000Y-57600000D02*
X66910000Y-57600000D01*
X63510000Y-58720000D02*
X63510000Y-56480000D01*
X63390000Y-58720000D02*
X63390000Y-56480000D01*
X63270000Y-58720000D02*
X63270000Y-56480000D01*
X62020000Y-57600000D02*
X62670000Y-57600000D01*
%TO.C,D5*%
X62020000Y-60150000D02*
X62670000Y-60150000D01*
X63270000Y-61270000D02*
X63270000Y-59030000D01*
X63390000Y-61270000D02*
X63390000Y-59030000D01*
X63510000Y-61270000D02*
X63510000Y-59030000D01*
X67560000Y-60150000D02*
X66910000Y-60150000D01*
X62670000Y-59030000D02*
X66910000Y-59030000D01*
X66910000Y-61270000D01*
X62670000Y-61270000D01*
X62670000Y-59030000D01*
%TO.C,U1*%
D13*
X99820000Y-53625000D02*
X116820000Y-53625000D01*
X112890730Y-58025000D02*
X112890730Y-67025000D01*
X120244030Y-58025000D02*
X112890730Y-58025000D01*
X116820000Y-71425000D02*
X99820000Y-71425000D01*
X120244030Y-67025000D02*
X120244030Y-58025000D01*
X118819090Y-55625000D02*
X118819090Y-69425000D01*
X112890730Y-67025000D02*
X120244030Y-67025000D01*
X97820000Y-69425000D02*
X97820000Y-55625000D01*
D12*
X97820000Y-55625000D02*
G75*
G02*
X99820000Y-53625000I2000000J0D01*
G01*
X116820000Y-53625000D02*
G75*
G02*
X118820000Y-55625000I-44610J-2044610D01*
G01*
X99820000Y-71425000D02*
G75*
G02*
X97820000Y-69425000I44857J2044857D01*
G01*
X118820000Y-69425000D02*
G75*
G02*
X116820000Y-71425000I-2044612J44612D01*
G01*
D14*
X117247000Y-73525000D02*
G75*
G02*
X116993000Y-73525000I-127000J0D01*
G01*
X116993000Y-73525000D02*
G75*
G02*
X117247000Y-73525000I127000J0D01*
G01*
D15*
X99798426Y-53635508D02*
X99749150Y-53637287D01*
X99700382Y-53640335D01*
X99651361Y-53644399D01*
X99602593Y-53649732D01*
X99553825Y-53656336D01*
X99505310Y-53663956D01*
X99457050Y-53672847D01*
X99409045Y-53682752D01*
X99798426Y-53635508D01*
X116881705Y-71412715D02*
X116930473Y-71409667D01*
X116979494Y-71405603D01*
X116881705Y-71412715D01*
%TO.C,D6*%
D12*
X74420000Y-55100000D02*
X75070000Y-55100000D01*
X75670000Y-56220000D02*
X75670000Y-53980000D01*
X75790000Y-56220000D02*
X75790000Y-53980000D01*
X75910000Y-56220000D02*
X75910000Y-53980000D01*
X79960000Y-55100000D02*
X79310000Y-55100000D01*
X75070000Y-53980000D02*
X79310000Y-53980000D01*
X79310000Y-56220000D01*
X75070000Y-56220000D01*
X75070000Y-53980000D01*
%TO.C,D7*%
X74420000Y-57700000D02*
X75070000Y-57700000D01*
X75670000Y-58820000D02*
X75670000Y-56580000D01*
X75790000Y-58820000D02*
X75790000Y-56580000D01*
X75910000Y-58820000D02*
X75910000Y-56580000D01*
X79960000Y-57700000D02*
X79310000Y-57700000D01*
X75070000Y-56580000D02*
X79310000Y-56580000D01*
X79310000Y-58820000D01*
X75070000Y-58820000D01*
X75070000Y-56580000D01*
%TO.C,D8*%
X74420000Y-60300000D02*
X75070000Y-60300000D01*
X75670000Y-61420000D02*
X75670000Y-59180000D01*
X75790000Y-61420000D02*
X75790000Y-59180000D01*
X75910000Y-61420000D02*
X75910000Y-59180000D01*
X79960000Y-60300000D02*
X79310000Y-60300000D01*
X75070000Y-59180000D02*
X79310000Y-59180000D01*
X79310000Y-61420000D01*
X75070000Y-61420000D01*
X75070000Y-59180000D01*
%TO.C,SW7*%
X110981000Y-78989000D02*
X111066000Y-79416000D01*
X110792000Y-78706000D02*
X110981000Y-78989000D01*
X110509000Y-78517000D02*
X110792000Y-78706000D01*
X110182000Y-78452000D02*
X110509000Y-78517000D01*
X107382000Y-78452000D02*
X110182000Y-78452000D01*
X106944000Y-78365000D02*
X107382000Y-78452000D01*
X106577000Y-78121000D02*
X106944000Y-78365000D01*
X106333000Y-77754000D02*
X106577000Y-78121000D01*
X106246000Y-77316000D02*
X106333000Y-77754000D01*
X106246000Y-77094000D02*
X106246000Y-77316000D01*
X105713000Y-76561000D02*
X106246000Y-77094000D01*
X105371000Y-76332000D02*
X105713000Y-76561000D01*
X104968000Y-76252000D02*
X105371000Y-76332000D01*
X102221000Y-76252000D02*
X104968000Y-76252000D01*
X101284000Y-77189000D02*
X102221000Y-76252000D01*
X102221000Y-81044000D02*
X101200000Y-80023000D01*
X104868000Y-81044000D02*
X102221000Y-81044000D01*
X105430000Y-81149000D02*
X104868000Y-81044000D01*
X105909000Y-81448000D02*
X105430000Y-81149000D01*
X106247000Y-81901000D02*
X105909000Y-81448000D01*
X106401000Y-82459000D02*
X106247000Y-81901000D01*
X106483000Y-82757000D02*
X106401000Y-82459000D01*
X106676000Y-83015000D02*
X106483000Y-82757000D01*
X106950000Y-83185000D02*
X106676000Y-83015000D01*
X107260000Y-83244000D02*
X106950000Y-83185000D01*
X111346000Y-83244000D02*
X107260000Y-83244000D01*
X111346000Y-82302000D02*
X111346000Y-83244000D01*
X110983000Y-82302000D02*
X111346000Y-82302000D01*
%TO.C,SW8*%
X110981000Y-96241000D02*
X111066000Y-96668000D01*
X110792000Y-95958000D02*
X110981000Y-96241000D01*
X110509000Y-95769000D02*
X110792000Y-95958000D01*
X110182000Y-95704000D02*
X110509000Y-95769000D01*
X107382000Y-95704000D02*
X110182000Y-95704000D01*
X106944000Y-95617000D02*
X107382000Y-95704000D01*
X106577000Y-95373000D02*
X106944000Y-95617000D01*
X106333000Y-95006000D02*
X106577000Y-95373000D01*
X106246000Y-94568000D02*
X106333000Y-95006000D01*
X106246000Y-94346000D02*
X106246000Y-94568000D01*
X105713000Y-93813000D02*
X106246000Y-94346000D01*
X105371000Y-93584000D02*
X105713000Y-93813000D01*
X104968000Y-93504000D02*
X105371000Y-93584000D01*
X102221000Y-93504000D02*
X104968000Y-93504000D01*
X101284000Y-94441000D02*
X102221000Y-93504000D01*
X102221000Y-98296000D02*
X101200000Y-97275000D01*
X104868000Y-98296000D02*
X102221000Y-98296000D01*
X105430000Y-98401000D02*
X104868000Y-98296000D01*
X105909000Y-98700000D02*
X105430000Y-98401000D01*
X106247000Y-99153000D02*
X105909000Y-98700000D01*
X106401000Y-99711000D02*
X106247000Y-99153000D01*
X106483000Y-100009000D02*
X106401000Y-99711000D01*
X106676000Y-100267000D02*
X106483000Y-100009000D01*
X106950000Y-100437000D02*
X106676000Y-100267000D01*
X107260000Y-100496000D02*
X106950000Y-100437000D01*
X111346000Y-100496000D02*
X107260000Y-100496000D01*
X111346000Y-99554000D02*
X111346000Y-100496000D01*
X110983000Y-99554000D02*
X111346000Y-99554000D01*
%TO.C,SW9*%
X110981000Y-113493000D02*
X111066000Y-113920000D01*
X110792000Y-113210000D02*
X110981000Y-113493000D01*
X110509000Y-113021000D02*
X110792000Y-113210000D01*
X110182000Y-112956000D02*
X110509000Y-113021000D01*
X107382000Y-112956000D02*
X110182000Y-112956000D01*
X106944000Y-112869000D02*
X107382000Y-112956000D01*
X106577000Y-112625000D02*
X106944000Y-112869000D01*
X106333000Y-112258000D02*
X106577000Y-112625000D01*
X106246000Y-111820000D02*
X106333000Y-112258000D01*
X106246000Y-111598000D02*
X106246000Y-111820000D01*
X105713000Y-111065000D02*
X106246000Y-111598000D01*
X105371000Y-110836000D02*
X105713000Y-111065000D01*
X104968000Y-110756000D02*
X105371000Y-110836000D01*
X102221000Y-110756000D02*
X104968000Y-110756000D01*
X101284000Y-111693000D02*
X102221000Y-110756000D01*
X102221000Y-115548000D02*
X101200000Y-114527000D01*
X104868000Y-115548000D02*
X102221000Y-115548000D01*
X105430000Y-115653000D02*
X104868000Y-115548000D01*
X105909000Y-115952000D02*
X105430000Y-115653000D01*
X106247000Y-116405000D02*
X105909000Y-115952000D01*
X106401000Y-116963000D02*
X106247000Y-116405000D01*
X106483000Y-117261000D02*
X106401000Y-116963000D01*
X106676000Y-117519000D02*
X106483000Y-117261000D01*
X106950000Y-117689000D02*
X106676000Y-117519000D01*
X107260000Y-117748000D02*
X106950000Y-117689000D01*
X111346000Y-117748000D02*
X107260000Y-117748000D01*
X111346000Y-116806000D02*
X111346000Y-117748000D01*
X110983000Y-116806000D02*
X111346000Y-116806000D01*
%TO.C,D9*%
X87880000Y-53930000D02*
X92120000Y-53930000D01*
X92120000Y-56170000D01*
X87880000Y-56170000D01*
X87880000Y-53930000D01*
X92770000Y-55050000D02*
X92120000Y-55050000D01*
X88720000Y-56170000D02*
X88720000Y-53930000D01*
X88600000Y-56170000D02*
X88600000Y-53930000D01*
X88480000Y-56170000D02*
X88480000Y-53930000D01*
X87230000Y-55050000D02*
X87880000Y-55050000D01*
%TO.C,D10*%
X87930000Y-56480000D02*
X92170000Y-56480000D01*
X92170000Y-58720000D01*
X87930000Y-58720000D01*
X87930000Y-56480000D01*
X92820000Y-57600000D02*
X92170000Y-57600000D01*
X88770000Y-58720000D02*
X88770000Y-56480000D01*
X88650000Y-58720000D02*
X88650000Y-56480000D01*
X88530000Y-58720000D02*
X88530000Y-56480000D01*
X87280000Y-57600000D02*
X87930000Y-57600000D01*
%TO.C,D11*%
X87930000Y-59130000D02*
X92170000Y-59130000D01*
X92170000Y-61370000D01*
X87930000Y-61370000D01*
X87930000Y-59130000D01*
X92820000Y-60250000D02*
X92170000Y-60250000D01*
X88770000Y-61370000D02*
X88770000Y-59130000D01*
X88650000Y-61370000D02*
X88650000Y-59130000D01*
X88530000Y-61370000D02*
X88530000Y-59130000D01*
X87280000Y-60250000D02*
X87930000Y-60250000D01*
%TO.C,SW1*%
X73881000Y-78989000D02*
X73966000Y-79416000D01*
X73692000Y-78706000D02*
X73881000Y-78989000D01*
X73409000Y-78517000D02*
X73692000Y-78706000D01*
X73082000Y-78452000D02*
X73409000Y-78517000D01*
X70282000Y-78452000D02*
X73082000Y-78452000D01*
X69844000Y-78365000D02*
X70282000Y-78452000D01*
X69477000Y-78121000D02*
X69844000Y-78365000D01*
X69233000Y-77754000D02*
X69477000Y-78121000D01*
X69146000Y-77316000D02*
X69233000Y-77754000D01*
X69146000Y-77094000D02*
X69146000Y-77316000D01*
X68613000Y-76561000D02*
X69146000Y-77094000D01*
X68271000Y-76332000D02*
X68613000Y-76561000D01*
X67868000Y-76252000D02*
X68271000Y-76332000D01*
X65121000Y-76252000D02*
X67868000Y-76252000D01*
X64184000Y-77189000D02*
X65121000Y-76252000D01*
X65121000Y-81044000D02*
X64100000Y-80023000D01*
X67768000Y-81044000D02*
X65121000Y-81044000D01*
X68330000Y-81149000D02*
X67768000Y-81044000D01*
X68809000Y-81448000D02*
X68330000Y-81149000D01*
X69147000Y-81901000D02*
X68809000Y-81448000D01*
X69301000Y-82459000D02*
X69147000Y-81901000D01*
X69383000Y-82757000D02*
X69301000Y-82459000D01*
X69576000Y-83015000D02*
X69383000Y-82757000D01*
X69850000Y-83185000D02*
X69576000Y-83015000D01*
X70160000Y-83244000D02*
X69850000Y-83185000D01*
X74246000Y-83244000D02*
X70160000Y-83244000D01*
X74246000Y-82302000D02*
X74246000Y-83244000D01*
X73883000Y-82302000D02*
X74246000Y-82302000D01*
%TO.C,SW2*%
X73881000Y-96241000D02*
X73966000Y-96668000D01*
X73692000Y-95958000D02*
X73881000Y-96241000D01*
X73409000Y-95769000D02*
X73692000Y-95958000D01*
X73082000Y-95704000D02*
X73409000Y-95769000D01*
X70282000Y-95704000D02*
X73082000Y-95704000D01*
X69844000Y-95617000D02*
X70282000Y-95704000D01*
X69477000Y-95373000D02*
X69844000Y-95617000D01*
X69233000Y-95006000D02*
X69477000Y-95373000D01*
X69146000Y-94568000D02*
X69233000Y-95006000D01*
X69146000Y-94346000D02*
X69146000Y-94568000D01*
X68613000Y-93813000D02*
X69146000Y-94346000D01*
X68271000Y-93584000D02*
X68613000Y-93813000D01*
X67868000Y-93504000D02*
X68271000Y-93584000D01*
X65121000Y-93504000D02*
X67868000Y-93504000D01*
X64184000Y-94441000D02*
X65121000Y-93504000D01*
X65121000Y-98296000D02*
X64100000Y-97275000D01*
X67768000Y-98296000D02*
X65121000Y-98296000D01*
X68330000Y-98401000D02*
X67768000Y-98296000D01*
X68809000Y-98700000D02*
X68330000Y-98401000D01*
X69147000Y-99153000D02*
X68809000Y-98700000D01*
X69301000Y-99711000D02*
X69147000Y-99153000D01*
X69383000Y-100009000D02*
X69301000Y-99711000D01*
X69576000Y-100267000D02*
X69383000Y-100009000D01*
X69850000Y-100437000D02*
X69576000Y-100267000D01*
X70160000Y-100496000D02*
X69850000Y-100437000D01*
X74246000Y-100496000D02*
X70160000Y-100496000D01*
X74246000Y-99554000D02*
X74246000Y-100496000D01*
X73883000Y-99554000D02*
X74246000Y-99554000D01*
%TO.C,SW3*%
X73881000Y-113493000D02*
X73966000Y-113920000D01*
X73692000Y-113210000D02*
X73881000Y-113493000D01*
X73409000Y-113021000D02*
X73692000Y-113210000D01*
X73082000Y-112956000D02*
X73409000Y-113021000D01*
X70282000Y-112956000D02*
X73082000Y-112956000D01*
X69844000Y-112869000D02*
X70282000Y-112956000D01*
X69477000Y-112625000D02*
X69844000Y-112869000D01*
X69233000Y-112258000D02*
X69477000Y-112625000D01*
X69146000Y-111820000D02*
X69233000Y-112258000D01*
X69146000Y-111598000D02*
X69146000Y-111820000D01*
X68613000Y-111065000D02*
X69146000Y-111598000D01*
X68271000Y-110836000D02*
X68613000Y-111065000D01*
X67868000Y-110756000D02*
X68271000Y-110836000D01*
X65121000Y-110756000D02*
X67868000Y-110756000D01*
X64184000Y-111693000D02*
X65121000Y-110756000D01*
X65121000Y-115548000D02*
X64100000Y-114527000D01*
X67768000Y-115548000D02*
X65121000Y-115548000D01*
X68330000Y-115653000D02*
X67768000Y-115548000D01*
X68809000Y-115952000D02*
X68330000Y-115653000D01*
X69147000Y-116405000D02*
X68809000Y-115952000D01*
X69301000Y-116963000D02*
X69147000Y-116405000D01*
X69383000Y-117261000D02*
X69301000Y-116963000D01*
X69576000Y-117519000D02*
X69383000Y-117261000D01*
X69850000Y-117689000D02*
X69576000Y-117519000D01*
X70160000Y-117748000D02*
X69850000Y-117689000D01*
X74246000Y-117748000D02*
X70160000Y-117748000D01*
X74246000Y-116806000D02*
X74246000Y-117748000D01*
X73883000Y-116806000D02*
X74246000Y-116806000D01*
%TO.C,SW4*%
X92431000Y-78989000D02*
X92516000Y-79416000D01*
X92242000Y-78706000D02*
X92431000Y-78989000D01*
X91959000Y-78517000D02*
X92242000Y-78706000D01*
X91632000Y-78452000D02*
X91959000Y-78517000D01*
X88832000Y-78452000D02*
X91632000Y-78452000D01*
X88394000Y-78365000D02*
X88832000Y-78452000D01*
X88027000Y-78121000D02*
X88394000Y-78365000D01*
X87783000Y-77754000D02*
X88027000Y-78121000D01*
X87696000Y-77316000D02*
X87783000Y-77754000D01*
X87696000Y-77094000D02*
X87696000Y-77316000D01*
X87163000Y-76561000D02*
X87696000Y-77094000D01*
X86821000Y-76332000D02*
X87163000Y-76561000D01*
X86418000Y-76252000D02*
X86821000Y-76332000D01*
X83671000Y-76252000D02*
X86418000Y-76252000D01*
X82734000Y-77189000D02*
X83671000Y-76252000D01*
X83671000Y-81044000D02*
X82650000Y-80023000D01*
X86318000Y-81044000D02*
X83671000Y-81044000D01*
X86880000Y-81149000D02*
X86318000Y-81044000D01*
X87359000Y-81448000D02*
X86880000Y-81149000D01*
X87697000Y-81901000D02*
X87359000Y-81448000D01*
X87851000Y-82459000D02*
X87697000Y-81901000D01*
X87933000Y-82757000D02*
X87851000Y-82459000D01*
X88126000Y-83015000D02*
X87933000Y-82757000D01*
X88400000Y-83185000D02*
X88126000Y-83015000D01*
X88710000Y-83244000D02*
X88400000Y-83185000D01*
X92796000Y-83244000D02*
X88710000Y-83244000D01*
X92796000Y-82302000D02*
X92796000Y-83244000D01*
X92433000Y-82302000D02*
X92796000Y-82302000D01*
%TO.C,SW5*%
X92431000Y-96241000D02*
X92516000Y-96668000D01*
X92242000Y-95958000D02*
X92431000Y-96241000D01*
X91959000Y-95769000D02*
X92242000Y-95958000D01*
X91632000Y-95704000D02*
X91959000Y-95769000D01*
X88832000Y-95704000D02*
X91632000Y-95704000D01*
X88394000Y-95617000D02*
X88832000Y-95704000D01*
X88027000Y-95373000D02*
X88394000Y-95617000D01*
X87783000Y-95006000D02*
X88027000Y-95373000D01*
X87696000Y-94568000D02*
X87783000Y-95006000D01*
X87696000Y-94346000D02*
X87696000Y-94568000D01*
X87163000Y-93813000D02*
X87696000Y-94346000D01*
X86821000Y-93584000D02*
X87163000Y-93813000D01*
X86418000Y-93504000D02*
X86821000Y-93584000D01*
X83671000Y-93504000D02*
X86418000Y-93504000D01*
X82734000Y-94441000D02*
X83671000Y-93504000D01*
X83671000Y-98296000D02*
X82650000Y-97275000D01*
X86318000Y-98296000D02*
X83671000Y-98296000D01*
X86880000Y-98401000D02*
X86318000Y-98296000D01*
X87359000Y-98700000D02*
X86880000Y-98401000D01*
X87697000Y-99153000D02*
X87359000Y-98700000D01*
X87851000Y-99711000D02*
X87697000Y-99153000D01*
X87933000Y-100009000D02*
X87851000Y-99711000D01*
X88126000Y-100267000D02*
X87933000Y-100009000D01*
X88400000Y-100437000D02*
X88126000Y-100267000D01*
X88710000Y-100496000D02*
X88400000Y-100437000D01*
X92796000Y-100496000D02*
X88710000Y-100496000D01*
X92796000Y-99554000D02*
X92796000Y-100496000D01*
X92433000Y-99554000D02*
X92796000Y-99554000D01*
%TO.C,SW6*%
X92431000Y-113493000D02*
X92516000Y-113920000D01*
X92242000Y-113210000D02*
X92431000Y-113493000D01*
X91959000Y-113021000D02*
X92242000Y-113210000D01*
X91632000Y-112956000D02*
X91959000Y-113021000D01*
X88832000Y-112956000D02*
X91632000Y-112956000D01*
X88394000Y-112869000D02*
X88832000Y-112956000D01*
X88027000Y-112625000D02*
X88394000Y-112869000D01*
X87783000Y-112258000D02*
X88027000Y-112625000D01*
X87696000Y-111820000D02*
X87783000Y-112258000D01*
X87696000Y-111598000D02*
X87696000Y-111820000D01*
X87163000Y-111065000D02*
X87696000Y-111598000D01*
X86821000Y-110836000D02*
X87163000Y-111065000D01*
X86418000Y-110756000D02*
X86821000Y-110836000D01*
X83671000Y-110756000D02*
X86418000Y-110756000D01*
X82734000Y-111693000D02*
X83671000Y-110756000D01*
X83671000Y-115548000D02*
X82650000Y-114527000D01*
X86318000Y-115548000D02*
X83671000Y-115548000D01*
X86880000Y-115653000D02*
X86318000Y-115548000D01*
X87359000Y-115952000D02*
X86880000Y-115653000D01*
X87697000Y-116405000D02*
X87359000Y-115952000D01*
X87851000Y-116963000D02*
X87697000Y-116405000D01*
X87933000Y-117261000D02*
X87851000Y-116963000D01*
X88126000Y-117519000D02*
X87933000Y-117261000D01*
X88400000Y-117689000D02*
X88126000Y-117519000D01*
X88710000Y-117748000D02*
X88400000Y-117689000D01*
X92796000Y-117748000D02*
X88710000Y-117748000D01*
X92796000Y-116806000D02*
X92796000Y-117748000D01*
X92433000Y-116806000D02*
X92796000Y-116806000D01*
%TD*%
M02*
