%TF.GenerationSoftware,KiCad,Pcbnew,10.0.4*%
%TF.CreationDate,2026-08-06T16:09:42-04:00*%
%TF.ProjectId,Untitled,556e7469-746c-4656-942e-6b696361645f,rev?*%
%TF.SameCoordinates,Original*%
%TF.FileFunction,Copper,L1,Top*%
%TF.FilePolarity,Positive*%
%FSLAX46Y46*%
G04 Gerber Fmt 4.6, Leading zero omitted, Abs format (unit mm)*
G04 Created by KiCad (PCBNEW 10.0.4) date 2026-08-06 16:09:42*
%MOMM*%
%LPD*%
G01*
G04 APERTURE LIST*
G04 Aperture macros list*
%AMRoundRect*
0 Rectangle with rounded corners*
0 $1 Rounding radius*
0 $2 $3 $4 $5 $6 $7 $8 $9 X,Y pos of 4 corners*
0 Add a 4 corners polygon primitive as box body*
4,1,4,$2,$3,$4,$5,$6,$7,$8,$9,$2,$3,0*
0 Add four circle primitives for the rounded corners*
1,1,$1+$1,$2,$3*
1,1,$1+$1,$4,$5*
1,1,$1+$1,$6,$7*
1,1,$1+$1,$8,$9*
0 Add four rect primitives between the rounded corners*
20,1,$1+$1,$2,$3,$4,$5,0*
20,1,$1+$1,$4,$5,$6,$7,0*
20,1,$1+$1,$6,$7,$8,$9,0*
20,1,$1+$1,$8,$9,$2,$3,0*%
G04 Aperture macros list end*
%TA.AperFunction,ComponentPad*%
%ADD10RoundRect,0.250000X-0.550000X-0.550000X0.550000X-0.550000X0.550000X0.550000X-0.550000X0.550000X0*%
%TD*%
%TA.AperFunction,ComponentPad*%
%ADD11C,1.600000*%
%TD*%
%TA.AperFunction,ComponentPad*%
%ADD12R,1.700000X3.500000*%
%TD*%
%TA.AperFunction,ComponentPad*%
%ADD13O,1.700000X3.600000*%
%TD*%
%TA.AperFunction,ComponentPad*%
%ADD14O,1.700000X3.700000*%
%TD*%
%TA.AperFunction,ComponentPad*%
%ADD15C,2.000000*%
%TD*%
%TA.AperFunction,ComponentPad*%
%ADD16R,3.200000X2.000000*%
%TD*%
%TA.AperFunction,ComponentPad*%
%ADD17R,2.000000X2.000000*%
%TD*%
%TA.AperFunction,ViaPad*%
%ADD18C,0.600000*%
%TD*%
%TA.AperFunction,Conductor*%
%ADD19C,0.200000*%
%TD*%
G04 APERTURE END LIST*
D10*
%TO.P,D1,1,K_1*%
%TO.N,/Row 0*%
X61030000Y-49850000D03*
D11*
%TO.P,D1,2,A_2*%
%TO.N,Net-(D1-A)*%
X68650000Y-49850000D03*
%TD*%
%TO.P,D3,2,A_2*%
%TO.N,Net-(D3-A)*%
X68600000Y-55000000D03*
D10*
%TO.P,D3,1,K_1*%
%TO.N,/Row 1*%
X60980000Y-55000000D03*
%TD*%
D11*
%TO.P,D2,2,A_2*%
%TO.N,Net-(D2-A)*%
X68650000Y-52450000D03*
D10*
%TO.P,D2,1,K_1*%
%TO.N,/Row 0*%
X61030000Y-52450000D03*
%TD*%
D11*
%TO.P,D4,2,A_2*%
%TO.N,Net-(D4-A)*%
X68600000Y-57600000D03*
D10*
%TO.P,D4,1,K_1*%
%TO.N,/Row 1*%
X60980000Y-57600000D03*
%TD*%
%TO.P,D5,1,K_1*%
%TO.N,/Row 1*%
X60980000Y-60150000D03*
D11*
%TO.P,D5,2,A_2*%
%TO.N,Net-(D5-A)*%
X68600000Y-60150000D03*
%TD*%
D12*
%TO.P,U1,1,PA02_A0_D0_1*%
%TO.N,/Row 0*%
X115940000Y-71150000D03*
D13*
%TO.P,U1,2,PA4_A1_D1_2*%
%TO.N,/Row 1*%
X113400000Y-71150000D03*
%TO.P,U1,3,PA10_A2_D2_3*%
%TO.N,/Row 2*%
X110860000Y-71150000D03*
%TO.P,U1,4,PA11_A3_D3_4*%
%TO.N,/Row 3*%
X108320000Y-71150000D03*
%TO.P,U1,5,PA8_A4_D4_SDA_5*%
%TO.N,/L0*%
X105780000Y-71150000D03*
%TO.P,U1,6,PA9_A5_D5_SCL_6*%
%TO.N,/L1*%
X103240000Y-71150000D03*
%TO.P,U1,7,PB08_A6_D6_TX_7*%
%TO.N,/L2*%
X100700000Y-71150000D03*
%TO.P,U1,8,PB09_A7_D7_RX_8*%
%TO.N,/A1*%
X100700000Y-53900000D03*
%TO.P,U1,9,PA7_A8_D8_SCK_9*%
%TO.N,/B1*%
X103240000Y-53900000D03*
%TO.P,U1,10,PA5_A9_D9_MISO_10*%
%TO.N,/A2*%
X105780000Y-53900000D03*
D14*
%TO.P,U1,11,PA6_A10_D10_MOSI_11*%
%TO.N,/B2*%
X108320000Y-53900000D03*
%TO.P,U1,12,3V3_12*%
%TO.N,unconnected-(U1-3V3-Pad12)*%
X110860000Y-53900000D03*
%TO.P,U1,13,GND_13*%
%TO.N,GND*%
X113400000Y-53900000D03*
%TO.P,U1,14,5V_14*%
%TO.N,unconnected-(U1-5V-Pad14)*%
X115940000Y-53900000D03*
%TD*%
D10*
%TO.P,D6,1,K_1*%
%TO.N,/Row 2*%
X73380000Y-55100000D03*
D11*
%TO.P,D6,2,A_2*%
%TO.N,Net-(D6-A)*%
X81000000Y-55100000D03*
%TD*%
D10*
%TO.P,D7,1,K_1*%
%TO.N,/Row 2*%
X73380000Y-57700000D03*
D11*
%TO.P,D7,2,A_2*%
%TO.N,Net-(D7-A)*%
X81000000Y-57700000D03*
%TD*%
D10*
%TO.P,D8,1,K_1*%
%TO.N,/Row 2*%
X73380000Y-60300000D03*
D11*
%TO.P,D8,2,A_2*%
%TO.N,Net-(D8-A)*%
X81000000Y-60300000D03*
%TD*%
%TO.P,D9,2,A_2*%
%TO.N,Net-(D9-A)*%
X93810000Y-55050000D03*
D10*
%TO.P,D9,1,K_1*%
%TO.N,/Row 3*%
X86190000Y-55050000D03*
%TD*%
D11*
%TO.P,D10,2,A_2*%
%TO.N,Net-(D10-A)*%
X93860000Y-57600000D03*
D10*
%TO.P,D10,1,K_1*%
%TO.N,/Row 3*%
X86240000Y-57600000D03*
%TD*%
D11*
%TO.P,D11,2,A_2*%
%TO.N,Net-(D11-A)*%
X93860000Y-60250000D03*
D10*
%TO.P,D11,1,K_1*%
%TO.N,/Row 3*%
X86240000Y-60250000D03*
%TD*%
D15*
%TO.P,R1,S2,S2_S2*%
%TO.N,/L0*%
X73625000Y-66221000D03*
%TO.P,R1,S1,S1_S1*%
%TO.N,Net-(D1-A)*%
X73625000Y-71221000D03*
D16*
%TO.P,R1,MP*%
%TO.N,N/C*%
X66625000Y-74321000D03*
X66625000Y-63121000D03*
D15*
%TO.P,R1,C,C_C*%
%TO.N,GND*%
X59125000Y-68721000D03*
%TO.P,R1,B,B_B*%
%TO.N,/B1*%
X59125000Y-71221000D03*
D17*
%TO.P,R1,A,A_A*%
%TO.N,/A1*%
X59125000Y-66221000D03*
%TD*%
D15*
%TO.P,R2,S2,S2_S2*%
%TO.N,/L1*%
X91425000Y-66371000D03*
%TO.P,R2,S1,S1_S1*%
%TO.N,Net-(D2-A)*%
X91425000Y-71371000D03*
D16*
%TO.P,R2,MP*%
%TO.N,N/C*%
X84425000Y-74471000D03*
X84425000Y-63271000D03*
D15*
%TO.P,R2,C,C_C*%
%TO.N,GND*%
X76925000Y-68871000D03*
%TO.P,R2,B,B_B*%
%TO.N,/B2*%
X76925000Y-71371000D03*
D17*
%TO.P,R2,A,A_A*%
%TO.N,/A2*%
X76925000Y-66371000D03*
%TD*%
D18*
%TO.N,/L2*%
X97888908Y-75600000D03*
X100200000Y-113102000D03*
%TO.N,/L1*%
X98100000Y-95750000D03*
X96900000Y-76200000D03*
%TO.N,Net-(D11-A)*%
X112200000Y-115302000D03*
%TO.N,Net-(D10-A)*%
X112150000Y-96050000D03*
%TO.N,Net-(D9-A)*%
X111800000Y-78850000D03*
%TO.N,Net-(D8-A)*%
X93000000Y-73050000D03*
X72450000Y-67950000D03*
X95950000Y-113150000D03*
X73976265Y-62573735D03*
X95950000Y-74350000D03*
%TO.N,Net-(D7-A)*%
X95350000Y-95800000D03*
X84650000Y-61770998D03*
X87000000Y-61900000D03*
%TO.N,Net-(D6-A)*%
X93600000Y-79050000D03*
%TO.N,Net-(D5-A)*%
X74950000Y-113400000D03*
%TO.N,Net-(D4-A)*%
X75050000Y-96300000D03*
%TO.N,Net-(D3-A)*%
X75250000Y-79100000D03*
%TO.N,Net-(D2-A)*%
X75600000Y-64071000D03*
X73776473Y-64071000D03*
%TO.N,/B2*%
X104011092Y-58938908D03*
X95400000Y-67400000D03*
X99200000Y-64400000D03*
%TO.N,/A2*%
X102811092Y-57738908D03*
%TO.N,/Row 1*%
X92812562Y-49437438D03*
X91550000Y-48150000D03*
%TD*%
%TO.N,/L2*%
D19*
X97888908Y-75600000D02*
X100825000Y-78536092D01*
X100825000Y-112477000D02*
X100200000Y-113102000D01*
X100825000Y-78536092D02*
X100825000Y-112477000D01*
%TO.N,/L1*%
X96900000Y-94550000D02*
X98100000Y-95750000D01*
X96900000Y-76200000D02*
X96900000Y-94550000D01*
%TO.N,Net-(D11-A)*%
X102090000Y-72576346D02*
X106825000Y-77311346D01*
X93860000Y-60250000D02*
X93860000Y-66708529D01*
X93860000Y-66708529D02*
X95151471Y-68000000D01*
X95151471Y-68000000D02*
X100366346Y-68000000D01*
X102090000Y-69723654D02*
X102090000Y-72576346D01*
X100366346Y-68000000D02*
X102090000Y-69723654D01*
X106825000Y-77311346D02*
X106825000Y-81574650D01*
X107923350Y-82673000D02*
X109173000Y-82673000D01*
X106825000Y-81574650D02*
X107923350Y-82673000D01*
X109173000Y-82673000D02*
X111100000Y-84600000D01*
X111100000Y-84600000D02*
X111100000Y-114202000D01*
X111100000Y-114202000D02*
X112200000Y-115302000D01*
%TO.N,Net-(D10-A)*%
X104630000Y-74076350D02*
X112150000Y-81596350D01*
X112150000Y-81596350D02*
X112150000Y-96050000D01*
X104630000Y-68370000D02*
X104630000Y-74076350D01*
X93860000Y-57600000D02*
X104630000Y-68370000D01*
%TO.N,Net-(D9-A)*%
X107170000Y-68410000D02*
X107170000Y-74220000D01*
X107170000Y-74220000D02*
X111800000Y-78850000D01*
X93810000Y-55050000D02*
X107170000Y-68410000D01*
%TO.N,Net-(D8-A)*%
X95950000Y-74350000D02*
X95950000Y-113150000D01*
X76250000Y-60300000D02*
X73976265Y-62573735D01*
X92979000Y-73071000D02*
X93000000Y-73050000D01*
X81000000Y-60300000D02*
X76250000Y-60300000D01*
X72450000Y-67950000D02*
X72325000Y-68075000D01*
X72325000Y-71759478D02*
X73636522Y-73071000D01*
X73636522Y-73071000D02*
X92979000Y-73071000D01*
X72325000Y-68075000D02*
X72325000Y-71759478D01*
%TO.N,Net-(D7-A)*%
X87000000Y-61900000D02*
X87000000Y-63784478D01*
X87000000Y-63784478D02*
X95350000Y-72134478D01*
X81000000Y-57700000D02*
X84650000Y-61350000D01*
X95350000Y-72134478D02*
X95350000Y-95800000D01*
X84650000Y-61350000D02*
X84650000Y-61770998D01*
%TO.N,Net-(D6-A)*%
X93600000Y-71707522D02*
X93600000Y-79050000D01*
X86325000Y-64432522D02*
X93600000Y-71707522D01*
X86325000Y-61971000D02*
X86325000Y-64432522D01*
X85971000Y-61971000D02*
X86325000Y-61971000D01*
X85140000Y-59240000D02*
X85140000Y-61140000D01*
X85140000Y-61140000D02*
X85971000Y-61971000D01*
X81000000Y-55100000D02*
X85140000Y-59240000D01*
%TO.N,Net-(D5-A)*%
X68600000Y-60150000D02*
X68600000Y-75146350D01*
X74450000Y-112900000D02*
X74950000Y-113400000D01*
X74450000Y-80996350D02*
X74450000Y-112900000D01*
X68600000Y-75146350D02*
X74450000Y-80996350D01*
%TO.N,Net-(D4-A)*%
X75050000Y-79748529D02*
X75050000Y-96300000D01*
X71080000Y-75778529D02*
X75050000Y-79748529D01*
X71080000Y-60080000D02*
X71080000Y-75778529D01*
X68600000Y-57600000D02*
X71080000Y-60080000D01*
%TO.N,Net-(D3-A)*%
X71480000Y-75330000D02*
X75250000Y-79100000D01*
X71480000Y-57880000D02*
X71480000Y-75330000D01*
X68600000Y-55000000D02*
X71480000Y-57880000D01*
%TO.N,Net-(D2-A)*%
X71880000Y-62174527D02*
X73776473Y-64071000D01*
X75600000Y-64071000D02*
X76100000Y-64571000D01*
X68650000Y-52450000D02*
X71880000Y-55680000D01*
X71880000Y-55680000D02*
X71880000Y-62174527D01*
X76100000Y-64571000D02*
X84625000Y-64571000D01*
X84625000Y-64571000D02*
X91425000Y-71371000D01*
%TO.N,Net-(D1-A)*%
X68650000Y-49850000D02*
X72280000Y-53480000D01*
X72280000Y-53480000D02*
X72280000Y-61726000D01*
X72280000Y-61726000D02*
X75625000Y-65071000D01*
X75625000Y-65071000D02*
X78225000Y-65071000D01*
X78225000Y-65071000D02*
X78225000Y-71909478D01*
X78225000Y-71909478D02*
X77463478Y-72671000D01*
X77463478Y-72671000D02*
X75075000Y-72671000D01*
X75075000Y-72671000D02*
X73625000Y-71221000D01*
%TO.N,GND*%
X59275000Y-68871000D02*
X59125000Y-68721000D01*
X57425000Y-71725000D02*
X58500000Y-72800000D01*
X57425000Y-49873199D02*
X57425000Y-71725000D01*
X58500000Y-72800000D02*
X59384478Y-72800000D01*
X113400000Y-54900000D02*
X113400000Y-53813654D01*
X60548198Y-46750000D02*
X57425000Y-49873199D01*
X60425000Y-70021000D02*
X59125000Y-68721000D01*
X106336346Y-46750000D02*
X60548198Y-46750000D01*
X113400000Y-53813654D02*
X106336346Y-46750000D01*
X59384478Y-72800000D02*
X60425000Y-71759478D01*
X60425000Y-71759478D02*
X60425000Y-70021000D01*
%TO.N,/B2*%
X99200000Y-64400000D02*
X96200000Y-67400000D01*
X96200000Y-67400000D02*
X95400000Y-67400000D01*
X108050000Y-54900000D02*
X104011092Y-58938908D01*
X108320000Y-54900000D02*
X108050000Y-54900000D01*
%TO.N,/A2*%
X102941092Y-57738908D02*
X102811092Y-57738908D01*
X105780000Y-54900000D02*
X102941092Y-57738908D01*
%TO.N,/B1*%
X103240000Y-54900000D02*
X103240000Y-53863654D01*
X103240000Y-53863654D02*
X96526346Y-47150000D01*
X60713884Y-47150000D02*
X57825000Y-50038884D01*
X96526346Y-47150000D02*
X60713884Y-47150000D01*
X57825000Y-50038884D02*
X57825000Y-69921000D01*
X57825000Y-69921000D02*
X59125000Y-71221000D01*
%TO.N,/A1*%
X100700000Y-54900000D02*
X93350000Y-47550000D01*
X93350000Y-47550000D02*
X60879570Y-47550000D01*
X59125000Y-49304570D02*
X59125000Y-66221000D01*
X60879570Y-47550000D02*
X59125000Y-49304570D01*
%TO.N,/Row 3*%
X88000000Y-49550000D02*
X90300000Y-49550000D01*
X86190000Y-51360000D02*
X88000000Y-49550000D01*
X108320000Y-67570000D02*
X108320000Y-70150000D01*
X86190000Y-55050000D02*
X86190000Y-51360000D01*
X90300000Y-49550000D02*
X108320000Y-67570000D01*
%TO.N,/Row 2*%
X73380000Y-55100000D02*
X79330000Y-49150000D01*
X110860000Y-68560000D02*
X110860000Y-70150000D01*
X79330000Y-49150000D02*
X91450000Y-49150000D01*
X91450000Y-49150000D02*
X110860000Y-68560000D01*
%TO.N,/Row 1*%
X92812562Y-49562562D02*
X113400000Y-70150000D01*
X60980000Y-55000000D02*
X59930000Y-53950000D01*
X59930000Y-53950000D02*
X59930000Y-49065256D01*
X60645256Y-48350000D02*
X91350000Y-48350000D01*
X59930000Y-49065256D02*
X60645256Y-48350000D01*
X91350000Y-48350000D02*
X91550000Y-48150000D01*
X92812562Y-49437438D02*
X92812562Y-49562562D01*
%TO.N,/Row 0*%
X61030000Y-49850000D02*
X62130000Y-48750000D01*
X62130000Y-48750000D02*
X92973654Y-48750000D01*
X92973654Y-48750000D02*
X113273654Y-69050000D01*
X113273654Y-69050000D02*
X114840000Y-69050000D01*
X114840000Y-69050000D02*
X115940000Y-70150000D01*
%TO.N,/Row 1*%
X60980000Y-57600000D02*
X60980000Y-60150000D01*
X60980000Y-55000000D02*
X60980000Y-57600000D01*
%TO.N,/Row 3*%
X86240000Y-57600000D02*
X86240000Y-60250000D01*
X86190000Y-55050000D02*
X86190000Y-57550000D01*
X86190000Y-57550000D02*
X86240000Y-57600000D01*
%TO.N,/Row 2*%
X73380000Y-57700000D02*
X73380000Y-60300000D01*
X73380000Y-55120000D02*
X73350000Y-55150000D01*
X73350000Y-55150000D02*
X73380000Y-55180000D01*
X73380000Y-55100000D02*
X73380000Y-55120000D01*
X73380000Y-55180000D02*
X73380000Y-57700000D01*
%TO.N,/Row 0*%
X61030000Y-49850000D02*
X61030000Y-52450000D01*
%TD*%
M02*
