M48
; DRILL file KiCad 10.0.4 date 2026-08-06T16:09:39
; FORMAT={-:-/ absolute / metric / decimal}
; #@! TF.CreationDate,2026-08-06T16:09:39-04:00
; #@! TF.GenerationSoftware,Kicad,Pcbnew,10.0.4
; #@! TF.FileFunction,Plated,1,2,PTH
FMAT,2
METRIC
; #@! TA.AperFunction,Plated,PTH,ViaDrill
T1C0.300
; #@! TA.AperFunction,Plated,PTH,ComponentDrill
T2C0.800
; #@! TA.AperFunction,Plated,PTH,ComponentDrill
T3C1.000
; #@! TA.AperFunction,Plated,PTH,ComponentDrill
T4C1.500
%
G90
G05
T1
X72.45Y-67.95
X73.776Y-64.071
X73.976Y-62.574
X74.95Y-113.4
X75.05Y-96.3
X75.25Y-79.1
X75.6Y-64.071
X84.65Y-61.771
X87.0Y-61.9
X91.55Y-48.15
X92.813Y-49.437
X93.0Y-73.05
X93.6Y-79.05
X95.35Y-95.8
X95.4Y-67.4
X95.95Y-74.35
X95.95Y-113.15
X96.9Y-76.2
X97.889Y-75.6
X98.1Y-95.75
X99.2Y-64.4
X100.2Y-113.102
X102.811Y-57.739
X104.011Y-58.939
X111.8Y-78.85
X112.15Y-96.05
X112.2Y-115.302
T2
X60.98Y-55.0
X60.98Y-57.6
X60.98Y-60.15
X61.03Y-49.85
X61.03Y-52.45
X68.6Y-55.0
X68.6Y-57.6
X68.6Y-60.15
X68.65Y-49.85
X68.65Y-52.45
X73.38Y-55.1
X73.38Y-57.7
X73.38Y-60.3
X81.0Y-55.1
X81.0Y-57.7
X81.0Y-60.3
X86.19Y-55.05
X86.24Y-57.6
X86.24Y-60.25
X93.81Y-55.05
X93.86Y-57.6
X93.86Y-60.25
T3
X59.125Y-66.221
X59.125Y-68.721
X59.125Y-71.221
X73.625Y-66.221
X73.625Y-71.221
X76.925Y-66.371
X76.925Y-68.871
X76.925Y-71.371
X91.425Y-66.371
X91.425Y-71.371
X100.7Y-54.9
X100.7Y-70.15
X103.24Y-54.9
X103.24Y-70.15
X105.78Y-54.9
X105.78Y-70.15
X108.32Y-54.9
X108.32Y-70.15
X110.86Y-54.9
X110.86Y-70.15
X113.4Y-54.9
X113.4Y-70.15
X115.94Y-54.9
X115.94Y-70.15
T4
G00X65.975Y-63.121
M15
G01X67.275Y-63.121
M16
G05
G00X65.975Y-74.321
M15
G01X67.275Y-74.321
M16
G05
G00X83.775Y-63.271
M15
G01X85.075Y-63.271
M16
G05
G00X83.775Y-74.471
M15
G01X85.075Y-74.471
M16
G05
M30
