M48
; DRILL file KiCad 10.0.4 date 2026-08-06T16:09:39
; FORMAT={-:-/ absolute / metric / decimal}
; #@! TF.CreationDate,2026-08-06T16:09:39-04:00
; #@! TF.GenerationSoftware,Kicad,Pcbnew,10.0.4
; #@! TF.FileFunction,NonPlated,1,2,NPTH
FMAT,2
METRIC
; #@! TA.AperFunction,NonPlated,NPTH,ComponentDrill
T1C1.600
; #@! TA.AperFunction,NonPlated,NPTH,ComponentDrill
T2C1.900
; #@! TA.AperFunction,NonPlated,NPTH,ComponentDrill
T3C3.050
; #@! TA.AperFunction,NonPlated,NPTH,ComponentDrill
T4C5.050
%
G90
G05
T1
X61.6Y-89.748
X61.6Y-107.0
X61.6Y-124.252
X80.15Y-89.748
X80.15Y-107.0
X80.15Y-124.252
X98.7Y-89.748
X98.7Y-107.0
X98.7Y-124.252
T2
X61.1Y-84.598
X61.1Y-101.85
X61.1Y-119.102
X72.1Y-84.598
X72.1Y-101.85
X72.1Y-119.102
X79.65Y-84.598
X79.65Y-101.85
X79.65Y-119.102
X90.65Y-84.598
X90.65Y-101.85
X90.65Y-119.102
X98.2Y-84.598
X98.2Y-101.85
X98.2Y-119.102
X109.2Y-84.598
X109.2Y-101.85
X109.2Y-119.102
T3
X66.6Y-78.698
X66.6Y-95.95
X66.6Y-113.202
X71.6Y-80.798
X71.6Y-98.05
X71.6Y-115.302
X85.15Y-78.698
X85.15Y-95.95
X85.15Y-113.202
X90.15Y-80.798
X90.15Y-98.05
X90.15Y-115.302
X103.7Y-78.698
X103.7Y-95.95
X103.7Y-113.202
X108.7Y-80.798
X108.7Y-98.05
X108.7Y-115.302
T4
X66.6Y-84.598
X66.6Y-101.85
X66.6Y-119.102
X85.15Y-84.598
X85.15Y-101.85
X85.15Y-119.102
X103.7Y-84.598
X103.7Y-101.85
X103.7Y-119.102
M30
